<svg width="25" height="24" viewBox="0 0 25 24" fill="none" xmlns="http://www.w3.org/2000/svg">
<path fill-rule="evenodd" clip-rule="evenodd" d="M23.4375 12C23.4375 11.8011 23.3552 11.6103 23.2087 11.4697C23.0622 11.329 22.8635 11.25 22.6562 11.25H4.22969L9.14688 6.531C9.29357 6.39017 9.37599 6.19917 9.37599 6C9.37599 5.80084 9.29357 5.60983 9.14688 5.469C9.00018 5.32817 8.80121 5.24905 8.59375 5.24905C8.38629 5.24905 8.18732 5.32817 8.04062 5.469L1.79062 11.469C1.71787 11.5387 1.66015 11.6214 1.62076 11.7126C1.58138 11.8037 1.5611 11.9014 1.5611 12C1.5611 12.0987 1.58138 12.1963 1.62076 12.2875C1.66015 12.3786 1.71787 12.4613 1.79062 12.531L8.04062 18.531C8.18732 18.6718 8.38629 18.7509 8.59375 18.7509C8.80121 18.7509 9.00018 18.6718 9.14688 18.531C9.29357 18.3902 9.37599 18.1992 9.37599 18C9.37599 17.8008 9.29357 17.6098 9.14688 17.469L4.22969 12.75H22.6562C22.8635 12.75 23.0622 12.671 23.2087 12.5303C23.3552 12.3897 23.4375 12.1989 23.4375 12Z" fill="#595959"/>
</svg>
