<svg width="27" height="27" viewBox="0 0 27 27" fill="none" xmlns="http://www.w3.org/2000/svg">
<path fill-rule="evenodd" clip-rule="evenodd" d="M1.6875 13.5C1.6875 13.2762 1.77639 13.0616 1.93463 12.9034C2.09286 12.7451 2.30747 12.6562 2.53125 12.6562H22.4319L17.1214 7.34737C16.9629 7.18894 16.8739 6.97406 16.8739 6.75C16.8739 6.52594 16.9629 6.31106 17.1214 6.15262C17.2798 5.99419 17.4947 5.90518 17.7188 5.90518C17.9428 5.90518 18.1577 5.99419 18.3161 6.15262L25.0661 12.9026C25.1447 12.981 25.207 13.0741 25.2496 13.1766C25.2921 13.2791 25.314 13.389 25.314 13.5C25.314 13.611 25.2921 13.7209 25.2496 13.8234C25.207 13.9259 25.1447 14.019 25.0661 14.0974L18.3161 20.8474C18.1577 21.0058 17.9428 21.0948 17.7188 21.0948C17.4947 21.0948 17.2798 21.0058 17.1214 20.8474C16.9629 20.6889 16.8739 20.4741 16.8739 20.25C16.8739 20.0259 16.9629 19.8111 17.1214 19.6526L22.4319 14.3437H2.53125C2.30747 14.3437 2.09286 14.2549 1.93463 14.0966C1.77639 13.9384 1.6875 13.7238 1.6875 13.5Z" fill="#595959"/>
</svg>
