<svg xmlns="http://www.w3.org/2000/svg" viewBox="0 0 917.47 404.46"><rect width="917.47" height="404.46" fill="none"/><path d="M214.08,105.53q-27.63,0-41.71,11.16t-14.08,36.67v88.45h34.54V162.24q0-13.81,4.51-19.39t20.19-5.58c3.24,0,7.25-.05,12.05,0l6.12-31.63Q227.12,105.52,214.08,105.53Z" fill="#e61b43"/><path d="M375.29,165.72a70.08,70.08,0,0,0-11.48-31.42c-1.19-1.77-2.46-3.5-3.8-5.16a71.1,71.1,0,0,0-10.55-10.55c-1.19-1-2.42-1.89-3.67-2.77-.49-.35-1-.69-1.49-1a70.08,70.08,0,0,0-31.42-11.48q-1.35-.15-2.7-.24c-1.7-.13-3.42-.19-5.16-.19a71.07,71.07,0,0,0-7.85.43,70.17,70.17,0,0,0-31.42,11.48c-1.78,1.19-3.5,2.45-5.16,3.8A70.63,70.63,0,0,0,250,129.14c-1.34,1.66-2.62,3.39-3.8,5.16a70.58,70.58,0,0,0,0,78.56c1.18,1.77,2.46,3.5,3.8,5.16a71.1,71.1,0,0,0,10.55,10.55c1.66,1.34,3.38,2.6,5.16,3.8a71,71,0,0,0,62.84,7.89,39.56,39.56,0,0,0,15.71-11.09v0l2.45,12.69h29V173.58A71.12,71.12,0,0,0,375.29,165.72Zm-31.78,15.71a39.1,39.1,0,0,1-7.06,15.71,39.55,39.55,0,0,1-7.86,7.86,39.29,39.29,0,0,1-62.06-23.57,39.94,39.94,0,0,1,0-15.71A39,39,0,0,1,273.6,150a39.82,39.82,0,0,1,7.86-7.86,39.29,39.29,0,0,1,47.13,0,40.09,40.09,0,0,1,7.86,7.86,39.32,39.32,0,0,1,7.06,31.42Z" fill="#e61b43"/><polygon points="509.07 105.6 454.59 241.8 423.78 241.8 369.3 105.6 403.6 105.6 439.19 199.59 474.77 105.6 509.07 105.6" fill="#e61b43"/><path d="M45.38,307.66l-1.9,10.14H21.8v11.25H48.15l-2,10.14H9.75v-52h38l-1.9,10.14h-24v10.3Z" fill="#e61b43"/><path d="M54.28,287.22h9.78l23.07,32.92V287.22H98.52v52H88.59L65.74,306.56v32.63H54.28Z" fill="#e61b43"/><path d="M142.61,307.66l-1.9,10.14H119v11.25h26.36l-2,10.14H107v-52h38l-1.9,10.14H119v10.3Z" fill="#e61b43"/><path d="M192.18,303.13v2q0,10.88-9.27,14.09l11.75,20H181.45l-9.93-18.25h-8.25v18.25H151.52v-52h20.95q10.51,0,15.11,3.68T192.18,303.13Zm-11.83,1.31v-.58c0-2.73-.58-4.55-1.75-5.48s-3.34-1.39-6.5-1.39h-8.83v14.46h8.83c3.11,0,5.27-.48,6.46-1.42s1.79-2.81,1.79-5.59Z" fill="#e61b43"/><path d="M232.62,339.19H221.89q-13.37,0-18.47-5.07t-5.11-17.34v-7.22q0-11.91,5.47-17.2t19.42-5.29q12.35,0,16.5.15l-1.9,10.07q-6.13-.15-15.33-.14-7.23,0-9.45,2.37t-2.23,10.18v6.86q0,7.88,2.19,10.25t8.76,2.38h7.45V319.7H221l2.05-9.93h18.25v21.69c0,2.67-.63,4.63-1.87,5.87S235.93,339.19,232.62,339.19Z" fill="#e61b43"/><path d="M242.55,287.22h13.36l11.46,21,11.31-21h13L273.13,318v21.17h-11.9v-21Z" fill="#e61b43"/><path d="M328.1,307l8.91,1.53q7.44,1.32,10.36,4.71t2.92,10v1.1q0,8-4.56,11.54t-16,3.5q-12.55,0-19-.15l1.83-9.78q5.1.15,17.3.14,4.81,0,6.42-1.05c1.07-.71,1.61-2.09,1.61-4.13s-.35-3.21-1-3.94-2.16-1.29-4.45-1.68l-7.66-1.31q-8.25-1.47-11.1-4.64t-2.85-9.89v-1.17q0-7.23,4.6-10.95t15-3.72q12.62,0,18.32.14L347,297c-3.35-.1-8.93-.15-16.71-.15q-4.38,0-5.88,1t-1.5,3.87a5.19,5.19,0,0,0,1,3.61Q324.89,306.41,328.1,307Z" fill="#e61b43"/><path d="M351.24,287.22H364.6l11.46,21,11.32-21h13L381.83,318v21.17h-11.9v-21Z" fill="#e61b43"/><path d="M418.84,307l8.91,1.53q7.44,1.32,10.36,4.71t2.92,10v1.1q0,8-4.56,11.54t-16,3.5q-12.56,0-19-.15l1.82-9.78q5.11.15,17.3.14,4.83,0,6.43-1.05c1.07-.71,1.6-2.09,1.6-4.13s-.34-3.21-1-3.94-2.17-1.29-4.45-1.68l-7.67-1.31q-8.25-1.47-11.1-4.64t-2.85-9.89v-1.17q0-7.23,4.6-10.95t15-3.72q12.63,0,18.32.14L437.74,297q-5-.15-16.72-.15-4.38,0-5.87,1t-1.5,3.87a5.23,5.23,0,0,0,1,3.61C415.3,306.06,416.7,306.61,418.84,307Z" fill="#e61b43"/><path d="M445,287.22h45.12l-2,10.14H472.5v41.83H460.45V297.36H443.08Z" fill="#e61b43"/><path d="M530.9,307.66,529,317.8H507.32v11.25h26.35l-2,10.14H495.27v-52h38l-1.9,10.14h-24v10.3Z" fill="#e61b43"/><path d="M570.83,324.66h-9.71l-10-19.34v33.87H539.8v-52h12.85l13.58,26.5,13.14-26.5h12.77v52H580.83V305Z" fill="#e61b43"/><path d="M615.57,307l8.91,1.53q7.44,1.32,10.37,4.71t2.92,10v1.1q0,8-4.57,11.54t-16,3.5q-12.56,0-19-.15l1.83-9.78q5.1.15,17.3.14,4.82,0,6.42-1.05c1.07-.71,1.61-2.09,1.61-4.13s-.34-3.21-1-3.94-2.17-1.29-4.46-1.68l-7.66-1.31Q604,316,601.19,312.8t-2.85-9.89v-1.17q0-7.23,4.6-10.95t15-3.72q12.63,0,18.32.14L634.48,297q-5-.15-16.72-.15-4.38,0-5.88,1t-1.5,3.87a5.29,5.29,0,0,0,1,3.61Q612.36,306.41,615.57,307Z" fill="#e61b43"/><path d="M604.88,149.73a2.83,2.83,0,0,1,.2.28c.12.15.23.31.34.47C605.26,150.23,605.07,150,604.88,149.73Zm2.88,4.49c0,.06.07.12.1.19h0Zm0,0c0,.06.07.12.1.19h0ZM605.08,150c.12.15.23.31.34.47-.16-.25-.35-.5-.54-.75A2.83,2.83,0,0,1,605.08,150Zm38.68,15.41c-.25-2.32-.62-4.6-1.09-6.84a0,0,0,0,1,0,0,71.19,71.19,0,0,0-139.25-.17.85.85,0,0,0,0,.17,0,0,0,0,1,0,0c-.47,2.24-.84,4.52-1.09,6.84a71.85,71.85,0,0,0-.44,7.9c0,.39,0,.77,0,1.16,0,1.23.07,2.46.16,3.68.06,1.07.16,2.13.28,3.19A71.09,71.09,0,0,0,573,244.51c28.2,0,54.1-16.2,65.63-40L604.74,198a41,41,0,0,1-71.64-16.68H643.75c.26-2.26.4-4.55.44-6.87,0-.39,0-.77,0-1.16A71.85,71.85,0,0,0,643.76,165.42Zm-34-6.87H536.22c0-.06,0-.11.07-.17h-.09a39.27,39.27,0,0,1,73.72,0h-.19a.89.89,0,0,1,.08.17Zm-1.95-4.14h0l-.11-.19c0,.06.07.12.1.19Zm-2.78-4.4c.12.15.23.31.34.47-.16-.25-.35-.5-.54-.75a2.83,2.83,0,0,1,.2.28Z" fill="#e61b43"/><path d="M142,165.06a71.3,71.3,0,0,0-3.59-15.71,70.29,70.29,0,0,0-7.89-15.71q-1.78-2.67-3.8-5.16a71.58,71.58,0,0,0-10.55-10.55c-1.66-1.34-3.39-2.61-5.16-3.8a71,71,0,0,0-47.14-11.47c-5.44.6-9.79,1.28-13.53,2.72-5.72,2.21-9.12,3.78-14.78,9V70.83l-17,3.28L1,77.5v95.41c0,2.81.11,5.62.37,8.42a70.2,70.2,0,0,0,11.48,31.42q1.78,2.67,3.8,5.16a71.1,71.1,0,0,0,10.55,10.55c1.66,1.35,3.39,2.62,5.16,3.81a70.53,70.53,0,0,0,31.42,11.48,73.76,73.76,0,0,0,15.72,0A70.48,70.48,0,0,0,111,232.27c1.77-1.19,3.5-2.46,5.16-3.81a71,71,0,0,0,10.55-10.54q2-2.49,3.8-5.16a70,70,0,0,0,11.48-31.42,81.79,81.79,0,0,0,.49-8.42A71.12,71.12,0,0,0,142,165.06Zm-31.84,16.27A39.17,39.17,0,0,1,103.1,197a39.77,39.77,0,0,1-7.86,7.85,39.27,39.27,0,0,1-47.14,0A39.77,39.77,0,0,1,40.24,197a39.31,39.31,0,0,1-7.06-15.71,44.75,44.75,0,0,1-.73-8.42,39.27,39.27,0,0,1,7.85-23.56,40.09,40.09,0,0,1,7.86-7.86,39.3,39.3,0,0,1,47.14,0,39.82,39.82,0,0,1,7.86,7.86A39.2,39.2,0,0,1,111,172.91,44.86,44.86,0,0,1,110.16,181.33Z" fill="#e61b43"/></svg>