<svg xmlns="http://www.w3.org/2000/svg" viewBox="0 0 917.47 404.46"><rect width="917.47" height="404.46" fill="none"/><rect x="4.6" y="3.14" width="398.17" height="398.17" rx="70.87" fill="#ffdb61"/><path d="M257.21,303.84a21.92,21.92,0,0,1-8.47-1.72,21.28,21.28,0,0,1-13.3-20l.08-34.65-63.88-.16-.09,34.92a21.63,21.63,0,0,1-37,15.2L54.85,217.29a21.63,21.63,0,0,1,.07-30.59L135.05,107l.63.64-.63-.64a21.63,21.63,0,0,1,36.89,15.38l-.06,22.85,14.8-14.73a21.5,21.5,0,0,1,15.26-6.3H202a21.53,21.53,0,0,1,15.29,6.38l18.48,18.57.07-26.87a21.63,21.63,0,0,1,37-15.21l79.73,80.12a21.63,21.63,0,0,1-.08,30.6l-80.12,79.73A21.32,21.32,0,0,1,257.21,303.84Zm-19.88-56.39-.08,34.66a19.83,19.83,0,0,0,33.81,14.1l80.12-79.73a19.82,19.82,0,0,0,.06-28l-79.73-80.12a19.82,19.82,0,0,0-33.87,13.94l-.07,28.68L297,210.67a21.63,21.63,0,0,1-15.33,36.89h-.06Zm-87.15-145a19.55,19.55,0,0,0-13.86,5.82L56.2,188a19.83,19.83,0,0,0-.07,28l79.73,80.12a19.83,19.83,0,0,0,33.88-13.94l.08-34.91-48-.12a21.63,21.63,0,0,1-15.21-37L170.07,147l.06-24.65A19.5,19.5,0,0,0,157.94,104,20.13,20.13,0,0,0,150.18,102.43ZM281.62,245.75h.05a19.82,19.82,0,0,0,14.05-33.81L237.56,153.5l-.22,92.14Zm-110-.27,63.89.16.23-94L216,131.82A19.73,19.73,0,0,0,202,126h-.05a19.66,19.66,0,0,0-14,5.78l-16.08,16Zm-1.58-95.92-62.22,61.93a19.82,19.82,0,0,0,13.93,33.87l48.06.12Z" fill="#282486" stroke="#282486" stroke-miterlimit="10" stroke-width="13"/></svg>