<svg width="32" height="22" viewBox="0 0 32 22" fill="none" xmlns="http://www.w3.org/2000/svg">
<path d="M17.9062 12.9735C17.9062 10.7635 18.2463 8.86512 18.9263 7.27845C19.6063 5.63512 20.4846 4.30345 21.5613 3.28345C22.6379 2.20679 23.8563 1.44179 25.2163 0.988453C26.6329 0.478453 28.0213 0.223453 29.3813 0.223453V3.19845C27.9079 3.19845 26.5196 3.70845 25.2163 4.72846C23.9696 5.69179 23.2329 7.02345 23.0063 8.72345C23.1763 8.66679 23.3746 8.61012 23.6013 8.55345C23.7713 8.49679 23.9696 8.44012 24.1963 8.38345C24.4796 8.32679 24.7913 8.29845 25.1313 8.29845C26.8313 8.29845 28.2479 8.95012 29.3813 10.2535C30.5146 11.5001 31.0813 12.9735 31.0813 14.6735C31.0813 16.3735 30.4863 17.8751 29.2963 19.1785C28.1629 20.4251 26.6329 21.0485 24.7063 21.0485C22.5529 21.0485 20.8813 20.2551 19.6913 18.6685C18.5013 17.0251 17.9062 15.1268 17.9062 12.9735ZM0.90625 12.9735C0.90625 10.7635 1.24625 8.86512 1.92625 7.27845C2.60625 5.63512 3.48458 4.30345 4.56125 3.28345C5.63792 2.20679 6.85625 1.44179 8.21625 0.988453C9.63292 0.478453 11.0213 0.223453 12.3813 0.223453V3.19845C10.9079 3.19845 9.51958 3.70845 8.21625 4.72846C6.96958 5.69179 6.23292 7.02345 6.00625 8.72345C6.17625 8.66679 6.37458 8.61012 6.60125 8.55345C6.77125 8.49679 6.96958 8.44012 7.19625 8.38345C7.47958 8.32679 7.79125 8.29845 8.13125 8.29845C9.83125 8.29845 11.2479 8.95012 12.3813 10.2535C13.5146 11.5001 14.0813 12.9735 14.0813 14.6735C14.0813 16.3735 13.4863 17.8751 12.2963 19.1785C11.1629 20.4251 9.63292 21.0485 7.70625 21.0485C5.55292 21.0485 3.88125 20.2551 2.69125 18.6685C1.50125 17.0251 0.90625 15.1268 0.90625 12.9735Z" fill="#F2662F" fill-opacity="0.42"/>
</svg>
