<?xml version="1.0" encoding="utf-8"?>
<!-- Generator: Adobe Illustrator 24.2.3, SVG Export Plug-In . SVG Version: 6.00 Build 0)  -->
<svg version="1.1" id="Layer_1" xmlns="http://www.w3.org/2000/svg" xmlns:xlink="http://www.w3.org/1999/xlink" x="0px" y="0px"
	 viewBox="0 0 22 22" style="enable-background:new 0 0 22 22;" xml:space="preserve">
<style type="text/css">
	.st0{fill:none;}
	.st1{fill:#FFFFFF;}
</style>
<g id="Layer_1_1_">
	<rect y="0" class="st0" width="22" height="22"/>
	<path class="st1" d="M14.4,11L19,6.4v9.3L14.4,11z M8.4,11.8l1.6,1.6c0.3,0.3,0.6,0.4,0.9,0.4l0,0l0,0l0,0c0.4,0,0.7-0.2,1-0.4l0,0
		l1.6-1.6l4.9,4.9h-15L8.4,11.8z M3.5,5.2h15l-7.2,7.3c-0.1,0.1-0.2,0.1-0.3,0.1l0,0l0,0l0,0c-0.1,0-0.2,0-0.3-0.1l0,0L3.5,5.2z
		 M3,6.4L7.6,11L3,15.6V6.4z M19.2,4.2C19,4.1,18.8,4,18.6,4H3.4C3.2,4.1,3,4.1,2.8,4.2l0,0C2.3,4.5,2,5,2,5.7l0,0v10.6
		c0,0.9,0.6,1.6,1.4,1.6h15.2c0.8,0,1.4-0.7,1.4-1.6V5.7l0,0C20,5,19.7,4.5,19.2,4.2L19.2,4.2L19.2,4.2z"/>
</g>
</svg>
