<svg width="530" height="399" viewBox="0 0 530 399" fill="none" xmlns="http://www.w3.org/2000/svg">
<circle cx="119.044" cy="126.323" r="72.3491" fill="white"/>
<circle cx="119.044" cy="126.323" r="71.8491" stroke="#2A5CAA" stroke-opacity="0.23"/>
<path d="M100.324 125.801V126.837H97.6642V135.559H96.3902V126.837H93.7162V125.801H100.324ZM103.166 129.133C103.39 128.694 103.708 128.353 104.118 128.111C104.538 127.868 105.047 127.747 105.644 127.747V129.063H105.308C103.88 129.063 103.166 129.837 103.166 131.387V135.559H101.892V127.887H103.166V129.133ZM106.639 131.695C106.639 130.911 106.798 130.225 107.115 129.637C107.432 129.039 107.866 128.577 108.417 128.251C108.977 127.924 109.598 127.761 110.279 127.761C110.951 127.761 111.534 127.905 112.029 128.195C112.524 128.484 112.892 128.848 113.135 129.287V127.887H114.423V135.559H113.135V134.131C112.883 134.579 112.505 134.952 112.001 135.251C111.506 135.54 110.928 135.685 110.265 135.685C109.584 135.685 108.968 135.517 108.417 135.181C107.866 134.845 107.432 134.373 107.115 133.767C106.798 133.16 106.639 132.469 106.639 131.695ZM113.135 131.709C113.135 131.13 113.018 130.626 112.785 130.197C112.552 129.767 112.234 129.441 111.833 129.217C111.441 128.983 111.007 128.867 110.531 128.867C110.055 128.867 109.621 128.979 109.229 129.203C108.837 129.427 108.524 129.753 108.291 130.183C108.058 130.612 107.941 131.116 107.941 131.695C107.941 132.283 108.058 132.796 108.291 133.235C108.524 133.664 108.837 133.995 109.229 134.229C109.621 134.453 110.055 134.565 110.531 134.565C111.007 134.565 111.441 134.453 111.833 134.229C112.234 133.995 112.552 133.664 112.785 133.235C113.018 132.796 113.135 132.287 113.135 131.709ZM117.234 126.641C116.991 126.641 116.786 126.557 116.618 126.389C116.45 126.221 116.366 126.015 116.366 125.773C116.366 125.53 116.45 125.325 116.618 125.157C116.786 124.989 116.991 124.905 117.234 124.905C117.467 124.905 117.663 124.989 117.822 125.157C117.99 125.325 118.074 125.53 118.074 125.773C118.074 126.015 117.99 126.221 117.822 126.389C117.663 126.557 117.467 126.641 117.234 126.641ZM117.85 127.887V135.559H116.576V127.887H117.85ZM123.759 127.747C124.693 127.747 125.449 128.031 126.027 128.601C126.606 129.161 126.895 129.973 126.895 131.037V135.559H125.635V131.219C125.635 130.453 125.444 129.87 125.061 129.469C124.679 129.058 124.156 128.853 123.493 128.853C122.821 128.853 122.285 129.063 121.883 129.483C121.491 129.903 121.295 130.514 121.295 131.317V135.559H120.021V127.887H121.295V128.979C121.547 128.587 121.888 128.283 122.317 128.069C122.756 127.854 123.237 127.747 123.759 127.747ZM129.634 126.641C129.392 126.641 129.186 126.557 129.018 126.389C128.85 126.221 128.766 126.015 128.766 125.773C128.766 125.53 128.85 125.325 129.018 125.157C129.186 124.989 129.392 124.905 129.634 124.905C129.868 124.905 130.064 124.989 130.222 125.157C130.39 125.325 130.474 125.53 130.474 125.773C130.474 126.015 130.39 126.221 130.222 126.389C130.064 126.557 129.868 126.641 129.634 126.641ZM130.25 127.887V135.559H128.976V127.887H130.25ZM136.16 127.747C137.093 127.747 137.849 128.031 138.428 128.601C139.006 129.161 139.296 129.973 139.296 131.037V135.559H138.036V131.219C138.036 130.453 137.844 129.87 137.462 129.469C137.079 129.058 136.556 128.853 135.894 128.853C135.222 128.853 134.685 129.063 134.284 129.483C133.892 129.903 133.696 130.514 133.696 131.317V135.559H132.422V127.887H133.696V128.979C133.948 128.587 134.288 128.283 134.718 128.069C135.156 127.854 135.637 127.747 136.16 127.747ZM144.541 127.761C145.203 127.761 145.782 127.905 146.277 128.195C146.781 128.484 147.154 128.848 147.397 129.287V127.887H148.685V135.727C148.685 136.427 148.535 137.047 148.237 137.589C147.938 138.139 147.509 138.569 146.949 138.877C146.398 139.185 145.754 139.339 145.017 139.339C144.009 139.339 143.169 139.101 142.497 138.625C141.825 138.149 141.428 137.5 141.307 136.679H142.567C142.707 137.145 142.996 137.519 143.435 137.799C143.873 138.088 144.401 138.233 145.017 138.233C145.717 138.233 146.286 138.013 146.725 137.575C147.173 137.136 147.397 136.52 147.397 135.727V134.117C147.145 134.565 146.771 134.938 146.277 135.237C145.782 135.535 145.203 135.685 144.541 135.685C143.859 135.685 143.239 135.517 142.679 135.181C142.128 134.845 141.694 134.373 141.377 133.767C141.059 133.16 140.901 132.469 140.901 131.695C140.901 130.911 141.059 130.225 141.377 129.637C141.694 129.039 142.128 128.577 142.679 128.251C143.239 127.924 143.859 127.761 144.541 127.761ZM147.397 131.709C147.397 131.13 147.28 130.626 147.047 130.197C146.813 129.767 146.496 129.441 146.095 129.217C145.703 128.983 145.269 128.867 144.793 128.867C144.317 128.867 143.883 128.979 143.491 129.203C143.099 129.427 142.786 129.753 142.553 130.183C142.319 130.612 142.203 131.116 142.203 131.695C142.203 132.283 142.319 132.796 142.553 133.235C142.786 133.664 143.099 133.995 143.491 134.229C143.883 134.453 144.317 134.565 144.793 134.565C145.269 134.565 145.703 134.453 146.095 134.229C146.496 133.995 146.813 133.664 147.047 133.235C147.28 132.796 147.397 132.287 147.397 131.709ZM69.5678 145.133C69.7918 144.694 70.1092 144.353 70.5198 144.111C70.9398 143.868 71.4485 143.747 72.0458 143.747V145.063H71.7098C70.2818 145.063 69.5678 145.837 69.5678 147.387V151.559H68.2938V143.887H69.5678V145.133ZM80.5165 147.429C80.5165 147.671 80.5025 147.928 80.4745 148.199H74.3425C74.3891 148.955 74.6458 149.547 75.1125 149.977C75.5885 150.397 76.1625 150.607 76.8345 150.607C77.3851 150.607 77.8425 150.481 78.2065 150.229C78.5798 149.967 78.8411 149.622 78.9905 149.193H80.3625C80.1571 149.93 79.7465 150.532 79.1305 150.999C78.5145 151.456 77.7491 151.685 76.8345 151.685C76.1065 151.685 75.4531 151.521 74.8745 151.195C74.3051 150.868 73.8571 150.406 73.5305 149.809C73.2038 149.202 73.0405 148.502 73.0405 147.709C73.0405 146.915 73.1991 146.22 73.5165 145.623C73.8338 145.025 74.2771 144.568 74.8465 144.251C75.4251 143.924 76.0878 143.761 76.8345 143.761C77.5625 143.761 78.2065 143.919 78.7665 144.237C79.3265 144.554 79.7558 144.993 80.0545 145.553C80.3625 146.103 80.5165 146.729 80.5165 147.429ZM79.2005 147.163C79.2005 146.677 79.0931 146.262 78.8785 145.917C78.6638 145.562 78.3698 145.296 77.9965 145.119C77.6325 144.932 77.2265 144.839 76.7785 144.839C76.1345 144.839 75.5838 145.044 75.1265 145.455C74.6785 145.865 74.4218 146.435 74.3565 147.163H79.2005ZM82.8561 142.641C82.6135 142.641 82.4081 142.557 82.2401 142.389C82.0721 142.221 81.9881 142.015 81.9881 141.773C81.9881 141.53 82.0721 141.325 82.2401 141.157C82.4081 140.989 82.6135 140.905 82.8561 140.905C83.0895 140.905 83.2855 140.989 83.4441 141.157C83.6121 141.325 83.6961 141.53 83.6961 141.773C83.6961 142.015 83.6121 142.221 83.4441 142.389C83.2855 142.557 83.0895 142.641 82.8561 142.641ZM83.4721 143.887V151.559H82.1981V143.887H83.4721ZM94.8694 143.747C95.4668 143.747 95.9988 143.873 96.4654 144.125C96.9321 144.367 97.3008 144.736 97.5714 145.231C97.8421 145.725 97.9774 146.327 97.9774 147.037V151.559H96.7174V147.219C96.7174 146.453 96.5261 145.87 96.1434 145.469C95.7701 145.058 95.2614 144.853 94.6174 144.853C93.9548 144.853 93.4274 145.067 93.0354 145.497C92.6434 145.917 92.4474 146.528 92.4474 147.331V151.559H91.1874V147.219C91.1874 146.453 90.9961 145.87 90.6134 145.469C90.2401 145.058 89.7314 144.853 89.0874 144.853C88.4248 144.853 87.8974 145.067 87.5054 145.497C87.1134 145.917 86.9174 146.528 86.9174 147.331V151.559H85.6434V143.887H86.9174V144.993C87.1694 144.591 87.5054 144.283 87.9254 144.069C88.3548 143.854 88.8261 143.747 89.3394 143.747C89.9834 143.747 90.5528 143.891 91.0474 144.181C91.5421 144.47 91.9108 144.895 92.1534 145.455C92.3681 144.913 92.7228 144.493 93.2174 144.195C93.7121 143.896 94.2628 143.747 94.8694 143.747ZM101.341 145.315C101.603 144.857 101.985 144.484 102.489 144.195C102.993 143.905 103.567 143.761 104.211 143.761C104.902 143.761 105.523 143.924 106.073 144.251C106.624 144.577 107.058 145.039 107.375 145.637C107.693 146.225 107.851 146.911 107.851 147.695C107.851 148.469 107.693 149.16 107.375 149.767C107.058 150.373 106.619 150.845 106.059 151.181C105.509 151.517 104.893 151.685 104.211 151.685C103.549 151.685 102.965 151.54 102.461 151.251C101.967 150.961 101.593 150.593 101.341 150.145V151.559H100.067V141.199H101.341V145.315ZM106.549 147.695C106.549 147.116 106.433 146.612 106.199 146.183C105.966 145.753 105.649 145.427 105.247 145.203C104.855 144.979 104.421 144.867 103.945 144.867C103.479 144.867 103.045 144.983 102.643 145.217C102.251 145.441 101.934 145.772 101.691 146.211C101.458 146.64 101.341 147.139 101.341 147.709C101.341 148.287 101.458 148.796 101.691 149.235C101.934 149.664 102.251 149.995 102.643 150.229C103.045 150.453 103.479 150.565 103.945 150.565C104.421 150.565 104.855 150.453 105.247 150.229C105.649 149.995 105.966 149.664 106.199 149.235C106.433 148.796 106.549 148.283 106.549 147.695ZM116.332 143.887V151.559H115.058V150.425C114.816 150.817 114.475 151.125 114.036 151.349C113.607 151.563 113.131 151.671 112.608 151.671C112.011 151.671 111.474 151.549 110.998 151.307C110.522 151.055 110.144 150.681 109.864 150.187C109.594 149.692 109.458 149.09 109.458 148.381V143.887H110.718V148.213C110.718 148.969 110.91 149.552 111.292 149.963C111.675 150.364 112.198 150.565 112.86 150.565C113.542 150.565 114.078 150.355 114.47 149.935C114.862 149.515 115.058 148.903 115.058 148.101V143.887H116.332ZM119.757 145.133C119.981 144.694 120.299 144.353 120.709 144.111C121.129 143.868 121.638 143.747 122.235 143.747V145.063H121.899C120.471 145.063 119.757 145.837 119.757 147.387V151.559H118.483V143.887H119.757V145.133ZM126.422 151.685C125.834 151.685 125.307 151.587 124.84 151.391C124.373 151.185 124.005 150.905 123.734 150.551C123.463 150.187 123.314 149.771 123.286 149.305H124.602C124.639 149.687 124.817 150 125.134 150.243C125.461 150.485 125.885 150.607 126.408 150.607C126.893 150.607 127.276 150.499 127.556 150.285C127.836 150.07 127.976 149.799 127.976 149.473C127.976 149.137 127.827 148.889 127.528 148.731C127.229 148.563 126.767 148.399 126.142 148.241C125.573 148.091 125.106 147.942 124.742 147.793C124.387 147.634 124.079 147.405 123.818 147.107C123.566 146.799 123.44 146.397 123.44 145.903C123.44 145.511 123.557 145.151 123.79 144.825C124.023 144.498 124.355 144.241 124.784 144.055C125.213 143.859 125.703 143.761 126.254 143.761C127.103 143.761 127.789 143.975 128.312 144.405C128.835 144.834 129.115 145.422 129.152 146.169H127.878C127.85 145.767 127.687 145.445 127.388 145.203C127.099 144.96 126.707 144.839 126.212 144.839C125.755 144.839 125.391 144.937 125.12 145.133C124.849 145.329 124.714 145.585 124.714 145.903C124.714 146.155 124.793 146.365 124.952 146.533C125.12 146.691 125.325 146.822 125.568 146.925C125.82 147.018 126.165 147.125 126.604 147.247C127.155 147.396 127.603 147.545 127.948 147.695C128.293 147.835 128.587 148.049 128.83 148.339C129.082 148.628 129.213 149.006 129.222 149.473C129.222 149.893 129.105 150.271 128.872 150.607C128.639 150.943 128.307 151.209 127.878 151.405C127.458 151.591 126.973 151.685 126.422 151.685ZM138.02 147.429C138.02 147.671 138.006 147.928 137.978 148.199H131.846C131.893 148.955 132.15 149.547 132.616 149.977C133.092 150.397 133.666 150.607 134.338 150.607C134.889 150.607 135.346 150.481 135.71 150.229C136.084 149.967 136.345 149.622 136.494 149.193H137.866C137.661 149.93 137.25 150.532 136.634 150.999C136.018 151.456 135.253 151.685 134.338 151.685C133.61 151.685 132.957 151.521 132.378 151.195C131.809 150.868 131.361 150.406 131.034 149.809C130.708 149.202 130.544 148.502 130.544 147.709C130.544 146.915 130.703 146.22 131.02 145.623C131.338 145.025 131.781 144.568 132.35 144.251C132.929 143.924 133.592 143.761 134.338 143.761C135.066 143.761 135.71 143.919 136.27 144.237C136.83 144.554 137.26 144.993 137.558 145.553C137.866 146.103 138.02 146.729 138.02 147.429ZM136.704 147.163C136.704 146.677 136.597 146.262 136.382 145.917C136.168 145.562 135.874 145.296 135.5 145.119C135.136 144.932 134.73 144.839 134.282 144.839C133.638 144.839 133.088 145.044 132.63 145.455C132.182 145.865 131.926 146.435 131.86 147.163H136.704ZM148.928 143.747C149.525 143.747 150.057 143.873 150.524 144.125C150.991 144.367 151.359 144.736 151.63 145.231C151.901 145.725 152.036 146.327 152.036 147.037V151.559H150.776V147.219C150.776 146.453 150.585 145.87 150.202 145.469C149.829 145.058 149.32 144.853 148.676 144.853C148.013 144.853 147.486 145.067 147.094 145.497C146.702 145.917 146.506 146.528 146.506 147.331V151.559H145.246V147.219C145.246 146.453 145.055 145.87 144.672 145.469C144.299 145.058 143.79 144.853 143.146 144.853C142.483 144.853 141.956 145.067 141.564 145.497C141.172 145.917 140.976 146.528 140.976 147.331V151.559H139.702V143.887H140.976V144.993C141.228 144.591 141.564 144.283 141.984 144.069C142.413 143.854 142.885 143.747 143.398 143.747C144.042 143.747 144.611 143.891 145.106 144.181C145.601 144.47 145.969 144.895 146.212 145.455C146.427 144.913 146.781 144.493 147.276 144.195C147.771 143.896 148.321 143.747 148.928 143.747ZM161.126 147.429C161.126 147.671 161.112 147.928 161.084 148.199H154.952C154.999 148.955 155.255 149.547 155.722 149.977C156.198 150.397 156.772 150.607 157.444 150.607C157.995 150.607 158.452 150.481 158.816 150.229C159.189 149.967 159.451 149.622 159.6 149.193H160.972C160.767 149.93 160.356 150.532 159.74 150.999C159.124 151.456 158.359 151.685 157.444 151.685C156.716 151.685 156.063 151.521 155.484 151.195C154.915 150.868 154.467 150.406 154.14 149.809C153.813 149.202 153.65 148.502 153.65 147.709C153.65 146.915 153.809 146.22 154.126 145.623C154.443 145.025 154.887 144.568 155.456 144.251C156.035 143.924 156.697 143.761 157.444 143.761C158.172 143.761 158.816 143.919 159.376 144.237C159.936 144.554 160.365 144.993 160.664 145.553C160.972 146.103 161.126 146.729 161.126 147.429ZM159.81 147.163C159.81 146.677 159.703 146.262 159.488 145.917C159.273 145.562 158.979 145.296 158.606 145.119C158.242 144.932 157.836 144.839 157.388 144.839C156.744 144.839 156.193 145.044 155.736 145.455C155.288 145.865 155.031 146.435 154.966 147.163H159.81ZM166.545 143.747C167.479 143.747 168.235 144.031 168.813 144.601C169.392 145.161 169.681 145.973 169.681 147.037V151.559H168.421V147.219C168.421 146.453 168.23 145.87 167.847 145.469C167.465 145.058 166.942 144.853 166.279 144.853C165.607 144.853 165.071 145.063 164.669 145.483C164.277 145.903 164.081 146.514 164.081 147.317V151.559H162.807V143.887H164.081V144.979C164.333 144.587 164.674 144.283 165.103 144.069C165.542 143.854 166.023 143.747 166.545 143.747ZM173.317 144.937V149.459C173.317 149.832 173.396 150.098 173.555 150.257C173.713 150.406 173.989 150.481 174.381 150.481H175.319V151.559H174.171C173.461 151.559 172.929 151.395 172.575 151.069C172.22 150.742 172.043 150.205 172.043 149.459V144.937H171.049V143.887H172.043V141.955H173.317V143.887H175.319V144.937H173.317Z" fill="#595959"/>
<path d="M119.328 83.8399L103.578 92.0065V93.9566L119.328 102.706L132.828 95.2066V101.42H135.078V92.0065L119.328 83.8399ZM130.578 93.8827L128.328 95.1326L119.328 100.133L110.328 95.1326L108.078 93.8827L106.519 93.0163L119.328 86.3744L132.138 93.0163L130.578 93.8827Z" fill="#595959"/>
<path d="M127.203 105.262L119.328 109.691L111.453 105.262V100.582L109.203 99.3315V106.578L119.328 112.273L129.453 106.578V99.3315L127.203 100.582V105.262Z" fill="#595959"/>
<circle cx="428.573" cy="252.308" r="78.6587" fill="white"/>
<circle cx="428.573" cy="252.308" r="78.1587" stroke="#2A5CAA" stroke-opacity="0.23"/>
<path d="M408.571 261.806C408.3 261.237 407.908 260.798 407.395 260.49C406.881 260.173 406.284 260.014 405.603 260.014C404.921 260.014 404.305 260.173 403.755 260.49C403.213 260.798 402.784 261.246 402.467 261.834C402.159 262.413 402.005 263.085 402.005 263.85C402.005 264.615 402.159 265.287 402.467 265.866C402.784 266.445 403.213 266.893 403.755 267.21C404.305 267.518 404.921 267.672 405.603 267.672C406.555 267.672 407.339 267.387 407.955 266.818C408.571 266.249 408.93 265.479 409.033 264.508H405.141V263.472H410.391V264.452C410.316 265.255 410.064 265.992 409.635 266.664C409.205 267.327 408.641 267.854 407.941 268.246C407.241 268.629 406.461 268.82 405.603 268.82C404.697 268.82 403.871 268.61 403.125 268.19C402.378 267.761 401.785 267.168 401.347 266.412C400.917 265.656 400.703 264.802 400.703 263.85C400.703 262.898 400.917 262.044 401.347 261.288C401.785 260.523 402.378 259.93 403.125 259.51C403.871 259.081 404.697 258.866 405.603 258.866C406.639 258.866 407.553 259.123 408.347 259.636C409.149 260.149 409.733 260.873 410.097 261.806H408.571ZM412.733 259.818C412.49 259.818 412.285 259.734 412.117 259.566C411.949 259.398 411.865 259.193 411.865 258.95C411.865 258.707 411.949 258.502 412.117 258.334C412.285 258.166 412.49 258.082 412.733 258.082C412.966 258.082 413.162 258.166 413.321 258.334C413.489 258.502 413.573 258.707 413.573 258.95C413.573 259.193 413.489 259.398 413.321 259.566C413.162 259.734 412.966 259.818 412.733 259.818ZM413.349 261.064V268.736H412.075V261.064H413.349ZM418.642 262.114H417.032V268.736H415.758V262.114H414.764V261.064H415.758V260.518C415.758 259.659 415.978 259.034 416.416 258.642C416.864 258.241 417.578 258.04 418.558 258.04V259.104C417.998 259.104 417.602 259.216 417.368 259.44C417.144 259.655 417.032 260.014 417.032 260.518V261.064H418.642V262.114ZM421.682 262.114V266.636C421.682 267.009 421.761 267.275 421.92 267.434C422.078 267.583 422.354 267.658 422.746 267.658H423.684V268.736H422.536C421.826 268.736 421.294 268.573 420.94 268.246C420.585 267.919 420.408 267.383 420.408 266.636V262.114H419.414V261.064H420.408V259.132H421.682V261.064H423.684V262.114H421.682ZM427.943 268.862C427.355 268.862 426.828 268.764 426.361 268.568C425.895 268.363 425.526 268.083 425.255 267.728C424.985 267.364 424.835 266.949 424.807 266.482H426.123C426.161 266.865 426.338 267.177 426.655 267.42C426.982 267.663 427.407 267.784 427.929 267.784C428.415 267.784 428.797 267.677 429.077 267.462C429.357 267.247 429.497 266.977 429.497 266.65C429.497 266.314 429.348 266.067 429.049 265.908C428.751 265.74 428.289 265.577 427.663 265.418C427.094 265.269 426.627 265.119 426.263 264.97C425.909 264.811 425.601 264.583 425.339 264.284C425.087 263.976 424.961 263.575 424.961 263.08C424.961 262.688 425.078 262.329 425.311 262.002C425.545 261.675 425.876 261.419 426.305 261.232C426.735 261.036 427.225 260.938 427.775 260.938C428.625 260.938 429.311 261.153 429.833 261.582C430.356 262.011 430.636 262.599 430.673 263.346H429.399C429.371 262.945 429.208 262.623 428.909 262.38C428.62 262.137 428.228 262.016 427.733 262.016C427.276 262.016 426.912 262.114 426.641 262.31C426.371 262.506 426.235 262.763 426.235 263.08C426.235 263.332 426.315 263.542 426.473 263.71C426.641 263.869 426.847 263.999 427.089 264.102C427.341 264.195 427.687 264.303 428.125 264.424C428.676 264.573 429.124 264.723 429.469 264.872C429.815 265.012 430.109 265.227 430.351 265.516C430.603 265.805 430.734 266.183 430.743 266.65C430.743 267.07 430.627 267.448 430.393 267.784C430.16 268.12 429.829 268.386 429.399 268.582C428.979 268.769 428.494 268.862 427.943 268.862ZM435.798 264.872C435.798 264.088 435.957 263.402 436.274 262.814C436.592 262.217 437.026 261.755 437.576 261.428C438.136 261.101 438.757 260.938 439.438 260.938C440.11 260.938 440.694 261.083 441.188 261.372C441.683 261.661 442.052 262.025 442.294 262.464V261.064H443.582V268.736H442.294V267.308C442.042 267.756 441.664 268.129 441.16 268.428C440.666 268.717 440.087 268.862 439.424 268.862C438.743 268.862 438.127 268.694 437.576 268.358C437.026 268.022 436.592 267.551 436.274 266.944C435.957 266.337 435.798 265.647 435.798 264.872ZM442.294 264.886C442.294 264.307 442.178 263.803 441.944 263.374C441.711 262.945 441.394 262.618 440.992 262.394C440.6 262.161 440.166 262.044 439.69 262.044C439.214 262.044 438.78 262.156 438.388 262.38C437.996 262.604 437.684 262.931 437.45 263.36C437.217 263.789 437.1 264.293 437.1 264.872C437.1 265.46 437.217 265.973 437.45 266.412C437.684 266.841 437.996 267.173 438.388 267.406C438.78 267.63 439.214 267.742 439.69 267.742C440.166 267.742 440.6 267.63 440.992 267.406C441.394 267.173 441.711 266.841 441.944 266.412C442.178 265.973 442.294 265.465 442.294 264.886ZM449.473 260.924C450.407 260.924 451.163 261.209 451.741 261.778C452.32 262.338 452.609 263.15 452.609 264.214V268.736H451.349V264.396C451.349 263.631 451.158 263.047 450.775 262.646C450.393 262.235 449.87 262.03 449.207 262.03C448.535 262.03 447.999 262.24 447.597 262.66C447.205 263.08 447.009 263.691 447.009 264.494V268.736H445.735V261.064H447.009V262.156C447.261 261.764 447.602 261.461 448.031 261.246C448.47 261.031 448.951 260.924 449.473 260.924ZM454.214 264.872C454.214 264.088 454.373 263.402 454.69 262.814C455.008 262.217 455.442 261.755 455.992 261.428C456.552 261.101 457.178 260.938 457.868 260.938C458.466 260.938 459.021 261.078 459.534 261.358C460.048 261.629 460.44 261.988 460.71 262.436V258.376H461.998V268.736H460.71V267.294C460.458 267.751 460.085 268.129 459.59 268.428C459.096 268.717 458.517 268.862 457.854 268.862C457.173 268.862 456.552 268.694 455.992 268.358C455.442 268.022 455.008 267.551 454.69 266.944C454.373 266.337 454.214 265.647 454.214 264.872ZM460.71 264.886C460.71 264.307 460.594 263.803 460.36 263.374C460.127 262.945 459.81 262.618 459.408 262.394C459.016 262.161 458.582 262.044 458.106 262.044C457.63 262.044 457.196 262.156 456.804 262.38C456.412 262.604 456.1 262.931 455.866 263.36C455.633 263.789 455.516 264.293 455.516 264.872C455.516 265.46 455.633 265.973 455.866 266.412C456.1 266.841 456.412 267.173 456.804 267.406C457.196 267.63 457.63 267.742 458.106 267.742C458.582 267.742 459.016 267.63 459.408 267.406C459.81 267.173 460.127 266.841 460.36 266.412C460.594 265.973 460.71 265.465 460.71 264.886ZM413.779 278.114V282.636C413.779 283.009 413.859 283.275 414.017 283.434C414.176 283.583 414.451 283.658 414.843 283.658H415.781V284.736H414.633C413.924 284.736 413.392 284.573 413.037 284.246C412.683 283.919 412.505 283.383 412.505 282.636V278.114H411.511V277.064H412.505V275.132H413.779V277.064H415.781V278.114H413.779ZM418.599 278.31C418.823 277.871 419.14 277.531 419.551 277.288C419.971 277.045 420.48 276.924 421.077 276.924V278.24H420.741C419.313 278.24 418.599 279.015 418.599 280.564V284.736H417.325V277.064H418.599V278.31ZM429.548 280.606C429.548 280.849 429.534 281.105 429.506 281.376H423.374C423.42 282.132 423.677 282.725 424.144 283.154C424.62 283.574 425.194 283.784 425.866 283.784C426.416 283.784 426.874 283.658 427.238 283.406C427.611 283.145 427.872 282.799 428.022 282.37H429.394C429.188 283.107 428.778 283.709 428.162 284.176C427.546 284.633 426.78 284.862 425.866 284.862C425.138 284.862 424.484 284.699 423.906 284.372C423.336 284.045 422.888 283.583 422.562 282.986C422.235 282.379 422.072 281.679 422.072 280.886C422.072 280.093 422.23 279.397 422.548 278.8C422.865 278.203 423.308 277.745 423.878 277.428C424.456 277.101 425.119 276.938 425.866 276.938C426.594 276.938 427.238 277.097 427.798 277.414C428.358 277.731 428.787 278.17 429.086 278.73C429.394 279.281 429.548 279.906 429.548 280.606ZM428.232 280.34C428.232 279.855 428.124 279.439 427.91 279.094C427.695 278.739 427.401 278.473 427.028 278.296C426.664 278.109 426.258 278.016 425.81 278.016C425.166 278.016 424.615 278.221 424.158 278.632C423.71 279.043 423.453 279.612 423.388 280.34H428.232ZM430.753 280.872C430.753 280.088 430.912 279.402 431.229 278.814C431.547 278.217 431.981 277.755 432.531 277.428C433.091 277.101 433.712 276.938 434.393 276.938C435.065 276.938 435.649 277.083 436.143 277.372C436.638 277.661 437.007 278.025 437.249 278.464V277.064H438.537V284.736H437.249V283.308C436.997 283.756 436.619 284.129 436.115 284.428C435.621 284.717 435.042 284.862 434.379 284.862C433.698 284.862 433.082 284.694 432.531 284.358C431.981 284.022 431.547 283.551 431.229 282.944C430.912 282.337 430.753 281.647 430.753 280.872ZM437.249 280.886C437.249 280.307 437.133 279.803 436.899 279.374C436.666 278.945 436.349 278.618 435.947 278.394C435.555 278.161 435.121 278.044 434.645 278.044C434.169 278.044 433.735 278.156 433.343 278.38C432.951 278.604 432.639 278.931 432.405 279.36C432.172 279.789 432.055 280.293 432.055 280.872C432.055 281.46 432.172 281.973 432.405 282.412C432.639 282.841 432.951 283.173 433.343 283.406C433.735 283.63 434.169 283.742 434.645 283.742C435.121 283.742 435.555 283.63 435.947 283.406C436.349 283.173 436.666 282.841 436.899 282.412C437.133 281.973 437.249 281.465 437.249 280.886ZM442.244 278.114V282.636C442.244 283.009 442.324 283.275 442.482 283.434C442.641 283.583 442.916 283.658 443.308 283.658H444.246V284.736H443.098C442.389 284.736 441.857 284.573 441.502 284.246C441.148 283.919 440.97 283.383 440.97 282.636V278.114H439.976V277.064H440.97V275.132H442.244V277.064H444.246V278.114H442.244ZM448.506 284.862C447.918 284.862 447.391 284.764 446.924 284.568C446.457 284.363 446.089 284.083 445.818 283.728C445.547 283.364 445.398 282.949 445.37 282.482H446.686C446.723 282.865 446.901 283.177 447.218 283.42C447.545 283.663 447.969 283.784 448.492 283.784C448.977 283.784 449.36 283.677 449.64 283.462C449.92 283.247 450.06 282.977 450.06 282.65C450.06 282.314 449.911 282.067 449.612 281.908C449.313 281.74 448.851 281.577 448.226 281.418C447.657 281.269 447.19 281.119 446.826 280.97C446.471 280.811 446.163 280.583 445.902 280.284C445.65 279.976 445.524 279.575 445.524 279.08C445.524 278.688 445.641 278.329 445.874 278.002C446.107 277.675 446.439 277.419 446.868 277.232C447.297 277.036 447.787 276.938 448.338 276.938C449.187 276.938 449.873 277.153 450.396 277.582C450.919 278.011 451.199 278.599 451.236 279.346H449.962C449.934 278.945 449.771 278.623 449.472 278.38C449.183 278.137 448.791 278.016 448.296 278.016C447.839 278.016 447.475 278.114 447.204 278.31C446.933 278.506 446.798 278.763 446.798 279.08C446.798 279.332 446.877 279.542 447.036 279.71C447.204 279.869 447.409 279.999 447.652 280.102C447.904 280.195 448.249 280.303 448.688 280.424C449.239 280.573 449.687 280.723 450.032 280.872C450.377 281.012 450.671 281.227 450.914 281.516C451.166 281.805 451.297 282.183 451.306 282.65C451.306 283.07 451.189 283.448 450.956 283.784C450.723 284.12 450.391 284.386 449.962 284.582C449.542 284.769 449.057 284.862 448.506 284.862Z" fill="#595959"/>
<g clip-path="url(#clip0_547_37)">
<path d="M422.837 223.375C422.837 222.215 423.298 221.102 424.118 220.281C424.939 219.461 426.052 219 427.212 219C428.372 219 429.485 219.461 430.306 220.281C431.126 221.102 431.587 222.215 431.587 223.375C431.587 222.215 432.048 221.102 432.868 220.281C433.689 219.461 434.802 219 435.962 219C437.122 219 438.235 219.461 439.056 220.281C439.876 221.102 440.337 222.215 440.337 223.375V223.385C440.337 223.508 440.337 223.858 440.27 224.25H443.837C444.301 224.25 444.746 224.434 445.074 224.763C445.403 225.091 445.587 225.536 445.587 226V229.5C445.587 229.964 445.403 230.409 445.074 230.737C444.746 231.066 444.301 231.25 443.837 231.25V244.375C443.837 245.071 443.56 245.739 443.068 246.231C442.576 246.723 441.908 247 441.212 247H421.962C421.266 247 420.598 246.723 420.106 246.231C419.613 245.739 419.337 245.071 419.337 244.375V231.25C418.873 231.25 418.428 231.066 418.099 230.737C417.771 230.409 417.587 229.964 417.587 229.5V226C417.587 225.536 417.771 225.091 418.099 224.763C418.428 224.434 418.873 224.25 419.337 224.25H422.903C422.857 223.964 422.835 223.675 422.837 223.385V223.375ZM424.706 224.25H429.837V223.375C429.837 223.03 429.769 222.689 429.637 222.37C429.505 222.052 429.312 221.763 429.068 221.519C428.824 221.275 428.535 221.082 428.216 220.95C427.898 220.818 427.557 220.75 427.212 220.75C426.867 220.75 426.526 220.818 426.207 220.95C425.889 221.082 425.6 221.275 425.356 221.519C425.112 221.763 424.919 222.052 424.787 222.37C424.655 222.689 424.587 223.03 424.587 223.375C424.587 223.524 424.59 223.855 424.666 224.128C424.676 224.169 424.69 224.21 424.706 224.25ZM433.337 224.25H438.468C438.484 224.21 438.497 224.169 438.508 224.128C438.583 223.855 438.587 223.524 438.587 223.375C438.587 222.679 438.31 222.011 437.818 221.519C437.326 221.027 436.658 220.75 435.962 220.75C435.266 220.75 434.598 221.027 434.106 221.519C433.613 222.011 433.337 222.679 433.337 223.375V224.25ZM419.337 226V229.5H429.837V226H419.337ZM433.337 226V229.5H443.837V226H433.337ZM442.087 231.25H433.337V245.25H441.212C441.444 245.25 441.667 245.158 441.831 244.994C441.995 244.83 442.087 244.607 442.087 244.375V231.25ZM429.837 245.25V231.25H421.087V244.375C421.087 244.607 421.179 244.83 421.343 244.994C421.507 245.158 421.73 245.25 421.962 245.25H429.837Z" fill="#595959"/>
</g>
<circle cx="231.056" cy="268.134" r="58.7868" fill="white"/>
<circle cx="231.056" cy="268.134" r="58.2868" stroke="#2A5CAA" stroke-opacity="0.23"/>
<path d="M220.821 269.414V279.172H219.547V274.748H214.577V279.172H213.303V269.414H214.577V273.698H219.547V269.414H220.821ZM229.996 275.042C229.996 275.284 229.982 275.541 229.954 275.812H223.822C223.869 276.568 224.126 277.16 224.592 277.59C225.068 278.01 225.642 278.22 226.314 278.22C226.865 278.22 227.322 278.094 227.686 277.842C228.06 277.58 228.321 277.235 228.47 276.806H229.842C229.637 277.543 229.226 278.145 228.61 278.612C227.994 279.069 227.229 279.298 226.314 279.298C225.586 279.298 224.933 279.134 224.354 278.808C223.785 278.481 223.337 278.019 223.01 277.422C222.684 276.815 222.52 276.115 222.52 275.322C222.52 274.528 222.679 273.833 222.996 273.236C223.314 272.638 223.757 272.181 224.326 271.864C224.905 271.537 225.568 271.374 226.314 271.374C227.042 271.374 227.686 271.532 228.246 271.85C228.806 272.167 229.236 272.606 229.534 273.166C229.842 273.716 229.996 274.342 229.996 275.042ZM228.68 274.776C228.68 274.29 228.573 273.875 228.358 273.53C228.144 273.175 227.85 272.909 227.476 272.732C227.112 272.545 226.706 272.452 226.258 272.452C225.614 272.452 225.064 272.657 224.606 273.068C224.158 273.478 223.902 274.048 223.836 274.776H228.68ZM231.202 275.308C231.202 274.524 231.361 273.838 231.678 273.25C231.995 272.652 232.429 272.19 232.98 271.864C233.54 271.537 234.161 271.374 234.842 271.374C235.514 271.374 236.097 271.518 236.592 271.808C237.087 272.097 237.455 272.461 237.698 272.9V271.5H238.986V279.172H237.698V277.744C237.446 278.192 237.068 278.565 236.564 278.864C236.069 279.153 235.491 279.298 234.828 279.298C234.147 279.298 233.531 279.13 232.98 278.794C232.429 278.458 231.995 277.986 231.678 277.38C231.361 276.773 231.202 276.082 231.202 275.308ZM237.698 275.322C237.698 274.743 237.581 274.239 237.348 273.81C237.115 273.38 236.797 273.054 236.396 272.83C236.004 272.596 235.57 272.48 235.094 272.48C234.618 272.48 234.184 272.592 233.792 272.816C233.4 273.04 233.087 273.366 232.854 273.796C232.621 274.225 232.504 274.729 232.504 275.308C232.504 275.896 232.621 276.409 232.854 276.848C233.087 277.277 233.4 277.608 233.792 277.842C234.184 278.066 234.618 278.178 235.094 278.178C235.57 278.178 236.004 278.066 236.396 277.842C236.797 277.608 237.115 277.277 237.348 276.848C237.581 276.409 237.698 275.9 237.698 275.322ZM242.413 268.812V279.172H241.139V268.812H242.413ZM246.138 272.55V277.072C246.138 277.445 246.218 277.711 246.376 277.87C246.535 278.019 246.81 278.094 247.202 278.094H248.14V279.172H246.992C246.283 279.172 245.751 279.008 245.396 278.682C245.042 278.355 244.864 277.818 244.864 277.072V272.55H243.87V271.5H244.864V269.568H246.138V271.5H248.14V272.55H246.138ZM253.492 271.36C254.071 271.36 254.593 271.486 255.06 271.738C255.527 271.98 255.891 272.349 256.152 272.844C256.423 273.338 256.558 273.94 256.558 274.65V279.172H255.298V274.832C255.298 274.066 255.107 273.483 254.724 273.082C254.341 272.671 253.819 272.466 253.156 272.466C252.484 272.466 251.947 272.676 251.546 273.096C251.154 273.516 250.958 274.127 250.958 274.93V279.172H249.684V268.812H250.958V272.592C251.21 272.2 251.555 271.896 251.994 271.682C252.442 271.467 252.941 271.36 253.492 271.36ZM201.882 286.254C201.639 286.254 201.434 286.17 201.266 286.002C201.098 285.834 201.014 285.628 201.014 285.386C201.014 285.143 201.098 284.938 201.266 284.77C201.434 284.602 201.639 284.518 201.882 284.518C202.115 284.518 202.311 284.602 202.47 284.77C202.638 284.938 202.722 285.143 202.722 285.386C202.722 285.628 202.638 285.834 202.47 286.002C202.311 286.17 202.115 286.254 201.882 286.254ZM202.498 287.5V295.172H201.224V287.5H202.498ZM208.407 287.36C209.341 287.36 210.097 287.644 210.675 288.214C211.254 288.774 211.543 289.586 211.543 290.65V295.172H210.283V290.832C210.283 290.066 210.092 289.483 209.709 289.082C209.327 288.671 208.804 288.466 208.141 288.466C207.469 288.466 206.933 288.676 206.531 289.096C206.139 289.516 205.943 290.127 205.943 290.93V295.172H204.669V287.5H205.943V288.592C206.195 288.2 206.536 287.896 206.965 287.682C207.404 287.467 207.885 287.36 208.407 287.36ZM216.34 295.298C215.752 295.298 215.225 295.2 214.758 295.004C214.292 294.798 213.923 294.518 213.652 294.164C213.382 293.8 213.232 293.384 213.204 292.918H214.52C214.558 293.3 214.735 293.613 215.052 293.856C215.379 294.098 215.804 294.22 216.326 294.22C216.812 294.22 217.194 294.112 217.474 293.898C217.754 293.683 217.894 293.412 217.894 293.086C217.894 292.75 217.745 292.502 217.446 292.344C217.148 292.176 216.686 292.012 216.06 291.854C215.491 291.704 215.024 291.555 214.66 291.406C214.306 291.247 213.998 291.018 213.736 290.72C213.484 290.412 213.358 290.01 213.358 289.516C213.358 289.124 213.475 288.764 213.708 288.438C213.942 288.111 214.273 287.854 214.702 287.668C215.132 287.472 215.622 287.374 216.172 287.374C217.022 287.374 217.708 287.588 218.23 288.018C218.753 288.447 219.033 289.035 219.07 289.782H217.796C217.768 289.38 217.605 289.058 217.306 288.816C217.017 288.573 216.625 288.452 216.13 288.452C215.673 288.452 215.309 288.55 215.038 288.746C214.768 288.942 214.632 289.198 214.632 289.516C214.632 289.768 214.712 289.978 214.87 290.146C215.038 290.304 215.244 290.435 215.486 290.538C215.738 290.631 216.084 290.738 216.522 290.86C217.073 291.009 217.521 291.158 217.866 291.308C218.212 291.448 218.506 291.662 218.748 291.952C219 292.241 219.131 292.619 219.14 293.086C219.14 293.506 219.024 293.884 218.79 294.22C218.557 294.556 218.226 294.822 217.796 295.018C217.376 295.204 216.891 295.298 216.34 295.298ZM227.743 287.5V295.172H226.469V294.038C226.226 294.43 225.886 294.738 225.447 294.962C225.018 295.176 224.542 295.284 224.019 295.284C223.422 295.284 222.885 295.162 222.409 294.92C221.933 294.668 221.555 294.294 221.275 293.8C221.004 293.305 220.869 292.703 220.869 291.994V287.5H222.129V291.826C222.129 292.582 222.32 293.165 222.703 293.576C223.086 293.977 223.608 294.178 224.271 294.178C224.952 294.178 225.489 293.968 225.881 293.548C226.273 293.128 226.469 292.516 226.469 291.714V287.5H227.743ZM231.168 288.746C231.392 288.307 231.709 287.966 232.12 287.724C232.54 287.481 233.049 287.36 233.646 287.36V288.676H233.31C231.882 288.676 231.168 289.45 231.168 291V295.172H229.894V287.5H231.168V288.746ZM234.641 291.308C234.641 290.524 234.799 289.838 235.117 289.25C235.434 288.652 235.868 288.19 236.419 287.864C236.979 287.537 237.599 287.374 238.281 287.374C238.953 287.374 239.536 287.518 240.031 287.808C240.525 288.097 240.894 288.461 241.137 288.9V287.5H242.425V295.172H241.137V293.744C240.885 294.192 240.507 294.565 240.003 294.864C239.508 295.153 238.929 295.298 238.267 295.298C237.585 295.298 236.969 295.13 236.419 294.794C235.868 294.458 235.434 293.986 235.117 293.38C234.799 292.773 234.641 292.082 234.641 291.308ZM241.137 291.322C241.137 290.743 241.02 290.239 240.787 289.81C240.553 289.38 240.236 289.054 239.835 288.83C239.443 288.596 239.009 288.48 238.533 288.48C238.057 288.48 237.623 288.592 237.231 288.816C236.839 289.04 236.526 289.366 236.293 289.796C236.059 290.225 235.943 290.729 235.943 291.308C235.943 291.896 236.059 292.409 236.293 292.848C236.526 293.277 236.839 293.608 237.231 293.842C237.623 294.066 238.057 294.178 238.533 294.178C239.009 294.178 239.443 294.066 239.835 293.842C240.236 293.608 240.553 293.277 240.787 292.848C241.02 292.409 241.137 291.9 241.137 291.322ZM248.316 287.36C249.249 287.36 250.005 287.644 250.584 288.214C251.162 288.774 251.452 289.586 251.452 290.65V295.172H250.192V290.832C250.192 290.066 250 289.483 249.618 289.082C249.235 288.671 248.712 288.466 248.05 288.466C247.378 288.466 246.841 288.676 246.44 289.096C246.048 289.516 245.852 290.127 245.852 290.93V295.172H244.578V287.5H245.852V288.592C246.104 288.2 246.444 287.896 246.874 287.682C247.312 287.467 247.793 287.36 248.316 287.36ZM253.057 291.322C253.057 290.528 253.215 289.838 253.533 289.25C253.85 288.652 254.289 288.19 254.849 287.864C255.418 287.537 256.067 287.374 256.795 287.374C257.737 287.374 258.512 287.602 259.119 288.06C259.735 288.517 260.141 289.152 260.337 289.964H258.965C258.834 289.497 258.577 289.128 258.195 288.858C257.821 288.587 257.355 288.452 256.795 288.452C256.067 288.452 255.479 288.704 255.031 289.208C254.583 289.702 254.359 290.407 254.359 291.322C254.359 292.246 254.583 292.96 255.031 293.464C255.479 293.968 256.067 294.22 256.795 294.22C257.355 294.22 257.821 294.089 258.195 293.828C258.568 293.566 258.825 293.193 258.965 292.708H260.337C260.131 293.492 259.721 294.122 259.105 294.598C258.489 295.064 257.719 295.298 256.795 295.298C256.067 295.298 255.418 295.134 254.849 294.808C254.289 294.481 253.85 294.019 253.533 293.422C253.215 292.824 253.057 292.124 253.057 291.322ZM269.036 291.042C269.036 291.284 269.022 291.541 268.994 291.812H262.862C262.909 292.568 263.166 293.16 263.632 293.59C264.108 294.01 264.682 294.22 265.354 294.22C265.905 294.22 266.362 294.094 266.726 293.842C267.1 293.58 267.361 293.235 267.51 292.806H268.882C268.677 293.543 268.266 294.145 267.65 294.612C267.034 295.069 266.269 295.298 265.354 295.298C264.626 295.298 263.973 295.134 263.394 294.808C262.825 294.481 262.377 294.019 262.05 293.422C261.724 292.815 261.56 292.115 261.56 291.322C261.56 290.528 261.719 289.833 262.036 289.236C262.354 288.638 262.797 288.181 263.366 287.864C263.945 287.537 264.608 287.374 265.354 287.374C266.082 287.374 266.726 287.532 267.286 287.85C267.846 288.167 268.276 288.606 268.574 289.166C268.882 289.716 269.036 290.342 269.036 291.042ZM267.72 290.776C267.72 290.29 267.613 289.875 267.398 289.53C267.184 289.175 266.89 288.909 266.516 288.732C266.152 288.545 265.746 288.452 265.298 288.452C264.654 288.452 264.104 288.657 263.646 289.068C263.198 289.478 262.942 290.048 262.876 290.776H267.72Z" fill="#595959"/>
<g clip-path="url(#clip1_547_37)">
<path d="M229.292 249.937V250.636C229.292 252.068 229.861 253.442 230.874 254.454C231.886 255.467 233.26 256.036 234.692 256.036C236.124 256.036 237.497 255.467 238.51 254.454C239.523 253.442 240.092 252.068 240.092 250.636V248.632C239.291 248.349 238.616 247.792 238.186 247.059C237.756 246.327 237.599 245.466 237.742 244.628C237.886 243.791 238.321 243.031 238.97 242.484C239.62 241.936 240.442 241.636 241.292 241.636C242.141 241.636 242.963 241.936 243.613 242.484C244.262 243.031 244.697 243.791 244.841 244.628C244.984 245.466 244.827 246.327 244.397 247.059C243.968 247.792 243.292 248.349 242.491 248.632V250.636C242.491 252.705 241.67 254.689 240.207 256.151C238.744 257.614 236.76 258.436 234.692 258.436C232.623 258.436 230.639 257.614 229.177 256.151C227.714 254.689 226.892 252.705 226.892 250.636V249.937C225.215 249.653 223.692 248.784 222.594 247.484C221.495 246.184 220.893 244.538 220.893 242.837V236.837C220.893 236.2 221.145 235.59 221.595 235.14C222.046 234.69 222.656 234.437 223.292 234.437H224.492C224.811 234.437 225.116 234.563 225.341 234.788C225.566 235.013 225.692 235.319 225.692 235.637C225.692 235.955 225.566 236.26 225.341 236.485C225.116 236.71 224.811 236.837 224.492 236.837H223.292V242.837C223.292 244.11 223.798 245.33 224.698 246.23C225.598 247.131 226.819 247.636 228.092 247.636C229.365 247.636 230.586 247.131 231.486 246.23C232.386 245.33 232.892 244.11 232.892 242.837V236.837H231.692C231.374 236.837 231.069 236.71 230.844 236.485C230.619 236.26 230.492 235.955 230.492 235.637C230.492 235.319 230.619 235.013 230.844 234.788C231.069 234.563 231.374 234.437 231.692 234.437H232.892C233.528 234.437 234.139 234.69 234.589 235.14C235.039 235.59 235.292 236.2 235.292 236.837V242.837C235.292 244.538 234.689 246.184 233.591 247.484C232.493 248.784 230.97 249.653 229.292 249.937ZM241.292 246.436C241.61 246.436 241.915 246.31 242.14 246.085C242.365 245.86 242.491 245.555 242.491 245.236C242.491 244.918 242.365 244.613 242.14 244.388C241.915 244.163 241.61 244.036 241.292 244.036C240.973 244.036 240.668 244.163 240.443 244.388C240.218 244.613 240.092 244.918 240.092 245.236C240.092 245.555 240.218 245.86 240.443 246.085C240.668 246.31 240.973 246.436 241.292 246.436Z" fill="#595959"/>
</g>
<circle cx="68.6069" cy="331.127" r="67.6353" fill="white"/>
<circle cx="68.6069" cy="331.127" r="67.1353" stroke="#2A5CAA" stroke-opacity="0.23"/>
<path d="M33.0192 342.004L30.6952 338.014H29.1552V342.004H27.8812V332.246H31.0312C31.7686 332.246 32.3892 332.372 32.8932 332.624C33.4066 332.876 33.7892 333.217 34.0412 333.646C34.2932 334.076 34.4192 334.566 34.4192 335.116C34.4192 335.788 34.2232 336.381 33.8312 336.894C33.4486 337.408 32.8699 337.748 32.0952 337.916L34.5452 342.004H33.0192ZM29.1552 336.992H31.0312C31.7219 336.992 32.2399 336.824 32.5852 336.488C32.9306 336.143 33.1032 335.686 33.1032 335.116C33.1032 334.538 32.9306 334.09 32.5852 333.772C32.2492 333.455 31.7312 333.296 31.0312 333.296H29.1552V336.992ZM43.3988 337.874C43.3988 338.117 43.3848 338.374 43.3568 338.644H37.2248C37.2715 339.4 37.5281 339.993 37.9948 340.422C38.4708 340.842 39.0448 341.052 39.7168 341.052C40.2675 341.052 40.7248 340.926 41.0888 340.674C41.4621 340.413 41.7235 340.068 41.8728 339.638H43.2448C43.0395 340.376 42.6288 340.978 42.0128 341.444C41.3968 341.902 40.6315 342.13 39.7168 342.13C38.9888 342.13 38.3355 341.967 37.7568 341.64C37.1875 341.314 36.7395 340.852 36.4128 340.254C36.0861 339.648 35.9228 338.948 35.9228 338.154C35.9228 337.361 36.0815 336.666 36.3988 336.068C36.7161 335.471 37.1595 335.014 37.7288 334.696C38.3075 334.37 38.9701 334.206 39.7168 334.206C40.4448 334.206 41.0888 334.365 41.6488 334.682C42.2088 335 42.6381 335.438 42.9368 335.998C43.2448 336.549 43.3988 337.174 43.3988 337.874ZM42.0828 337.608C42.0828 337.123 41.9755 336.708 41.7608 336.362C41.5461 336.008 41.2521 335.742 40.8788 335.564C40.5148 335.378 40.1088 335.284 39.6608 335.284C39.0168 335.284 38.4661 335.49 38.0088 335.9C37.5608 336.311 37.3041 336.88 37.2388 337.608H42.0828ZM54.3064 334.192C54.9038 334.192 55.4358 334.318 55.9024 334.57C56.3691 334.813 56.7378 335.182 57.0084 335.676C57.2791 336.171 57.4144 336.773 57.4144 337.482V342.004H56.1544V337.664C56.1544 336.899 55.9631 336.316 55.5804 335.914C55.2071 335.504 54.6984 335.298 54.0544 335.298C53.3918 335.298 52.8644 335.513 52.4724 335.942C52.0804 336.362 51.8844 336.974 51.8844 337.776V342.004H50.6244V337.664C50.6244 336.899 50.4331 336.316 50.0504 335.914C49.6771 335.504 49.1684 335.298 48.5244 335.298C47.8618 335.298 47.3344 335.513 46.9424 335.942C46.5504 336.362 46.3544 336.974 46.3544 337.776V342.004H45.0804V334.332H46.3544V335.438C46.6064 335.037 46.9424 334.729 47.3624 334.514C47.7918 334.3 48.2631 334.192 48.7764 334.192C49.4204 334.192 49.9898 334.337 50.4844 334.626C50.9791 334.916 51.3478 335.34 51.5904 335.9C51.8051 335.359 52.1598 334.939 52.6544 334.64C53.1491 334.342 53.6998 334.192 54.3064 334.192ZM62.8503 342.13C62.1316 342.13 61.4783 341.967 60.8903 341.64C60.3116 341.314 59.8543 340.852 59.5183 340.254C59.1916 339.648 59.0283 338.948 59.0283 338.154C59.0283 337.37 59.1963 336.68 59.5323 336.082C59.8776 335.476 60.3443 335.014 60.9323 334.696C61.5203 334.37 62.1783 334.206 62.9063 334.206C63.6343 334.206 64.2923 334.37 64.8803 334.696C65.4683 335.014 65.9303 335.471 66.2663 336.068C66.6116 336.666 66.7843 337.361 66.7843 338.154C66.7843 338.948 66.6069 339.648 66.2523 340.254C65.9069 340.852 65.4356 341.314 64.8383 341.64C64.2409 341.967 63.5783 342.13 62.8503 342.13ZM62.8503 341.01C63.3076 341.01 63.7369 340.903 64.1383 340.688C64.5396 340.474 64.8616 340.152 65.1043 339.722C65.3563 339.293 65.4823 338.77 65.4823 338.154C65.4823 337.538 65.3609 337.016 65.1183 336.586C64.8756 336.157 64.5583 335.84 64.1663 335.634C63.7743 335.42 63.3496 335.312 62.8923 335.312C62.4256 335.312 61.9963 335.42 61.6043 335.634C61.2216 335.84 60.9136 336.157 60.6803 336.586C60.4469 337.016 60.3303 337.538 60.3303 338.154C60.3303 338.78 60.4423 339.307 60.6663 339.736C60.8996 340.166 61.2076 340.488 61.5903 340.702C61.9729 340.908 62.3929 341.01 62.8503 341.01ZM70.0133 335.382V339.904C70.0133 340.278 70.0927 340.544 70.2513 340.702C70.41 340.852 70.6853 340.926 71.0773 340.926H72.0153V342.004H70.8673C70.158 342.004 69.626 341.841 69.2713 341.514C68.9167 341.188 68.7393 340.651 68.7393 339.904V335.382H67.7453V334.332H68.7393V332.4H70.0133V334.332H72.0153V335.382H70.0133ZM80.559 337.874C80.559 338.117 80.545 338.374 80.517 338.644H74.385C74.4316 339.4 74.6883 339.993 75.155 340.422C75.631 340.842 76.205 341.052 76.877 341.052C77.4276 341.052 77.885 340.926 78.249 340.674C78.6223 340.413 78.8836 340.068 79.033 339.638H80.405C80.1996 340.376 79.789 340.978 79.173 341.444C78.557 341.902 77.7916 342.13 76.877 342.13C76.149 342.13 75.4956 341.967 74.917 341.64C74.3476 341.314 73.8996 340.852 73.573 340.254C73.2463 339.648 73.083 338.948 73.083 338.154C73.083 337.361 73.2416 336.666 73.559 336.068C73.8763 335.471 74.3196 335.014 74.889 334.696C75.4676 334.37 76.1303 334.206 76.877 334.206C77.605 334.206 78.249 334.365 78.809 334.682C79.369 335 79.7983 335.438 80.097 335.998C80.405 336.549 80.559 337.174 80.559 337.874ZM79.243 337.608C79.243 337.123 79.1356 336.708 78.921 336.362C78.7063 336.008 78.4123 335.742 78.039 335.564C77.675 335.378 77.269 335.284 76.821 335.284C76.177 335.284 75.6263 335.49 75.169 335.9C74.721 336.311 74.4643 336.88 74.399 337.608H79.243ZM96.193 334.332L93.799 342.004H92.483L90.635 335.914L88.787 342.004H87.471L85.063 334.332H86.365L88.129 340.772L90.033 334.332H91.335L93.197 340.786L94.933 334.332H96.193ZM100.803 342.13C100.085 342.13 99.4314 341.967 98.8434 341.64C98.2647 341.314 97.8074 340.852 97.4714 340.254C97.1447 339.648 96.9814 338.948 96.9814 338.154C96.9814 337.37 97.1494 336.68 97.4854 336.082C97.8307 335.476 98.2974 335.014 98.8854 334.696C99.4734 334.37 100.131 334.206 100.859 334.206C101.587 334.206 102.245 334.37 102.833 334.696C103.421 335.014 103.883 335.471 104.219 336.068C104.565 336.666 104.737 337.361 104.737 338.154C104.737 338.948 104.56 339.648 104.205 340.254C103.86 340.852 103.389 341.314 102.791 341.64C102.194 341.967 101.531 342.13 100.803 342.13ZM100.803 341.01C101.261 341.01 101.69 340.903 102.091 340.688C102.493 340.474 102.815 340.152 103.057 339.722C103.309 339.293 103.435 338.77 103.435 338.154C103.435 337.538 103.314 337.016 103.071 336.586C102.829 336.157 102.511 335.84 102.119 335.634C101.727 335.42 101.303 335.312 100.845 335.312C100.379 335.312 99.9494 335.42 99.5574 335.634C99.1747 335.84 98.8667 336.157 98.6334 336.586C98.4001 337.016 98.2834 337.538 98.2834 338.154C98.2834 338.78 98.3954 339.307 98.6194 339.736C98.8527 340.166 99.1607 340.488 99.5434 340.702C99.9261 340.908 100.346 341.01 100.803 341.01ZM107.686 335.578C107.91 335.14 108.228 334.799 108.638 334.556C109.058 334.314 109.567 334.192 110.164 334.192V335.508H109.828C108.4 335.508 107.686 336.283 107.686 337.832V342.004H106.412V334.332H107.686V335.578ZM115.919 342.004L112.909 338.616V342.004H111.635V331.644H112.909V337.734L115.863 334.332H117.641L114.029 338.154L117.655 342.004H115.919ZM50.6139 358.13C49.8953 358.13 49.2419 357.967 48.6539 357.64C48.0753 357.314 47.6179 356.852 47.2819 356.254C46.9553 355.648 46.7919 354.948 46.7919 354.154C46.7919 353.37 46.9599 352.68 47.2959 352.082C47.6413 351.476 48.1079 351.014 48.6959 350.696C49.2839 350.37 49.9419 350.206 50.6699 350.206C51.3979 350.206 52.0559 350.37 52.6439 350.696C53.2319 351.014 53.6939 351.471 54.0299 352.068C54.3753 352.666 54.5479 353.361 54.5479 354.154C54.5479 354.948 54.3706 355.648 54.0159 356.254C53.6706 356.852 53.1993 357.314 52.6019 357.64C52.0046 357.967 51.3419 358.13 50.6139 358.13ZM50.6139 357.01C51.0713 357.01 51.5006 356.903 51.9019 356.688C52.3033 356.474 52.6253 356.152 52.8679 355.722C53.1199 355.293 53.2459 354.77 53.2459 354.154C53.2459 353.538 53.1246 353.016 52.8819 352.586C52.6393 352.157 52.3219 351.84 51.9299 351.634C51.5379 351.42 51.1133 351.312 50.6559 351.312C50.1893 351.312 49.7599 351.42 49.3679 351.634C48.9853 351.84 48.6773 352.157 48.4439 352.586C48.2106 353.016 48.0939 353.538 48.0939 354.154C48.0939 354.78 48.2059 355.307 48.4299 355.736C48.6633 356.166 48.9713 356.488 49.3539 356.702C49.7366 356.908 50.1566 357.01 50.6139 357.01ZM57.497 351.746C57.749 351.308 58.1224 350.944 58.617 350.654C59.121 350.356 59.7044 350.206 60.367 350.206C61.0484 350.206 61.6644 350.37 62.215 350.696C62.775 351.023 63.2137 351.485 63.531 352.082C63.8484 352.67 64.007 353.356 64.007 354.14C64.007 354.915 63.8484 355.606 63.531 356.212C63.2137 356.819 62.775 357.29 62.215 357.626C61.6644 357.962 61.0484 358.13 60.367 358.13C59.7137 358.13 59.135 357.986 58.631 357.696C58.1364 357.398 57.7584 357.029 57.497 356.59V361.644H56.223V350.332H57.497V351.746ZM62.705 354.14C62.705 353.562 62.5884 353.058 62.355 352.628C62.1217 352.199 61.8044 351.872 61.403 351.648C61.011 351.424 60.577 351.312 60.101 351.312C59.6344 351.312 59.2004 351.429 58.799 351.662C58.407 351.886 58.0897 352.218 57.847 352.656C57.6137 353.086 57.497 353.585 57.497 354.154C57.497 354.733 57.6137 355.242 57.847 355.68C58.0897 356.11 58.407 356.441 58.799 356.674C59.2004 356.898 59.6344 357.01 60.101 357.01C60.577 357.01 61.011 356.898 61.403 356.674C61.8044 356.441 62.1217 356.11 62.355 355.68C62.5884 355.242 62.705 354.728 62.705 354.14ZM67.238 351.382V355.904C67.238 356.278 67.3173 356.544 67.476 356.702C67.6346 356.852 67.91 356.926 68.302 356.926H69.24V358.004H68.092C67.3826 358.004 66.8506 357.841 66.496 357.514C66.1413 357.188 65.964 356.651 65.964 355.904V351.382H64.97V350.332H65.964V348.4H67.238V350.332H69.24V351.382H67.238ZM71.4416 349.086C71.1989 349.086 70.9936 349.002 70.8256 348.834C70.6576 348.666 70.5736 348.461 70.5736 348.218C70.5736 347.976 70.6576 347.77 70.8256 347.602C70.9936 347.434 71.1989 347.35 71.4416 347.35C71.6749 347.35 71.8709 347.434 72.0296 347.602C72.1976 347.77 72.2816 347.976 72.2816 348.218C72.2816 348.461 72.1976 348.666 72.0296 348.834C71.8709 349.002 71.6749 349.086 71.4416 349.086ZM72.0576 350.332V358.004H70.7836V350.332H72.0576ZM77.5749 358.13C76.8562 358.13 76.2029 357.967 75.6149 357.64C75.0362 357.314 74.5789 356.852 74.2429 356.254C73.9162 355.648 73.7529 354.948 73.7529 354.154C73.7529 353.37 73.9209 352.68 74.2569 352.082C74.6022 351.476 75.0689 351.014 75.6569 350.696C76.2449 350.37 76.9029 350.206 77.6309 350.206C78.3589 350.206 79.0169 350.37 79.6049 350.696C80.1929 351.014 80.6549 351.471 80.9909 352.068C81.3362 352.666 81.5089 353.361 81.5089 354.154C81.5089 354.948 81.3315 355.648 80.9769 356.254C80.6315 356.852 80.1602 357.314 79.5629 357.64C78.9655 357.967 78.3029 358.13 77.5749 358.13ZM77.5749 357.01C78.0322 357.01 78.4615 356.903 78.8629 356.688C79.2642 356.474 79.5862 356.152 79.8289 355.722C80.0809 355.293 80.2069 354.77 80.2069 354.154C80.2069 353.538 80.0855 353.016 79.8429 352.586C79.6002 352.157 79.2829 351.84 78.8909 351.634C78.4989 351.42 78.0742 351.312 77.6169 351.312C77.1502 351.312 76.7209 351.42 76.3289 351.634C75.9462 351.84 75.6382 352.157 75.4049 352.586C75.1715 353.016 75.0549 353.538 75.0549 354.154C75.0549 354.78 75.1669 355.307 75.3909 355.736C75.6242 356.166 75.9322 356.488 76.3149 356.702C76.6975 356.908 77.1175 357.01 77.5749 357.01ZM86.922 350.192C87.8553 350.192 88.6113 350.477 89.19 351.046C89.7686 351.606 90.058 352.418 90.058 353.482V358.004H88.798V353.664C88.798 352.899 88.6066 352.316 88.224 351.914C87.8413 351.504 87.3186 351.298 86.656 351.298C85.984 351.298 85.4473 351.508 85.046 351.928C84.654 352.348 84.458 352.96 84.458 353.762V358.004H83.184V350.332H84.458V351.424C84.71 351.032 85.0506 350.729 85.48 350.514C85.9186 350.3 86.3993 350.192 86.922 350.192ZM94.855 358.13C94.267 358.13 93.7397 358.032 93.273 357.836C92.8064 357.631 92.4377 357.351 92.167 356.996C91.8964 356.632 91.747 356.217 91.719 355.75H93.035C93.0724 356.133 93.2497 356.446 93.567 356.688C93.8937 356.931 94.3184 357.052 94.841 357.052C95.3264 357.052 95.709 356.945 95.989 356.73C96.269 356.516 96.409 356.245 96.409 355.918C96.409 355.582 96.2597 355.335 95.961 355.176C95.6624 355.008 95.2004 354.845 94.575 354.686C94.0057 354.537 93.539 354.388 93.175 354.238C92.8204 354.08 92.5124 353.851 92.251 353.552C91.999 353.244 91.873 352.843 91.873 352.348C91.873 351.956 91.9897 351.597 92.223 351.27C92.4564 350.944 92.7877 350.687 93.217 350.5C93.6464 350.304 94.1364 350.206 94.687 350.206C95.5364 350.206 96.2224 350.421 96.745 350.85C97.2677 351.28 97.5477 351.868 97.585 352.614H96.311C96.283 352.213 96.1197 351.891 95.821 351.648C95.5317 351.406 95.1397 351.284 94.645 351.284C94.1877 351.284 93.8237 351.382 93.553 351.578C93.2824 351.774 93.147 352.031 93.147 352.348C93.147 352.6 93.2264 352.81 93.385 352.978C93.553 353.137 93.7584 353.268 94.001 353.37C94.253 353.464 94.5984 353.571 95.037 353.692C95.5877 353.842 96.0357 353.991 96.381 354.14C96.7264 354.28 97.0204 354.495 97.263 354.784C97.515 355.074 97.6457 355.452 97.655 355.918C97.655 356.338 97.5384 356.716 97.305 357.052C97.0717 357.388 96.7404 357.654 96.311 357.85C95.891 358.037 95.4057 358.13 94.855 358.13Z" fill="#595959"/>
<path d="M62.9453 320.958H77.9453V309.065L70.4453 302.474L62.9453 309.065V320.958ZM79.1953 323.375H61.6953C61.3638 323.375 61.0458 323.248 60.8114 323.021C60.577 322.794 60.4453 322.487 60.4453 322.167V311.292H56.6953L69.6041 299.948C69.8342 299.745 70.1342 299.633 70.4453 299.633C70.7565 299.633 71.0564 299.745 71.2866 299.948L84.1953 311.292H80.4453V322.167C80.4453 322.487 80.3136 322.794 80.0792 323.021C79.8448 323.248 79.5268 323.375 79.1953 323.375ZM65.4453 310.083C67.766 310.083 69.9916 310.974 71.6325 312.561C73.2734 314.147 74.1953 316.298 74.1953 318.542H71.6953C71.6953 316.939 71.0368 315.403 69.8647 314.27C68.6926 313.137 67.1029 312.5 65.4453 312.5V310.083ZM65.4453 314.917C66.4399 314.917 67.3937 315.299 68.097 315.978C68.8002 316.658 69.1953 317.58 69.1953 318.542H65.4453V314.917Z" fill="#595959"/>
<circle cx="336.041" cy="76.9145" r="76.2837" fill="white"/>
<circle cx="336.041" cy="76.9145" r="75.7837" stroke="#2A5CAA" stroke-opacity="0.23"/>
<path d="M298.506 82.8012V88.9752C298.506 89.8432 298.716 90.4872 299.136 90.9072C299.565 91.3272 300.158 91.5372 300.914 91.5372C301.661 91.5372 302.244 91.3272 302.664 90.9072C303.093 90.4872 303.308 89.8432 303.308 88.9752V82.8012H304.582V88.9612C304.582 89.7732 304.419 90.4592 304.092 91.0192C303.765 91.5698 303.322 91.9805 302.762 92.2512C302.211 92.5218 301.591 92.6572 300.9 92.6572C300.209 92.6572 299.584 92.5218 299.024 92.2512C298.473 91.9805 298.035 91.5698 297.708 91.0192C297.391 90.4592 297.232 89.7732 297.232 88.9612V82.8012H298.506ZM309.801 92.6572C309.157 92.6572 308.579 92.5452 308.065 92.3212C307.561 92.0878 307.165 91.7705 306.875 91.3692C306.586 90.9585 306.437 90.4872 306.427 89.9552H307.785C307.832 90.4125 308.019 90.7998 308.345 91.1172C308.681 91.4252 309.167 91.5792 309.801 91.5792C310.408 91.5792 310.884 91.4298 311.229 91.1312C311.584 90.8232 311.761 90.4312 311.761 89.9552C311.761 89.5818 311.659 89.2785 311.453 89.0452C311.248 88.8118 310.991 88.6345 310.683 88.5132C310.375 88.3918 309.96 88.2612 309.437 88.1212C308.793 87.9532 308.275 87.7852 307.883 87.6172C307.501 87.4492 307.169 87.1878 306.889 86.8332C306.619 86.4692 306.483 85.9838 306.483 85.3772C306.483 84.8452 306.619 84.3738 306.889 83.9632C307.16 83.5525 307.538 83.2352 308.023 83.0112C308.518 82.7872 309.083 82.6752 309.717 82.6752C310.632 82.6752 311.379 82.9038 311.957 83.3612C312.545 83.8185 312.877 84.4252 312.951 85.1812H311.551C311.505 84.8078 311.309 84.4812 310.963 84.2012C310.618 83.9118 310.161 83.7672 309.591 83.7672C309.059 83.7672 308.625 83.9072 308.289 84.1872C307.953 84.4578 307.785 84.8405 307.785 85.3352C307.785 85.6898 307.883 85.9792 308.079 86.2032C308.285 86.4272 308.532 86.5998 308.821 86.7212C309.12 86.8332 309.535 86.9638 310.067 87.1132C310.711 87.2905 311.229 87.4678 311.621 87.6452C312.013 87.8132 312.349 88.0792 312.629 88.4432C312.909 88.7978 313.049 89.2832 313.049 89.8992C313.049 90.3752 312.923 90.8232 312.671 91.2432C312.419 91.6632 312.046 92.0038 311.551 92.2652C311.057 92.5265 310.473 92.6572 309.801 92.6572ZM317.962 82.8012C319.026 82.8012 319.946 83.0018 320.72 83.4032C321.504 83.7952 322.102 84.3598 322.512 85.0972C322.932 85.8345 323.142 86.7025 323.142 87.7012C323.142 88.6998 322.932 89.5678 322.512 90.3052C322.102 91.0332 321.504 91.5932 320.72 91.9852C319.946 92.3678 319.026 92.5592 317.962 92.5592H314.924V82.8012H317.962ZM317.962 91.5092C319.222 91.5092 320.184 91.1778 320.846 90.5152C321.509 89.8432 321.84 88.9052 321.84 87.7012C321.84 86.4878 321.504 85.5405 320.832 84.8592C320.17 84.1778 319.213 83.8372 317.962 83.8372H316.198V91.5092H317.962ZM329.829 86.3012C330.081 85.8625 330.454 85.4985 330.949 85.2092C331.453 84.9105 332.036 84.7612 332.699 84.7612C333.38 84.7612 333.996 84.9245 334.547 85.2512C335.107 85.5778 335.546 86.0398 335.863 86.6372C336.18 87.2252 336.339 87.9112 336.339 88.6952C336.339 89.4698 336.18 90.1605 335.863 90.7672C335.546 91.3738 335.107 91.8452 334.547 92.1812C333.996 92.5172 333.38 92.6852 332.699 92.6852C332.046 92.6852 331.467 92.5405 330.963 92.2512C330.468 91.9525 330.09 91.5838 329.829 91.1452V96.1992H328.555V84.8872H329.829V86.3012ZM335.037 88.6952C335.037 88.1165 334.92 87.6125 334.687 87.1832C334.454 86.7538 334.136 86.4272 333.735 86.2032C333.343 85.9792 332.909 85.8672 332.433 85.8672C331.966 85.8672 331.532 85.9838 331.131 86.2172C330.739 86.4412 330.422 86.7725 330.179 87.2112C329.946 87.6405 329.829 88.1398 329.829 88.7092C329.829 89.2878 329.946 89.7965 330.179 90.2352C330.422 90.6645 330.739 90.9958 331.131 91.2292C331.532 91.4532 331.966 91.5652 332.433 91.5652C332.909 91.5652 333.343 91.4532 333.735 91.2292C334.136 90.9958 334.454 90.6645 334.687 90.2352C334.92 89.7965 335.037 89.2832 335.037 88.6952ZM345.016 88.4292C345.016 88.6718 345.002 88.9285 344.974 89.1992H338.842C338.889 89.9552 339.145 90.5478 339.612 90.9772C340.088 91.3972 340.662 91.6072 341.334 91.6072C341.885 91.6072 342.342 91.4812 342.706 91.2292C343.079 90.9678 343.341 90.6225 343.49 90.1932H344.862C344.657 90.9305 344.246 91.5325 343.63 91.9992C343.014 92.4565 342.249 92.6852 341.334 92.6852C340.606 92.6852 339.953 92.5218 339.374 92.1952C338.805 91.8685 338.357 91.4065 338.03 90.8092C337.703 90.2025 337.54 89.5025 337.54 88.7092C337.54 87.9158 337.699 87.2205 338.016 86.6232C338.333 86.0258 338.777 85.5685 339.346 85.2512C339.925 84.9245 340.587 84.7612 341.334 84.7612C342.062 84.7612 342.706 84.9198 343.266 85.2372C343.826 85.5545 344.255 85.9932 344.554 86.5532C344.862 87.1038 345.016 87.7292 345.016 88.4292ZM343.7 88.1632C343.7 87.6778 343.593 87.2625 343.378 86.9172C343.163 86.5625 342.869 86.2965 342.496 86.1192C342.132 85.9325 341.726 85.8392 341.278 85.8392C340.634 85.8392 340.083 86.0445 339.626 86.4552C339.178 86.8658 338.921 87.4352 338.856 88.1632H343.7ZM349.862 84.7612C350.524 84.7612 351.103 84.9058 351.598 85.1952C352.102 85.4845 352.475 85.8485 352.718 86.2872V84.8872H354.006V92.7272C354.006 93.4272 353.856 94.0478 353.558 94.5892C353.259 95.1398 352.83 95.5692 352.27 95.8772C351.719 96.1852 351.075 96.3392 350.338 96.3392C349.33 96.3392 348.49 96.1012 347.818 95.6252C347.146 95.1492 346.749 94.5005 346.628 93.6792H347.888C348.028 94.1458 348.317 94.5192 348.756 94.7992C349.194 95.0885 349.722 95.2332 350.338 95.2332C351.038 95.2332 351.607 95.0138 352.046 94.5752C352.494 94.1365 352.718 93.5205 352.718 92.7272V91.1172C352.466 91.5652 352.092 91.9385 351.598 92.2372C351.103 92.5358 350.524 92.6852 349.862 92.6852C349.18 92.6852 348.56 92.5172 348 92.1812C347.449 91.8452 347.015 91.3738 346.698 90.7672C346.38 90.1605 346.222 89.4698 346.222 88.6952C346.222 87.9112 346.38 87.2252 346.698 86.6372C347.015 86.0398 347.449 85.5778 348 85.2512C348.56 84.9245 349.18 84.7612 349.862 84.7612ZM352.718 88.7092C352.718 88.1305 352.601 87.6265 352.368 87.1972C352.134 86.7678 351.817 86.4412 351.416 86.2172C351.024 85.9838 350.59 85.8672 350.114 85.8672C349.638 85.8672 349.204 85.9792 348.812 86.2032C348.42 86.4272 348.107 86.7538 347.874 87.1832C347.64 87.6125 347.524 88.1165 347.524 88.6952C347.524 89.2832 347.64 89.7965 347.874 90.2352C348.107 90.6645 348.42 90.9958 348.812 91.2292C349.204 91.4532 349.638 91.5652 350.114 91.5652C350.59 91.5652 351.024 91.4532 351.416 91.2292C351.817 90.9958 352.134 90.6645 352.368 90.2352C352.601 89.7965 352.718 89.2878 352.718 88.7092ZM359.323 84.7612C359.985 84.7612 360.564 84.9058 361.059 85.1952C361.563 85.4845 361.936 85.8485 362.179 86.2872V84.8872H363.467V92.7272C363.467 93.4272 363.317 94.0478 363.019 94.5892C362.72 95.1398 362.291 95.5692 361.731 95.8772C361.18 96.1852 360.536 96.3392 359.799 96.3392C358.791 96.3392 357.951 96.1012 357.279 95.6252C356.607 95.1492 356.21 94.5005 356.089 93.6792H357.349C357.489 94.1458 357.778 94.5192 358.217 94.7992C358.655 95.0885 359.183 95.2332 359.799 95.2332C360.499 95.2332 361.068 95.0138 361.507 94.5752C361.955 94.1365 362.179 93.5205 362.179 92.7272V91.1172C361.927 91.5652 361.553 91.9385 361.059 92.2372C360.564 92.5358 359.985 92.6852 359.323 92.6852C358.641 92.6852 358.021 92.5172 357.461 92.1812C356.91 91.8452 356.476 91.3738 356.159 90.7672C355.841 90.1605 355.683 89.4698 355.683 88.6952C355.683 87.9112 355.841 87.2252 356.159 86.6372C356.476 86.0398 356.91 85.5778 357.461 85.2512C358.021 84.9245 358.641 84.7612 359.323 84.7612ZM362.179 88.7092C362.179 88.1305 362.062 87.6265 361.829 87.1972C361.595 86.7678 361.278 86.4412 360.877 86.2172C360.485 85.9838 360.051 85.8672 359.575 85.8672C359.099 85.8672 358.665 85.9792 358.273 86.2032C357.881 86.4272 357.568 86.7538 357.335 87.1832C357.101 87.6125 356.985 88.1165 356.985 88.6952C356.985 89.2832 357.101 89.7965 357.335 90.2352C357.568 90.6645 357.881 90.9958 358.273 91.2292C358.665 91.4532 359.099 91.5652 359.575 91.5652C360.051 91.5652 360.485 91.4532 360.877 91.2292C361.278 90.9958 361.595 90.6645 361.829 90.2352C362.062 89.7965 362.179 89.2878 362.179 88.7092ZM372.62 88.4292C372.62 88.6718 372.606 88.9285 372.578 89.1992H366.446C366.492 89.9552 366.749 90.5478 367.216 90.9772C367.692 91.3972 368.266 91.6072 368.938 91.6072C369.488 91.6072 369.946 91.4812 370.31 91.2292C370.683 90.9678 370.944 90.6225 371.094 90.1932H372.466C372.26 90.9305 371.85 91.5325 371.234 91.9992C370.618 92.4565 369.852 92.6852 368.938 92.6852C368.21 92.6852 367.556 92.5218 366.978 92.1952C366.408 91.8685 365.96 91.4065 365.634 90.8092C365.307 90.2025 365.144 89.5025 365.144 88.7092C365.144 87.9158 365.302 87.2205 365.62 86.6232C365.937 86.0258 366.38 85.5685 366.95 85.2512C367.528 84.9245 368.191 84.7612 368.938 84.7612C369.666 84.7612 370.31 84.9198 370.87 85.2372C371.43 85.5545 371.859 85.9932 372.158 86.5532C372.466 87.1038 372.62 87.7292 372.62 88.4292ZM371.304 88.1632C371.304 87.6778 371.196 87.2625 370.982 86.9172C370.767 86.5625 370.473 86.2965 370.1 86.1192C369.736 85.9325 369.33 85.8392 368.882 85.8392C368.238 85.8392 367.687 86.0445 367.23 86.4552C366.782 86.8658 366.525 87.4352 366.46 88.1632H371.304ZM373.825 88.6952C373.825 87.9112 373.984 87.2252 374.301 86.6372C374.618 86.0398 375.052 85.5778 375.603 85.2512C376.163 84.9245 376.788 84.7612 377.479 84.7612C378.076 84.7612 378.632 84.9012 379.145 85.1812C379.658 85.4518 380.05 85.8112 380.321 86.2592V82.1992H381.609V92.5592H380.321V91.1172C380.069 91.5745 379.696 91.9525 379.201 92.2512C378.706 92.5405 378.128 92.6852 377.465 92.6852C376.784 92.6852 376.163 92.5172 375.603 92.1812C375.052 91.8452 374.618 91.3738 374.301 90.7672C373.984 90.1605 373.825 89.4698 373.825 88.6952ZM380.321 88.7092C380.321 88.1305 380.204 87.6265 379.971 87.1972C379.738 86.7678 379.42 86.4412 379.019 86.2172C378.627 85.9838 378.193 85.8672 377.717 85.8672C377.241 85.8672 376.807 85.9792 376.415 86.2032C376.023 86.4272 375.71 86.7538 375.477 87.1832C375.244 87.6125 375.127 88.1165 375.127 88.6952C375.127 89.2832 375.244 89.7965 375.477 90.2352C375.71 90.6645 376.023 90.9958 376.415 91.2292C376.807 91.4532 377.241 91.5652 377.717 91.5652C378.193 91.5652 378.627 91.4532 379.019 91.2292C379.42 90.9958 379.738 90.6645 379.971 90.2352C380.204 89.7965 380.321 89.2878 380.321 88.7092ZM316.054 108.685C315.466 108.685 314.939 108.587 314.472 108.391C314.006 108.186 313.637 107.906 313.366 107.551C313.096 107.187 312.946 106.772 312.918 106.305H314.234C314.272 106.688 314.449 107.001 314.766 107.243C315.093 107.486 315.518 107.607 316.04 107.607C316.526 107.607 316.908 107.5 317.188 107.285C317.468 107.071 317.608 106.8 317.608 106.473C317.608 106.137 317.459 105.89 317.16 105.731C316.862 105.563 316.4 105.4 315.774 105.241C315.205 105.092 314.738 104.943 314.374 104.793C314.02 104.635 313.712 104.406 313.45 104.107C313.198 103.799 313.072 103.398 313.072 102.903C313.072 102.511 313.189 102.152 313.422 101.825C313.656 101.499 313.987 101.242 314.416 101.055C314.846 100.859 315.336 100.761 315.886 100.761C316.736 100.761 317.422 100.976 317.944 101.405C318.467 101.835 318.747 102.423 318.784 103.169H317.51C317.482 102.768 317.319 102.446 317.02 102.203C316.731 101.961 316.339 101.839 315.844 101.839C315.387 101.839 315.023 101.937 314.752 102.133C314.482 102.329 314.346 102.586 314.346 102.903C314.346 103.155 314.426 103.365 314.584 103.533C314.752 103.692 314.958 103.823 315.2 103.925C315.452 104.019 315.798 104.126 316.236 104.247C316.787 104.397 317.235 104.546 317.58 104.695C317.926 104.835 318.22 105.05 318.462 105.339C318.714 105.629 318.845 106.007 318.854 106.473C318.854 106.893 318.738 107.271 318.504 107.607C318.271 107.943 317.94 108.209 317.51 108.405C317.09 108.592 316.605 108.685 316.054 108.685ZM320.177 104.695C320.177 103.911 320.335 103.225 320.653 102.637C320.97 102.04 321.404 101.578 321.955 101.251C322.515 100.925 323.135 100.761 323.817 100.761C324.489 100.761 325.072 100.906 325.567 101.195C326.061 101.485 326.43 101.849 326.673 102.287V100.887H327.961V108.559H326.673V107.131C326.421 107.579 326.043 107.953 325.539 108.251C325.044 108.541 324.465 108.685 323.803 108.685C323.121 108.685 322.505 108.517 321.955 108.181C321.404 107.845 320.97 107.374 320.653 106.767C320.335 106.161 320.177 105.47 320.177 104.695ZM326.673 104.709C326.673 104.131 326.556 103.627 326.323 103.197C326.089 102.768 325.772 102.441 325.371 102.217C324.979 101.984 324.545 101.867 324.069 101.867C323.593 101.867 323.159 101.979 322.767 102.203C322.375 102.427 322.062 102.754 321.829 103.183C321.595 103.613 321.479 104.117 321.479 104.695C321.479 105.283 321.595 105.797 321.829 106.235C322.062 106.665 322.375 106.996 322.767 107.229C323.159 107.453 323.593 107.565 324.069 107.565C324.545 107.565 324.979 107.453 325.371 107.229C325.772 106.996 326.089 106.665 326.323 106.235C326.556 105.797 326.673 105.288 326.673 104.709ZM331.388 98.1992V108.559H330.114V98.1992H331.388ZM333.083 104.695C333.083 103.911 333.242 103.225 333.559 102.637C333.876 102.04 334.31 101.578 334.861 101.251C335.421 100.925 336.042 100.761 336.723 100.761C337.395 100.761 337.978 100.906 338.473 101.195C338.968 101.485 339.336 101.849 339.579 102.287V100.887H340.867V108.559H339.579V107.131C339.327 107.579 338.949 107.953 338.445 108.251C337.95 108.541 337.372 108.685 336.709 108.685C336.028 108.685 335.412 108.517 334.861 108.181C334.31 107.845 333.876 107.374 333.559 106.767C333.242 106.161 333.083 105.47 333.083 104.695ZM339.579 104.709C339.579 104.131 339.462 103.627 339.229 103.197C338.996 102.768 338.678 102.441 338.277 102.217C337.885 101.984 337.451 101.867 336.975 101.867C336.499 101.867 336.065 101.979 335.673 102.203C335.281 102.427 334.968 102.754 334.735 103.183C334.502 103.613 334.385 104.117 334.385 104.695C334.385 105.283 334.502 105.797 334.735 106.235C334.968 106.665 335.281 106.996 335.673 107.229C336.065 107.453 336.499 107.565 336.975 107.565C337.451 107.565 337.885 107.453 338.277 107.229C338.678 106.996 338.996 106.665 339.229 106.235C339.462 105.797 339.579 105.288 339.579 104.709ZM344.294 102.133C344.518 101.695 344.835 101.354 345.246 101.111C345.666 100.869 346.175 100.747 346.772 100.747V102.063H346.436C345.008 102.063 344.294 102.838 344.294 104.387V108.559H343.02V100.887H344.294V102.133ZM348.901 99.6412C348.658 99.6412 348.453 99.5572 348.285 99.3892C348.117 99.2212 348.033 99.0158 348.033 98.7732C348.033 98.5305 348.117 98.3252 348.285 98.1572C348.453 97.9892 348.658 97.9052 348.901 97.9052C349.134 97.9052 349.33 97.9892 349.489 98.1572C349.657 98.3252 349.741 98.5305 349.741 98.7732C349.741 99.0158 349.657 99.2212 349.489 99.3892C349.33 99.5572 349.134 99.6412 348.901 99.6412ZM349.517 100.887V108.559H348.243V100.887H349.517ZM358.688 104.429C358.688 104.672 358.674 104.929 358.646 105.199H352.514C352.561 105.955 352.817 106.548 353.284 106.977C353.76 107.397 354.334 107.607 355.006 107.607C355.557 107.607 356.014 107.481 356.378 107.229C356.751 106.968 357.013 106.623 357.162 106.193H358.534C358.329 106.931 357.918 107.533 357.302 107.999C356.686 108.457 355.921 108.685 355.006 108.685C354.278 108.685 353.625 108.522 353.046 108.195C352.477 107.869 352.029 107.407 351.702 106.809C351.375 106.203 351.212 105.503 351.212 104.709C351.212 103.916 351.371 103.221 351.688 102.623C352.005 102.026 352.449 101.569 353.018 101.251C353.597 100.925 354.259 100.761 355.006 100.761C355.734 100.761 356.378 100.92 356.938 101.237C357.498 101.555 357.927 101.993 358.226 102.553C358.534 103.104 358.688 103.729 358.688 104.429ZM357.372 104.163C357.372 103.678 357.265 103.263 357.05 102.917C356.835 102.563 356.541 102.297 356.168 102.119C355.804 101.933 355.398 101.839 354.95 101.839C354.306 101.839 353.755 102.045 353.298 102.455C352.85 102.866 352.593 103.435 352.528 104.163H357.372ZM363.086 108.685C362.498 108.685 361.97 108.587 361.504 108.391C361.037 108.186 360.668 107.906 360.398 107.551C360.127 107.187 359.978 106.772 359.95 106.305H361.266C361.303 106.688 361.48 107.001 361.798 107.243C362.124 107.486 362.549 107.607 363.072 107.607C363.557 107.607 363.94 107.5 364.22 107.285C364.5 107.071 364.64 106.8 364.64 106.473C364.64 106.137 364.49 105.89 364.192 105.731C363.893 105.563 363.431 105.4 362.806 105.241C362.236 105.092 361.77 104.943 361.406 104.793C361.051 104.635 360.743 104.406 360.482 104.107C360.23 103.799 360.104 103.398 360.104 102.903C360.104 102.511 360.22 102.152 360.454 101.825C360.687 101.499 361.018 101.242 361.448 101.055C361.877 100.859 362.367 100.761 362.918 100.761C363.767 100.761 364.453 100.976 364.976 101.405C365.498 101.835 365.778 102.423 365.816 103.169H364.542C364.514 102.768 364.35 102.446 364.052 102.203C363.762 101.961 363.37 101.839 362.876 101.839C362.418 101.839 362.054 101.937 361.784 102.133C361.513 102.329 361.378 102.586 361.378 102.903C361.378 103.155 361.457 103.365 361.616 103.533C361.784 103.692 361.989 103.823 362.232 103.925C362.484 104.019 362.829 104.126 363.268 104.247C363.818 104.397 364.266 104.546 364.612 104.695C364.957 104.835 365.251 105.05 365.494 105.339C365.746 105.629 365.876 106.007 365.886 106.473C365.886 106.893 365.769 107.271 365.536 107.607C365.302 107.943 364.971 108.209 364.542 108.405C364.122 108.592 363.636 108.685 363.086 108.685Z" fill="#595959"/>
<path d="M325.5 59.5834C325.851 63.23 329.093 65.8178 334.029 66.1525V68.8125H336.506V66.1525C341.897 65.7609 345.241 63.0069 345.241 58.9337C345.241 55.4556 342.992 53.4431 338.22 52.31L336.506 51.9009V43.5841C339.17 43.8247 340.968 45.1459 341.422 47.1191H344.913C344.519 43.6191 341.256 41.1078 336.506 40.83V38.1875H334.029V40.8847C329.423 41.3878 326.262 44.1047 326.262 47.7884C326.262 50.9691 328.557 53.22 332.582 54.1694L334.031 54.5237V63.3416C331.302 62.9697 329.423 61.5916 328.97 59.5834H325.5ZM333.554 51.1922C331.076 50.6169 329.754 49.3875 329.754 47.6572C329.754 45.5922 331.426 44.0675 334.029 43.6584V51.3037L333.554 51.1944V51.1922ZM337.332 55.2872C340.389 55.9937 341.731 57.1662 341.731 59.1569C341.731 61.5566 339.769 63.1556 336.506 63.3984V55.0969L337.332 55.285V55.2872Z" fill="#595959"/>
<path d="M325.5 59.5834C325.851 63.23 329.093 65.8178 334.029 66.1525V68.8125H336.506V66.1525C341.897 65.7609 345.241 63.0069 345.241 58.9337C345.241 55.4556 342.992 53.4431 338.22 52.31L336.506 51.9009V43.5841C339.17 43.8247 340.968 45.1459 341.422 47.1191H344.913C344.519 43.6191 341.256 41.1078 336.506 40.83V38.1875H334.029V40.8847C329.423 41.3878 326.262 44.1047 326.262 47.7884C326.262 50.9691 328.557 53.22 332.582 54.1694L334.031 54.5237V63.3416C331.302 62.9697 329.423 61.5916 328.97 59.5834H325.5ZM333.554 51.1922C331.076 50.6169 329.754 49.3875 329.754 47.6572C329.754 45.5922 331.426 44.0675 334.029 43.6584V51.3037L333.554 51.1944V51.1922ZM337.332 55.2872C340.389 55.9937 341.731 57.1662 341.731 59.1569C341.731 61.5566 339.769 63.1556 336.506 63.3984V55.0969L337.332 55.285V55.2872Z" stroke="black"/>
<defs>
<clipPath id="clip0_547_37">
<rect width="28" height="28" fill="white" transform="translate(417.587 219)"/>
</clipPath>
<clipPath id="clip1_547_37">
<rect width="24" height="24" fill="white" transform="translate(220.893 234.436)"/>
</clipPath>
</defs>
</svg>
