<svg xmlns="http://www.w3.org/2000/svg" xmlns:xlink="http://www.w3.org/1999/xlink" viewBox="0 0 606.35 181.36"><defs><linearGradient id="a" x1="342.58" y1="202.67" x2="342.58" y2="69.24" gradientUnits="userSpaceOnUse"><stop offset="0" stop-color="#243665"/><stop offset="1" stop-color="#2a5caa"/></linearGradient><linearGradient id="b" x1="303.18" y1="202.77" x2="303.18" y2="68.12" xlink:href="#a"/></defs><path d="M317.36,181.36,396,11.45a202.45,202.45,0,0,0-56.53,29.32L289.2,146.24C296.85,156.87,317.36,181.36,317.36,181.36Z" fill="url(#a)"/><path d="M293.44,60S269.17,42.74,247,35c0,0-.68,90.05,70.34,146.36C317.36,181.36,292.91,115,293.44,60Z" fill="#f2662f"/><path d="M5.66,5.15Q11.32,0,20.61,0t15,5.15a16.88,16.88,0,0,1,5.66,13A16.66,16.66,0,0,1,35.56,31q-5.66,5.15-15,5.15T5.66,31A16.63,16.63,0,0,1,0,18.18,16.85,16.85,0,0,1,5.66,5.15ZM37.78,49.91V162.65H3.23V49.91ZM164,61.63q11.41,12.93,11.42,35.56v65.46H140.83V101.23q0-11.31-6-17.68T119,77.18q-10.51,0-16.67,6.67t-6.17,19v59.81H61.62V49.91H96.17V70.52a37.24,37.24,0,0,1,14.45-16q9.6-5.85,22.53-5.86Q152.55,48.69,164,61.63ZM200.63,5.15Q206.29,0,215.59,0t14.95,5.15a16.88,16.88,0,0,1,5.66,13A16.66,16.66,0,0,1,230.54,31q-5.65,5.15-14.95,5.15t-15-5.15A16.65,16.65,0,0,1,195,18.18,16.87,16.87,0,0,1,200.63,5.15Zm32.13,44.76V162.65H198.21V49.91ZM467,55.46a51.11,51.11,0,0,1,20.81,20.11q7.57,13.14,7.58,30.71T487.85,137A51.11,51.11,0,0,1,467,157.1a68.28,68.28,0,0,1-60.11,0A51,51,0,0,1,386,137q-7.58-13.12-7.57-30.71T386,75.57a51,51,0,0,1,20.92-20.11,68.28,68.28,0,0,1,60.11,0ZM420.36,85.57q-6.76,7.17-6.77,20.71t6.77,20.61A22.14,22.14,0,0,0,437,134a21.82,21.82,0,0,0,16.57-7.07q6.67-7.06,6.67-20.61T453.6,85.57A21.7,21.7,0,0,0,437,78.4,22,22,0,0,0,420.36,85.57ZM588.67,59.2q12.83,10.71,16.06,28.29H572.41A18,18,0,0,0,566,76.68a19.3,19.3,0,0,0-12.42-3.94c-3.91,0-6.87.84-8.9,2.52a8.84,8.84,0,0,0-3,7.18q0,5.25,5.56,7.88t17.48,5.25a174.71,174.71,0,0,1,21.21,6.16,34.94,34.94,0,0,1,14.35,10.21q6.06,7.07,6.06,19a29.16,29.16,0,0,1-5.25,17.18q-5.26,7.47-15.16,11.71t-23.43,4.25q-22.85,0-36.58-10.11t-16.77-28.89H542.5a15,15,0,0,0,6.16,11.11Q554,140,562.51,140c3.9,0,6.87-.91,8.89-2.72a9.2,9.2,0,0,0,3-7.18q0-5.85-5.56-8.38t-18.08-5.36a142.58,142.58,0,0,1-20.61-5.66,34,34,0,0,1-13.94-9.79q-5.86-6.78-5.86-18.49,0-15.16,11.51-24.55t32.53-9.4Q575.84,48.49,588.67,59.2Z" fill="url(#b)"/></svg>