<svg width="36" height="25" viewBox="0 0 36 25" fill="none" xmlns="http://www.w3.org/2000/svg">
<path d="M20.4326 15.38C20.4326 12.78 20.8326 10.5467 21.6326 8.68C22.4326 6.74667 23.466 5.18 24.7326 3.98C25.9993 2.71334 27.4326 1.81334 29.0326 1.28C30.6993 0.680001 32.3326 0.380001 33.9326 0.380001V3.88C32.1993 3.88 30.566 4.48 29.0326 5.68C27.566 6.81334 26.6993 8.38 26.4326 10.38C26.6326 10.3133 26.866 10.2467 27.1326 10.18C27.3326 10.1133 27.566 10.0467 27.8326 9.98C28.166 9.91334 28.5326 9.88 28.9326 9.88C30.9326 9.88 32.5993 10.6467 33.9326 12.18C35.266 13.6467 35.9326 15.38 35.9326 17.38C35.9326 19.38 35.2326 21.1467 33.8326 22.68C32.4993 24.1467 30.6993 24.88 28.4326 24.88C25.8993 24.88 23.9326 23.9467 22.5326 22.08C21.1326 20.1467 20.4326 17.9133 20.4326 15.38ZM0.432617 15.38C0.432617 12.78 0.832617 10.5467 1.63262 8.68C2.43262 6.74667 3.46595 5.18 4.73262 3.98C5.99928 2.71334 7.43262 1.81334 9.03262 1.28C10.6993 0.680001 12.3326 0.380001 13.9326 0.380001V3.88C12.1993 3.88 10.566 4.48 9.03262 5.68C7.56595 6.81334 6.69928 8.38 6.43262 10.38C6.63262 10.3133 6.86595 10.2467 7.13262 10.18C7.33262 10.1133 7.56595 10.0467 7.83262 9.98C8.16595 9.91334 8.53262 9.88 8.93262 9.88C10.9326 9.88 12.5993 10.6467 13.9326 12.18C15.266 13.6467 15.9326 15.38 15.9326 17.38C15.9326 19.38 15.2326 21.1467 13.8326 22.68C12.4993 24.1467 10.6993 24.88 8.43262 24.88C5.89928 24.88 3.93262 23.9467 2.53262 22.08C1.13262 20.1467 0.432617 17.9133 0.432617 15.38Z" fill="white" fill-opacity="0.1"/>
</svg>
