<svg width="37" height="25" viewBox="0 0 37 25" fill="none" xmlns="http://www.w3.org/2000/svg">
<path d="M20.6973 15.38C20.6973 12.78 21.0973 10.5467 21.8973 8.68C22.6973 6.74667 23.7306 5.18 24.9973 3.98C26.2639 2.71334 27.6973 1.81334 29.2973 1.28C30.9639 0.680001 32.5973 0.380001 34.1973 0.380001V3.88C32.4639 3.88 30.8306 4.48 29.2973 5.68C27.8306 6.81334 26.9639 8.38 26.6973 10.38C26.8973 10.3133 27.1306 10.2467 27.3973 10.18C27.5973 10.1133 27.8306 10.0467 28.0973 9.98C28.4306 9.91334 28.7973 9.88 29.1973 9.88C31.1973 9.88 32.8639 10.6467 34.1973 12.18C35.5306 13.6467 36.1973 15.38 36.1973 17.38C36.1973 19.38 35.4973 21.1467 34.0973 22.68C32.7639 24.1467 30.9639 24.88 28.6973 24.88C26.1639 24.88 24.1973 23.9467 22.7973 22.08C21.3973 20.1467 20.6973 17.9133 20.6973 15.38ZM0.697266 15.38C0.697266 12.78 1.09727 10.5467 1.89727 8.68C2.69727 6.74667 3.7306 5.18 4.99727 3.98C6.26393 2.71334 7.69727 1.81334 9.29727 1.28C10.9639 0.680001 12.5973 0.380001 14.1973 0.380001V3.88C12.4639 3.88 10.8306 4.48 9.29727 5.68C7.8306 6.81334 6.96393 8.38 6.69727 10.38C6.89727 10.3133 7.1306 10.2467 7.39727 10.18C7.59727 10.1133 7.8306 10.0467 8.09727 9.98C8.4306 9.91334 8.79727 9.88 9.19727 9.88C11.1973 9.88 12.8639 10.6467 14.1973 12.18C15.5306 13.6467 16.1973 15.38 16.1973 17.38C16.1973 19.38 15.4973 21.1467 14.0973 22.68C12.7639 24.1467 10.9639 24.88 8.69727 24.88C6.16393 24.88 4.19727 23.9467 2.79727 22.08C1.39727 20.1467 0.697266 17.9133 0.697266 15.38Z" fill="#F2652E" fill-opacity="0.1"/>
</svg>
