<svg width="17" height="17" viewBox="0 0 17 17" fill="none" xmlns="http://www.w3.org/2000/svg">
<g clip-path="url(#clip0_133_684)">
<path d="M3.93538 5.63463V16.436H0.482576V5.63463H3.93538ZM4.1549 2.29996C4.15554 2.3193 4.15618 2.34196 4.15618 2.3653C4.15618 2.86463 3.95266 3.31396 3.62754 3.62863L3.62626 3.6293C3.27746 3.9613 2.8109 4.16463 2.29826 4.16463C2.2669 4.16463 2.2349 4.16396 2.20354 4.16263H2.20802H2.1869C2.16066 4.16396 2.12994 4.16463 2.09922 4.16463C1.59746 4.16463 1.14178 3.96063 0.803216 3.62863L0.803856 3.6293C0.481296 3.30396 0.281616 2.8493 0.281616 2.34596C0.281616 2.32996 0.281616 2.31396 0.282256 2.2973V2.29996C0.281616 2.28596 0.281616 2.26996 0.281616 2.25396C0.281616 1.74596 0.488976 1.28863 0.819856 0.967965L0.821136 0.967298C1.1693 0.637298 1.63458 0.434631 2.14466 0.434631C2.1741 0.434631 2.2029 0.435298 2.23234 0.436631H2.2285C2.25602 0.435298 2.28738 0.434631 2.32002 0.434631C2.82242 0.434631 3.28002 0.636631 3.62178 0.966631L3.6205 0.965298C3.9501 1.29663 4.1549 1.76063 4.1549 2.27463V2.30263V2.3013V2.29996ZM16.3546 10.2466V16.436H12.9127V10.6593C12.9159 10.6066 12.9171 10.5453 12.9171 10.484C12.9171 9.88663 12.7578 9.32863 12.4807 8.85263L12.4883 8.86663C12.2151 8.4693 11.7735 8.21396 11.2749 8.21396C11.2365 8.21396 11.1981 8.2153 11.1597 8.21863H11.1648C11.1475 8.21796 11.1277 8.2173 11.1079 8.2173C10.7111 8.2173 10.3463 8.3593 10.0576 8.5973L10.0615 8.59463C9.77154 8.8393 9.54434 9.15196 9.40098 9.5113L9.39586 9.52663C9.32162 9.7633 9.27938 10.0353 9.27938 10.318C9.27938 10.35 9.28002 10.382 9.2813 10.414V10.4093V16.4373H5.83938C5.85346 13.5382 5.8605 11.1875 5.8605 9.3853C5.8605 7.58308 5.85708 6.50774 5.85026 6.1593L5.84002 5.63596H9.28194V7.2053H9.26082C9.39778 6.9753 9.53922 6.77596 9.69474 6.5893L9.68962 6.5953C9.86946 6.3893 10.0627 6.2033 10.2707 6.03663L10.281 6.02863C10.5395 5.8213 10.8429 5.65863 11.1719 5.5593L11.1911 5.55463C11.5354 5.4473 11.9315 5.3853 12.3411 5.3853H12.3917H12.3891C12.4346 5.3833 12.4877 5.38196 12.5408 5.38196C13.6167 5.38196 14.5856 5.85796 15.2647 6.6193L15.2666 6.62196C15.9928 7.44685 16.3559 8.65485 16.3559 10.246L16.3546 10.2466Z" fill="#2B4C88"/>
</g>
<defs>
<clipPath id="clip0_133_684">
<rect width="16" height="16" fill="white" transform="translate(0.283813 0.436035)"/>
</clipPath>
</defs>
</svg>
