<svg width="14" height="14" viewBox="0 0 14 14" fill="none" xmlns="http://www.w3.org/2000/svg">
<g clip-path="url(#clip0_529_222)">
<path d="M6.86652 1.0564C5.75144 1.05808 4.68251 1.50179 3.89403 2.29027C3.10555 3.07875 2.66184 4.14768 2.66016 5.26276C2.72511 6.04361 2.94124 6.80439 3.29652 7.50276C3.68614 8.37367 4.1216 9.22335 4.60107 10.0482C5.54925 11.6773 6.51016 13.0455 6.51016 13.0455L6.88561 13.5991L7.26743 13.0455C7.26743 13.0455 8.22197 11.6773 9.17652 10.0482C9.6453 9.22274 10.0701 8.37307 10.4492 7.50276C10.807 6.80536 11.0233 6.04408 11.0856 5.26276C11.0822 4.14599 10.6362 3.07612 9.84538 2.28764C9.05451 1.49915 7.98329 1.05639 6.86652 1.0564ZM6.86652 1.99185C7.29683 1.99017 7.72323 2.07358 8.12119 2.23729C8.51915 2.401 8.88082 2.64176 9.18539 2.94575C9.48997 3.24973 9.73144 3.61093 9.89591 4.00857C10.0604 4.40621 10.1446 4.83245 10.1438 5.26276C10.0702 5.90835 9.88729 6.53672 9.60288 7.12094C9.22245 7.95137 8.79759 8.76073 8.33016 9.54549C7.59197 10.8182 7.14016 11.4864 6.86652 11.8873C6.59925 11.4864 6.14107 10.8182 5.40925 9.54549C4.93937 8.76209 4.51444 7.9526 4.13652 7.12094C3.84852 6.53811 3.66542 5.90911 3.59561 5.26276C3.59477 4.83298 3.6788 4.40727 3.84289 4.01005C4.00697 3.61282 4.24787 3.25191 4.55177 2.94801C4.85567 2.64411 5.21658 2.40321 5.61381 2.23913C6.01103 2.07504 6.43674 1.99101 6.86652 1.99185ZM6.86652 4.32731C6.6815 4.32731 6.50064 4.38217 6.34681 4.48496C6.19297 4.58775 6.07308 4.73384 6.00227 4.90478C5.93147 5.07571 5.91295 5.2638 5.94904 5.44526C5.98513 5.62672 6.07423 5.7934 6.20505 5.92423C6.33588 6.05505 6.50256 6.14415 6.68402 6.18024C6.86548 6.21634 7.05357 6.19781 7.2245 6.12701C7.39543 6.05621 7.54153 5.93631 7.64432 5.78247C7.74711 5.62864 7.80197 5.44778 7.80197 5.26276C7.80197 5.01466 7.70342 4.77673 7.52799 4.60129C7.35255 4.42586 7.11462 4.32731 6.86652 4.32731Z" fill="#595959"/>
</g>
<defs>
<clipPath id="clip0_529_222">
<rect width="14" height="14" fill="white"/>
</clipPath>
</defs>
</svg>
