<svg xmlns="http://www.w3.org/2000/svg" viewBox="0 0 22 22"><rect width="22" height="22" fill="none"/><path d="M10.79,1.66A6.62,6.62,0,0,0,4.18,8.27a9.5,9.5,0,0,0,1,3.52,42.48,42.48,0,0,0,2.05,4c1.49,2.56,3,4.71,3,4.71l.59.87.6-.87s1.5-2.15,3-4.71a42.35,42.35,0,0,0,2-4,9.34,9.34,0,0,0,1-3.52A6.63,6.63,0,0,0,10.79,1.66Zm0,1.47a5.13,5.13,0,0,1,5.15,5.14,9,9,0,0,1-.85,2.92,40,40,0,0,1-2,3.81c-1.16,2-1.87,3.05-2.3,3.68C10.37,18.05,9.65,17,8.5,15a37.85,37.85,0,0,1-2-3.81,8.7,8.7,0,0,1-.85-2.92A5.13,5.13,0,0,1,10.79,3.13Zm0,3.67a1.47,1.47,0,1,0,1.47,1.47A1.47,1.47,0,0,0,10.79,6.8Z" fill="#fff"/></svg>