<svg xmlns="http://www.w3.org/2000/svg" viewBox="0 0 917.47 404.46"><rect width="917.47" height="404.46" fill="none"/><path d="M50,170.48c1.56-18.88,1.56-18.88-2-21.1l-3.33-2.22-3.33,1.78c-4.67,2.44-8.22,6.22-11.55,9.55l-.45.44c-24.65,26-30,67.74-12.66,99.28,14,25.32,41.76,41.76,70,41.76h3.11c29.1-1.33,57.09-20.43,69.31-47.75a81.74,81.74,0,0,0,6.22-48c-3.34-18.66-13.78-36.87-31.55-56-6-6.44-12.21-12.44-18.43-18.21C107.75,123,100,115.4,93.09,107.63a9,9,0,0,0-7.55-3.11,9.26,9.26,0,0,0-7.11,4.22c-10.66,16.88-10.88,40.86-.66,62.41.89,2,1.77,3.77,2.88,5.77a75.14,75.14,0,0,1,3.56,7.55,24.18,24.18,0,0,1-.67,21.1,17.45,17.45,0,0,1-18.66,8.67c-6.22-.89-14.44-5.56-16.43-14.88a19.83,19.83,0,0,1-.23-5.34c.45-8.21,1.34-16.65,1.78-23.54Z" fill="#e70c1a"/><path d="M343,269.67H314.48V215.3l-36.85,45.52L240.77,215.3v54.37H212.23V134.19l65.4,81.11L343,134.19V269.67Zm121.22-53.11c0,30.17-17.34,54.74-54.37,54.74s-54.38-24.57-54.38-54.74V134.19h28.36v82.37H384c0,14.27,9.4,28.91,25.84,28.91,16.26,0,25.83-14.64,25.83-28.91V134.19h28.54v82.37Zm120-82.37L522.05,244.92h60.89v24.75H476.17l62.32-110.73H477.61V134.19Zm116.52,82.37c0,30.17-17.34,54.74-54.37,54.74S592,246.73,592,216.56V134.19h28.36v82.37h.18c0,14.27,9.4,28.91,25.84,28.91,16.26,0,25.83-14.64,25.83-28.91V134.19h28.54v82.37ZM791.05,244v25.65h-78.4V134.19h28.72V244Zm117.79-27.46c0,30.17-17.34,54.74-54.38,54.74s-54.37-24.57-54.37-54.74V134.19h28.36v82.37h.18c0,14.27,9.39,28.91,25.83,28.91,16.26,0,25.84-14.64,25.84-28.91V134.19h28.54v82.37Z"/></svg>