<svg width="52" height="52" viewBox="0 0 52 52" fill="none" xmlns="http://www.w3.org/2000/svg">
<g clip-path="url(#clip0_446_2)">
<path d="M42.4669 0H9.53353C7.14153 0.00281667 5.20301 1.94133 5.2002 4.33333V27.7333C5.20301 30.1253 7.14153 32.0639 9.53353 32.0667H21.3843L20.1467 36.4H17.3335V38.1333H34.6669V36.4H31.8537L30.6161 32.0667H42.4669C44.8589 32.0639 46.7974 30.1253 46.8002 27.7333V4.33333C46.7974 1.94133 44.8589 0.00281667 42.4669 0ZM21.9494 36.4L23.187 32.0667H28.8134L30.051 36.4H21.9494ZM45.0669 27.7333C45.0669 29.1693 43.9028 30.3333 42.4669 30.3333H9.53353C8.09757 30.3333 6.93353 29.1693 6.93353 27.7333V26H45.0669V27.7333ZM45.0669 24.2667H6.93353V4.33333C6.93353 2.89738 8.09757 1.73333 9.53353 1.73333H42.4669C43.9028 1.73333 45.0669 2.89738 45.0669 4.33333V24.2667Z" fill="#595959"/>
<path d="M32.9336 39.8667H8.66696C8.18834 39.8667 7.80029 40.2547 7.80029 40.7333V51.1333C7.80029 51.612 8.18834 52 8.66696 52H32.9336C33.4122 52 33.8003 51.612 33.8003 51.1333V40.7333C33.8003 40.2547 33.4122 39.8667 32.9336 39.8667ZM32.067 50.2667H9.53363V41.6H32.067V50.2667Z" fill="#595959"/>
<path d="M13.0004 46.8H11.2671V48.5333H13.0004V46.8Z" fill="#595959"/>
<path d="M13.0004 43.3333H11.2671V45.0667H13.0004V43.3333Z" fill="#595959"/>
<path d="M16.4667 43.3333H14.7334V45.0667H16.4667V43.3333Z" fill="#595959"/>
<path d="M19.9335 43.3333H18.2002V45.0667H19.9335V43.3333Z" fill="#595959"/>
<path d="M26.8666 43.3333H25.1333V45.0667H26.8666V43.3333Z" fill="#595959"/>
<path d="M23.4003 43.3333H21.667V45.0667H23.4003V43.3333Z" fill="#595959"/>
<path d="M30.3334 46.8H28.6001V48.5333H30.3334V46.8Z" fill="#595959"/>
<path d="M30.3334 43.3333H28.6001V45.0667H30.3334V43.3333Z" fill="#595959"/>
<path d="M26.8667 46.8H14.7334V48.5333H26.8667V46.8Z" fill="#595959"/>
<path d="M39.867 39.8667C37.4738 39.8667 35.5337 41.8068 35.5337 44.2V47.6667C35.5337 50.0599 37.4738 52 39.867 52C42.2602 52 44.2004 50.0599 44.2004 47.6667V44.2C44.2004 41.8068 42.2602 39.8667 39.867 39.8667ZM42.467 47.6667C42.467 49.1026 41.303 50.2667 39.867 50.2667C38.4311 50.2667 37.267 49.1026 37.267 47.6667V44.2C37.267 42.764 38.4311 41.6 39.867 41.6C41.303 41.6 42.467 42.764 42.467 44.2V47.6667Z" fill="#595959"/>
<path d="M40.7333 43.3333H39V45.0667H40.7333V43.3333Z" fill="#595959"/>
<path d="M26.8967 7.57991L23.4268 19.7063L25.0925 20.1829L28.5624 8.05654L26.8967 7.57991Z" fill="#595959"/>
<path d="M21.3548 10.1989L20.2455 8.86774L15.0455 13.2011C14.6779 13.5077 14.6284 14.0541 14.935 14.4218C14.9685 14.4619 15.0054 14.4989 15.0455 14.5323L20.2455 18.8656L21.3548 17.5344L16.9539 13.8667L21.3548 10.1989Z" fill="#595959"/>
<path d="M37.0653 13.3116C37.0319 13.2715 36.9949 13.2344 36.9548 13.2011L31.7548 8.86774L30.6455 10.1989L35.0464 13.8667L30.6455 17.5344L31.7548 18.8656L36.9548 14.5323C37.3224 14.2257 37.3719 13.6793 37.0653 13.3116Z" fill="#595959"/>
</g>
<defs>
<clipPath id="clip0_446_2">
<rect width="52" height="52" fill="white"/>
</clipPath>
</defs>
</svg>
