<svg width="52" height="52" viewBox="0 0 52 52" fill="none" xmlns="http://www.w3.org/2000/svg">
<g clip-path="url(#clip0_446_53)">
<path d="M51.1875 22.5574V18.0676L49.0547 17.4842C48.9848 17.2973 48.9068 17.1112 48.8223 16.9276L49.92 15.0061L46.7456 11.8308L44.8224 12.9277C44.6379 12.8432 44.4527 12.7652 44.2666 12.6953L43.6832 10.5625H42.0631C41.3181 7.27431 38.3728 4.875 34.9375 4.875C33.9934 4.875 33.0566 5.05944 32.1864 5.41206C30.6207 2.59269 27.638 0.8125 24.375 0.8125C19.4626 0.8125 15.4635 4.79619 15.4375 9.70206C12.9513 10.9314 11.375 13.442 11.375 16.25C11.375 16.5222 11.3961 16.7928 11.4262 17.0625H3.25C1.90612 17.0625 0.8125 18.1561 0.8125 19.5V48.75C0.8125 50.0939 1.90612 51.1875 3.25 51.1875H19.5H21.125H34.9375H37.375H48.75C50.0939 51.1875 51.1875 50.0939 51.1875 48.75V29.25C51.1875 27.9061 50.0939 26.8125 48.75 26.8125H48.7264L49.92 25.6189L48.8223 23.6974C48.9068 23.5138 48.9848 23.3277 49.0547 23.1408L51.1875 22.5574ZM13 16.25C13 13.9141 14.404 11.8422 16.5758 10.972L17.1178 10.7551L17.0747 10.0246C17.0698 9.93363 17.0625 9.84263 17.0625 9.75C17.0625 5.71838 20.3426 2.4375 24.375 2.4375C27.2732 2.4375 29.9016 4.15594 31.07 6.81444L31.4267 7.62694L32.2043 7.19956C33.0379 6.74213 33.9828 6.5 34.9375 6.5C37.4822 6.5 39.6768 8.19325 40.3821 10.5625H39.1918L38.6084 12.6953C38.4223 12.7652 38.2371 12.8424 38.0526 12.9277L36.1294 11.8308L32.955 15.0061L34.0527 16.9276C33.9682 17.1112 33.8902 17.2973 33.8203 17.4842L31.6875 18.0676V20.3125H23.5625V19.5C23.5625 18.1561 22.4689 17.0625 21.125 17.0625H13.0626C13.0244 16.7936 13 16.523 13 16.25V16.25ZM34.9375 25.1875V26.8125H31.6875V25.1875H34.9375ZM30.0625 26.8125H26.8125V25.1875H30.0625V26.8125ZM25.1875 26.8125H23.5625V25.1875H25.1875V26.8125ZM23.5625 44.6875H34.9375V46.3125H23.5625V44.6875ZM23.5625 38.1875H34.9375V39.8125H23.5625V38.1875ZM23.5625 31.6875H34.9375V33.3125H23.5625V31.6875ZM19.5 49.5625H3.25C2.8015 49.5625 2.4375 49.1985 2.4375 48.75V19.5C2.4375 19.0523 2.8015 18.6875 3.25 18.6875H21.125C21.5735 18.6875 21.9375 19.0523 21.9375 19.5V48.75C21.9375 49.1985 21.5735 49.5625 21.125 49.5625H19.5ZM34.9375 49.5625H23.413C23.504 49.3074 23.5625 49.036 23.5625 48.75V47.9375H36.5625V43.0625H23.5625V41.4375H36.5625V36.5625H23.5625V34.9375H36.5625V30.0625H23.5625V28.4375H36.5625V23.5625H23.5625V21.9375H37.375C37.8235 21.9375 38.1875 22.3023 38.1875 22.75V48.75C38.1875 49.1985 37.8235 49.5625 37.375 49.5625H34.9375ZM38.1875 20.3125C38.1875 18.5201 39.6451 17.0625 41.4375 17.0625C43.2299 17.0625 44.6875 18.5201 44.6875 20.3125C44.6875 22.1049 43.2299 23.5625 41.4375 23.5625C40.8582 23.5625 40.3049 23.4049 39.8125 23.1181V22.75C39.8125 21.6978 39.1389 20.8073 38.2029 20.4669C38.2005 20.4157 38.1875 20.3637 38.1875 20.3125ZM46.3125 31.6875V33.3125H43.0625V31.6875H46.3125ZM41.4375 33.3125H39.8125V31.6875H41.4375V33.3125ZM39.8125 44.6875H46.3125V46.3125H39.8125V44.6875ZM39.8125 38.1875H46.3125V39.8125H39.8125V38.1875ZM49.5625 29.25V48.75C49.5625 49.1985 49.1985 49.5625 48.75 49.5625H39.663C39.754 49.3074 39.8125 49.036 39.8125 48.75V47.9375H47.9375V43.0625H39.8125V41.4375H47.9375V36.5625H39.8125V34.9375H47.9375V30.0625H39.8125V28.4375H48.75C49.1985 28.4375 49.5625 28.8015 49.5625 29.25ZM47.8928 25.3467L46.4279 26.8125H39.8125V24.9039C40.3292 25.0876 40.8753 25.1875 41.4375 25.1875C44.1261 25.1875 46.3125 23.0011 46.3125 20.3125C46.3125 17.6239 44.1261 15.4375 41.4375 15.4375C38.7489 15.4375 36.5625 17.6239 36.5625 20.3125H33.3125V19.3074L35.0943 18.8199L35.2251 18.3934C35.3421 18.0172 35.4981 17.6426 35.6899 17.2811L35.8995 16.8862L34.9814 15.2783L36.4024 13.8564L38.0104 14.7737L38.4044 14.5657C38.7701 14.3723 39.1454 14.2163 39.5184 14.1009L39.9441 13.9693L40.4332 12.1875H42.4426L42.9309 13.9693L43.3566 14.1009C43.7296 14.2163 44.1049 14.3723 44.4706 14.5657L44.8646 14.7737L46.4726 13.8564L47.8936 15.2783L46.9755 16.8862L47.1851 17.2811C47.3769 17.6426 47.5337 18.0172 47.6499 18.3934L47.7807 18.8199L49.5625 19.3074V21.3176L47.7807 21.8051L47.6499 22.2316C47.5329 22.6078 47.3769 22.9824 47.1851 23.3439L46.9755 23.7388L47.8928 25.3467Z" fill="#595959"/>
<path d="M4.0625 25.1875H20.3125V20.3125H4.0625V25.1875ZM10.5625 23.5625V21.9375H13.8125V23.5625H10.5625ZM18.6875 23.5625H15.4375V21.9375H18.6875V23.5625ZM5.6875 21.9375H8.9375V23.5625H5.6875V21.9375Z" fill="#595959"/>
<path d="M4.0625 31.6875H20.3125V26.8125H4.0625V31.6875ZM5.6875 28.4375H18.6875V30.0625H5.6875V28.4375Z" fill="#595959"/>
<path d="M4.0625 38.1875H20.3125V33.3125H4.0625V38.1875ZM5.6875 34.9375H18.6875V36.5625H5.6875V34.9375Z" fill="#595959"/>
<path d="M4.0625 47.9375H20.3125V39.8125H4.0625V47.9375ZM5.6875 41.4375H18.6875V46.3125H5.6875V41.4375Z" fill="#595959"/>
<path d="M10.5625 43.0625H12.1875V44.6875H10.5625V43.0625Z" fill="#595959"/>
<path d="M13.8125 43.0625H15.4375V44.6875H13.8125V43.0625Z" fill="#595959"/>
<path d="M7.3125 43.0625H8.9375V44.6875H7.3125V43.0625Z" fill="#595959"/>
<path d="M32.5 10.5625H34.125V12.1875H32.5V10.5625Z" fill="#595959"/>
<path d="M29.25 10.5625H30.875V12.1875H29.25V10.5625Z" fill="#595959"/>
<path d="M22.75 10.5625H24.375V12.1875H22.75V10.5625Z" fill="#595959"/>
<path d="M19.5 10.5625H21.125V12.1875H19.5V10.5625Z" fill="#595959"/>
<path d="M26 10.5625H27.625V12.1875H26V10.5625Z" fill="#595959"/>
</g>
<defs>
<clipPath id="clip0_446_53">
<rect width="52" height="52" fill="white"/>
</clipPath>
</defs>
</svg>
