<svg width="51" height="51" viewBox="0 0 51 51" fill="none" xmlns="http://www.w3.org/2000/svg">
<g clip-path="url(#clip0_358_741)">
<path d="M25.7114 31.4228C25.5246 31.029 25.0536 30.8611 24.6598 31.0481C24.0189 31.3522 23.3471 31.6035 22.6629 31.7949C22.3767 31.875 22.1598 32.1089 22.1016 32.4004L21.2664 36.576C21.184 36.9883 20.8189 37.2876 20.3984 37.2876H18.1202C17.6997 37.2876 17.3348 36.9884 17.2522 36.576L16.4171 32.4004C16.3588 32.1089 16.1418 31.875 15.8558 31.7949C14.8892 31.5244 13.9563 31.1379 13.0832 30.6461C12.8241 30.5002 12.5051 30.5122 12.2578 30.6771L8.71426 33.0394C8.36445 33.2726 7.89473 33.226 7.59727 32.9287L5.98633 31.3177C5.68897 31.0203 5.64258 30.5506 5.87568 30.2007L8.23799 26.6571C8.40293 26.4098 8.41494 26.0908 8.26895 25.8318C7.77705 24.9585 7.39053 24.0256 7.12012 23.0592C7.04004 22.773 6.80615 22.5561 6.51465 22.4979L2.33906 21.6627C1.92676 21.5803 1.62744 21.2153 1.62744 20.7947V18.5165C1.62744 18.096 1.92666 17.7311 2.33906 17.6486L6.51465 16.8134C6.80615 16.7551 7.04004 16.5381 7.12012 16.2521C7.39063 15.2855 7.77715 14.3527 8.26895 13.4795C8.41484 13.2205 8.40283 12.9015 8.23799 12.6541L5.87588 9.11096C5.64268 8.76105 5.68916 8.29142 5.98652 7.99396L7.59746 6.38303C7.89482 6.08566 8.36465 6.03928 8.71445 6.27238L12.258 8.63469C12.5053 8.79963 12.8244 8.81154 13.0834 8.66564C13.9565 8.17385 14.8894 7.78732 15.856 7.51682C16.1422 7.43674 16.3591 7.20285 16.4173 6.91135L17.2524 2.73576C17.3349 2.32346 17.6999 2.02414 18.1204 2.02414H20.3986C20.8191 2.02414 21.1841 2.32336 21.2666 2.73576L22.1018 6.91135C22.1601 7.20285 22.3771 7.43674 22.6631 7.51682C23.6297 7.78732 24.5625 8.17385 25.4356 8.66564C25.6947 8.81154 26.0138 8.79953 26.261 8.63469L29.8046 6.27238C30.1544 6.03918 30.624 6.08576 30.9216 6.38303L32.5325 7.99396C32.8299 8.29133 32.8763 8.76105 32.6432 9.11096L30.2809 12.6545C30.1159 12.9019 30.1039 13.2208 30.2499 13.4799C30.7417 14.353 31.1282 15.2859 31.3987 16.2525C31.4788 16.5387 31.7127 16.7556 32.0042 16.8138L36.1798 17.6489C36.5921 17.7314 36.8914 18.0964 36.8914 18.5169V20.7951C36.8914 21.2156 36.5922 21.5806 36.1798 21.6631L32.0042 22.4983C31.7127 22.5566 31.4788 22.7736 31.3987 23.0598C31.2025 23.761 30.9437 24.4487 30.6292 25.1041C30.4405 25.4972 30.6063 25.9688 30.9994 26.1573C31.3925 26.3461 31.8642 26.1802 32.0526 25.7871C32.3364 25.1956 32.5801 24.5807 32.7794 23.9534L36.4895 23.2114C37.6368 22.9818 38.4698 21.9655 38.4698 20.795V18.5168C38.4698 17.3463 37.6368 16.3302 36.489 16.1005L32.779 15.3585C32.5356 14.5925 32.2272 13.8478 31.8577 13.135L33.9565 9.98664C34.6058 9.01271 34.4764 7.7051 33.6486 6.87736L32.0377 5.26642C31.2099 4.43869 29.9022 4.30939 28.9284 4.95851L25.7801 7.05734C25.0673 6.68791 24.3226 6.37941 23.5565 6.13605L22.8146 2.42609C22.5852 1.27853 21.5689 0.445526 20.3984 0.445526H18.1202C16.9497 0.445526 15.9336 1.27853 15.7039 2.42639L14.9619 6.13635C14.1959 6.37971 13.4512 6.6881 12.7384 7.05764L9.59024 4.95881C8.61641 4.30959 7.30869 4.43889 6.48096 5.26672L4.87002 6.87766C4.04238 7.70539 3.91289 9.01291 4.56211 9.98693L6.66094 13.1353C6.2915 13.8481 5.98301 14.5927 5.73965 15.3588L2.02959 16.1008C0.881836 16.3303 0.0488281 17.3465 0.0488281 18.517V20.7952C0.0488281 21.9657 0.881836 22.9819 2.02969 23.2115L5.73965 23.9535C5.98291 24.7195 6.29141 25.4642 6.66094 26.1771L4.56211 29.3254C3.91289 30.2993 4.04229 31.607 4.87002 32.4347L6.48096 34.0456C7.30869 34.8734 8.61631 35.0027 9.59024 34.3535L12.7386 32.2547C13.4514 32.6241 14.196 32.9326 14.9621 33.176L15.7041 36.8862C15.9336 38.0336 16.9498 38.8667 18.1203 38.8667H20.3985C21.569 38.8667 22.5852 38.0337 22.8148 36.8859L23.5568 33.1759C24.1651 32.9826 24.7622 32.7476 25.3369 32.4747C25.7308 32.2876 25.8985 31.8167 25.7114 31.4228Z" fill="#595959"/>
<path d="M26.0977 24.0428C26.2129 24.102 26.3359 24.13 26.4572 24.13C26.7439 24.13 27.0206 23.9733 27.1604 23.7006C27.7971 22.4589 28.1337 21.0604 28.1337 19.6562C28.1337 14.7629 24.1527 10.7819 19.2594 10.7819C16.9314 10.7819 14.7316 11.6766 13.065 13.3015C12.7528 13.6058 12.7465 14.1057 13.0508 14.4178C13.3551 14.7299 13.8549 14.7364 14.1671 14.4321C15.5371 13.0965 17.3455 12.3609 19.2592 12.3609C23.2818 12.3609 26.5546 15.6335 26.5546 19.6563C26.5546 20.8276 26.2856 21.9459 25.7553 22.9803C25.5564 23.368 25.7097 23.8438 26.0977 24.0428Z" fill="#595959"/>
<path d="M11.8694 16.278C11.457 16.1362 11.008 16.3554 10.8661 16.7677C10.5471 17.6952 10.3853 18.6671 10.3853 19.6561C10.3853 24.5494 14.3663 28.5304 19.2596 28.5304C21.1415 28.5304 22.9395 27.9488 24.4595 26.8481C24.8126 26.5923 24.8916 26.0987 24.6359 25.7455C24.3803 25.3924 23.8865 25.3134 23.5334 25.5691C22.2846 26.4733 20.8067 26.9513 19.2595 26.9513C15.2367 26.9513 11.9641 23.6785 11.9641 19.6559C11.9641 18.842 12.0969 18.0429 12.359 17.2811C12.5008 16.8689 12.2816 16.4197 11.8694 16.278Z" fill="#595959"/>
<path d="M48.5295 34.949L46.2466 34.4925C46.1075 34.0787 45.94 33.6747 45.7459 33.2842L47.0375 31.3469C47.5354 30.5998 47.4362 29.5969 46.8014 28.9621L45.7428 27.9035C45.1079 27.2688 44.105 27.1695 43.358 27.6674L41.4207 28.959C41.0302 28.7649 40.6262 28.5974 40.2124 28.4584L39.7559 26.1755C39.5798 25.2951 38.8004 24.6562 37.9026 24.6562H36.4055C35.5078 24.6562 34.7283 25.2951 34.5522 26.1755L34.0957 28.4584C33.6819 28.5975 33.2779 28.765 32.8874 28.959L30.9501 27.6674C30.203 27.1696 29.2001 27.2687 28.5653 27.9035L27.5067 28.9621C26.8719 29.597 26.7727 30.5999 27.2706 31.3469L28.5622 33.2842C28.2952 33.8211 28.0789 34.3834 27.9172 34.9616C27.7997 35.3816 28.0449 35.8171 28.4647 35.9347C28.8847 36.0522 29.3202 35.8071 29.4378 35.3871C29.6097 34.7727 29.8554 34.1799 30.1679 33.6251C30.3138 33.366 30.3018 33.047 30.1369 32.7997L28.5845 30.4711C28.5025 30.3482 28.5188 30.1831 28.6233 30.0786L29.6819 29.02C29.7864 28.9156 29.9515 28.8994 30.0744 28.9812L32.403 30.5336C32.6503 30.6986 32.9693 30.7105 33.2284 30.5646C33.7833 30.2521 34.376 30.0064 34.9904 29.8345C35.2767 29.7544 35.4936 29.5205 35.5518 29.229L36.1005 26.4852C36.1294 26.3404 36.2577 26.2352 36.4055 26.2352H37.9026C38.0503 26.2352 38.1786 26.3404 38.2076 26.4852L38.7563 29.2292C38.8146 29.5207 39.0316 29.7546 39.3177 29.8347C39.9321 30.0066 40.5249 30.2523 41.0797 30.5648C41.3387 30.7107 41.6578 30.6987 41.9051 30.5338L44.2337 28.9814C44.3566 28.8994 44.5217 28.9156 44.6262 29.0202L45.6848 30.0788C45.7892 30.1833 45.8055 30.3484 45.7236 30.4713L44.1712 32.7999C44.0062 33.0473 43.9942 33.3662 44.1402 33.6253C44.4527 34.1802 44.6984 34.7729 44.8703 35.3873C44.9504 35.6736 45.1843 35.8904 45.4758 35.9487L48.2196 36.4974C48.3645 36.5263 48.4696 36.6546 48.4696 36.8024V38.2995C48.4696 38.4472 48.3645 38.5755 48.2196 38.6045L45.4756 39.1532C45.1841 39.2115 44.9502 39.4285 44.8701 39.7146C44.6982 40.329 44.4525 40.9218 44.14 41.4766C43.9941 41.7357 44.0062 42.0547 44.171 42.302L45.7234 44.6306C45.8054 44.7535 45.7891 44.9186 45.6846 45.0231L44.626 46.0817C44.5216 46.1862 44.3565 46.2024 44.2335 46.1205L41.9049 44.5681C41.6576 44.4032 41.3385 44.3912 41.0795 44.5371C40.5246 44.8496 39.9319 45.0953 39.3175 45.2672C39.0312 45.3473 38.8144 45.5812 38.7562 45.8727L38.2074 48.6165C38.1785 48.7613 38.0502 48.8665 37.9024 48.8665H36.4053C36.2576 48.8665 36.1293 48.7613 36.1003 48.6165L35.5516 45.8725C35.4933 45.581 35.2763 45.3471 34.9902 45.267C34.3758 45.0951 33.783 44.8494 33.2282 44.5369C32.9691 44.391 32.65 44.403 32.4028 44.5679L30.0742 46.1203C29.9513 46.2023 29.7862 46.1861 29.6817 46.0815L28.6231 45.0229C28.5188 44.9184 28.5024 44.7533 28.5843 44.6304L30.1367 42.3018C30.3017 42.0544 30.3137 41.7355 30.1677 41.4764C29.8552 40.9215 29.6095 40.3288 29.4376 39.7144C29.3575 39.4281 29.1236 39.2112 28.8321 39.153L26.0883 38.6043C25.9435 38.5754 25.8383 38.4471 25.8383 38.2993V36.8022C25.8383 36.6545 25.9435 36.5262 26.0883 36.4972L26.2563 36.4636C26.6838 36.378 26.9611 35.9621 26.8755 35.5346C26.7899 35.1071 26.3745 34.8302 25.9464 34.9154L25.7784 34.9489C24.8982 35.1251 24.2593 35.9045 24.2593 36.8023V38.2994C24.2593 39.1971 24.8982 39.9766 25.7786 40.1527L28.0615 40.6092C28.2006 41.023 28.3681 41.427 28.5621 41.8175L27.2705 43.7548C26.7725 44.5019 26.8718 45.5048 27.5066 46.1396L28.5652 47.1982C29.2001 47.833 30.203 47.9322 30.95 47.4343L32.8873 46.1427C33.2778 46.3368 33.6818 46.5043 34.0956 46.6433L34.5521 48.9262C34.7284 49.8066 35.5078 50.4455 36.4056 50.4455H37.9027C38.8004 50.4455 39.5799 49.8066 39.756 48.9262L40.2125 46.6433C40.6263 46.5042 41.0303 46.3367 41.4208 46.1426L43.3581 47.4342C44.1052 47.9321 45.1081 47.8329 45.7429 47.1981L46.8015 46.1395C47.4363 45.5046 47.5355 44.5017 47.0376 43.7547L45.746 41.8174C45.9401 41.4269 46.1076 41.0229 46.2466 40.6091L48.5295 40.1526C49.4098 39.9765 50.0487 39.1971 50.0487 38.2993V36.8022C50.0488 35.9045 49.4099 35.1251 48.5295 34.949Z" fill="#595959"/>
<path d="M37.1541 34.7087C38.7213 34.7087 39.9962 35.9836 39.9962 37.5508C39.9962 37.9868 40.3497 38.3402 40.7856 38.3402C41.2216 38.3402 41.5751 37.9867 41.5751 37.5508C41.5751 35.113 39.5918 33.1297 37.154 33.1297C34.7162 33.1297 32.7329 35.113 32.7329 37.5508C32.7329 39.9886 34.7162 41.9719 37.154 41.9719C38.1414 41.9719 39.0754 41.6534 39.8551 41.0511C40.2001 40.7845 40.2637 40.2887 39.9972 39.9436C39.7306 39.5985 39.2347 39.5349 38.8896 39.8015C38.3889 40.1883 37.7887 40.3929 37.154 40.3929C35.5868 40.3929 34.3119 39.118 34.3119 37.5508C34.312 35.9835 35.5869 34.7087 37.1541 34.7087Z" fill="#595959"/>
<path d="M24.0694 19.6561C24.0694 17.0039 21.9116 14.8462 19.2596 14.8462C16.6074 14.8462 14.4497 17.004 14.4497 19.6561C14.4497 22.3082 16.6074 24.4659 19.2596 24.4659C21.9117 24.4659 24.0694 22.3081 24.0694 19.6561ZM16.0286 19.6561C16.0286 17.8746 17.4781 16.4251 19.2596 16.4251C21.041 16.4251 22.4905 17.8746 22.4905 19.6561C22.4905 21.4375 21.0411 22.887 19.2596 22.887C17.4779 22.887 16.0286 21.4375 16.0286 19.6561Z" fill="#595959"/>
</g>
<defs>
<clipPath id="clip0_358_741">
<rect width="50" height="50" fill="white" transform="translate(0.0488281 0.445526)"/>
</clipPath>
</defs>
</svg>
