<svg width="40" height="40" viewBox="0 0 40 40" fill="none" xmlns="http://www.w3.org/2000/svg">
<path d="M35.2656 21.5812V9.325C37.3296 9.02 38.9219 7.19938 38.9219 5C38.9219 2.58813 37.0084 0.625 34.6562 0.625C32.3041 0.625 30.3906 2.58813 30.3906 5H1.14062V30H19.453C19.7698 35.2225 24.0019 39.375 29.1719 39.375C34.5478 39.375 38.9219 34.8887 38.9219 29.375C38.9219 26.2256 37.4917 23.4156 35.2656 21.5812ZM34.6562 1.875C36.3363 1.875 37.7031 3.27688 37.7031 5C37.7031 6.72312 36.3363 8.125 34.6562 8.125C32.9762 8.125 31.6094 6.72312 31.6094 5C31.6094 3.27688 32.9762 1.875 34.6562 1.875ZM2.35938 6.25H30.5704C30.716 6.74875 30.9476 7.20813 31.245 7.61563L27.518 11.4381C27.2792 11.3206 27.0159 11.25 26.7344 11.25C26.4528 11.25 26.1896 11.3206 25.9513 11.4381L24.7234 10.1787C24.8374 9.93375 24.9062 9.66375 24.9062 9.375C24.9062 8.34125 24.086 7.5 23.0781 7.5C22.0702 7.5 21.25 8.34125 21.25 9.375C21.25 9.66375 21.3189 9.93375 21.4334 10.1781L18.3774 13.3125C18.1385 13.1956 17.8753 13.125 17.5938 13.125C16.5858 13.125 15.7656 13.9662 15.7656 15C15.7656 16.0338 16.5858 16.875 17.5938 16.875C18.6017 16.875 19.4219 16.0338 19.4219 15C19.4219 14.7112 19.353 14.4413 19.2385 14.1969L22.2945 11.0625C22.5333 11.1794 22.7966 11.25 23.0781 11.25C23.3597 11.25 23.6229 11.1794 23.8612 11.0619L25.0891 12.3213C24.9751 12.5663 24.9062 12.8362 24.9062 13.125C24.9062 14.1588 25.7265 15 26.7344 15C27.7423 15 28.5625 14.1588 28.5625 13.125C28.5625 12.8362 28.4936 12.5663 28.3791 12.3219L32.1066 8.49937C32.6642 8.92812 33.326 9.21875 34.0469 9.32562V20.7288C32.6106 19.8731 30.9488 19.375 29.1719 19.375C26.2591 19.375 23.6473 20.6987 21.8594 22.7831V20H18.2031V27.5H19.5998C19.5242 27.9081 19.4785 28.3263 19.453 28.75H2.35938V6.25ZM26.7344 12.5C27.0701 12.5 27.3438 12.78 27.3438 13.125C27.3438 13.47 27.0701 13.75 26.7344 13.75C26.3986 13.75 26.125 13.47 26.125 13.125C26.125 12.78 26.3986 12.5 26.7344 12.5ZM22.4688 9.375C22.4688 9.03 22.7424 8.75 23.0781 8.75C23.4139 8.75 23.6875 9.03 23.6875 9.375C23.6875 9.72 23.4139 10 23.0781 10C22.7424 10 22.4688 9.72 22.4688 9.375ZM18.2031 15C18.2031 15.345 17.9295 15.625 17.5938 15.625C17.258 15.625 16.9844 15.345 16.9844 15C16.9844 14.655 17.258 14.375 17.5938 14.375C17.9295 14.375 18.2031 14.655 18.2031 15ZM29.1719 34.375C26.4839 34.375 24.2969 32.1319 24.2969 29.375C24.2969 26.6181 26.4839 24.375 29.1719 24.375C31.8598 24.375 34.0469 26.6181 34.0469 29.375C34.0469 32.1319 31.8598 34.375 29.1719 34.375ZM20.6406 24.5444C20.3487 25.0844 20.1074 25.655 19.9161 26.25H19.4219V21.25H20.6406V24.5444ZM28.5625 20.6569V23.1569C25.4876 23.4719 23.0781 26.14 23.0781 29.375C23.0781 30.2894 23.2756 31.1563 23.6211 31.94L21.5072 33.1919C20.9575 32.0369 20.6406 30.7444 20.6406 29.375C20.6406 24.7613 24.1427 20.9794 28.5625 20.6569ZM29.1719 38.125C26.2383 38.125 23.6461 36.5981 22.1104 34.2781L24.2329 33.0212C25.3407 34.595 27.139 35.625 29.1719 35.625C31.2047 35.625 33.003 34.595 34.1109 33.0212L36.2333 34.2781C34.6977 36.5981 32.1054 38.125 29.1719 38.125V38.125ZM36.8366 33.1919L34.7227 31.94C35.0682 31.1563 35.2656 30.2894 35.2656 29.375C35.2656 26.14 32.8562 23.4712 29.7812 23.1569V20.6569C34.201 20.9794 37.7031 24.7613 37.7031 29.375C37.7031 30.7444 37.3862 32.0369 36.8366 33.1919Z" fill="#595959"/>
<path d="M29.1719 25.625C27.1555 25.625 25.5156 27.3069 25.5156 29.375C25.5156 31.4431 27.1555 33.125 29.1719 33.125C31.1883 33.125 32.8281 31.4431 32.8281 29.375C32.8281 27.3069 31.1883 25.625 29.1719 25.625ZM29.1719 31.875C27.8276 31.875 26.7344 30.7538 26.7344 29.375C26.7344 27.9962 27.8276 26.875 29.1719 26.875C30.5162 26.875 31.6094 27.9962 31.6094 29.375C31.6094 30.7538 30.5162 31.875 29.1719 31.875Z" fill="#595959"/>
<path d="M3.57812 7.5H4.79688V8.75H3.57812V7.5Z" fill="#595959"/>
<path d="M6.01562 7.5H14.5469V8.75H6.01562V7.5Z" fill="#595959"/>
<path d="M3.57812 10H4.79688V11.25H3.57812V10Z" fill="#595959"/>
<path d="M6.01562 10H14.5469V11.25H6.01562V10Z" fill="#595959"/>
<path d="M3.57812 12.5H4.79688V13.75H3.57812V12.5Z" fill="#595959"/>
<path d="M6.01562 12.5H14.5469V13.75H6.01562V12.5Z" fill="#595959"/>
<path d="M3.57812 15H4.79688V16.25H3.57812V15Z" fill="#595959"/>
<path d="M6.01562 15H14.5469V16.25H6.01562V15Z" fill="#595959"/>
<path d="M3.57812 27.5H7.23438V21.25H3.57812V27.5ZM4.79688 22.5H6.01562V26.25H4.79688V22.5Z" fill="#595959"/>
<path d="M8.45312 27.5H12.1094V22.5H8.45312V27.5ZM9.67188 23.75H10.8906V26.25H9.67188V23.75Z" fill="#595959"/>
<path d="M13.3281 27.5H16.9844V17.5H13.3281V27.5ZM14.5469 18.75H15.7656V26.25H14.5469V18.75Z" fill="#595959"/>
</svg>
