<svg width="38" height="39" viewBox="0 0 38 39" fill="none" xmlns="http://www.w3.org/2000/svg">
<path d="M35.625 5.67712H2.375C1.39294 5.67712 0.59375 6.47631 0.59375 7.45837V31.2084C0.59375 32.1904 1.39294 32.9896 2.375 32.9896H35.625C36.6071 32.9896 37.4062 32.1904 37.4062 31.2084V7.45837C37.4062 6.47631 36.6071 5.67712 35.625 5.67712ZM2.375 6.86462H35.625C35.9522 6.86462 36.2188 7.13062 36.2188 7.45837V10.4271H1.78125V7.45837C1.78125 7.13062 2.04784 6.86462 2.375 6.86462ZM35.625 31.8021H2.375C2.04784 31.8021 1.78125 31.5361 1.78125 31.2084V11.6146H36.2188V31.2084C36.2188 31.5361 35.9522 31.8021 35.625 31.8021Z" fill="#595959"/>
<path d="M2.96875 8.05212H4.15625V9.23962H2.96875V8.05212Z" fill="#595959"/>
<path d="M7.71875 8.05212H8.90625V9.23962H7.71875V8.05212Z" fill="#595959"/>
<path d="M5.34375 8.05212H6.53125V9.23962H5.34375V8.05212Z" fill="#595959"/>
<path d="M33.8438 19.9271H29.6875V18.6797C31.0407 18.4036 32.0625 17.2048 32.0625 15.7709C32.0625 14.1339 30.7307 12.8021 29.0938 12.8021C27.6604 12.8021 26.4611 13.824 26.185 15.1771H14.8438V13.9896C14.8438 13.3347 14.3112 12.8021 13.6562 12.8021H4.15625C3.50134 12.8021 2.96875 13.3347 2.96875 13.9896V17.5521C2.96875 18.207 3.50134 18.7396 4.15625 18.7396H8.3125V23.4896H23.1562V24.6771C23.1562 25.332 23.6888 25.8646 24.3438 25.8646H28.5V27.0521H14.8438V25.8646C14.8438 25.2097 14.3112 24.6771 13.6562 24.6771H4.15625C3.50134 24.6771 2.96875 25.2097 2.96875 25.8646V29.4271C2.96875 30.082 3.50134 30.6146 4.15625 30.6146H13.6562C14.3112 30.6146 14.8438 30.082 14.8438 29.4271V28.2396H29.6875V25.8646H33.8438C34.4987 25.8646 35.0312 25.332 35.0312 24.6771V21.1146C35.0312 20.4597 34.4987 19.9271 33.8438 19.9271ZM4.15625 29.4271V25.8646H13.6562L13.6568 29.4271H4.15625ZM29.0938 13.9896C30.0758 13.9896 30.875 14.7888 30.875 15.7709C30.875 16.7529 30.0758 17.5521 29.0938 17.5521C28.1117 17.5521 27.3125 16.7529 27.3125 15.7709C27.3125 14.7888 28.1117 13.9896 29.0938 13.9896ZM4.15625 13.9896H13.6562L13.6568 17.5521H4.15625V13.9896ZM23.1562 21.1146V22.3021H9.5V18.7396H13.6562C14.3112 18.7396 14.8438 18.207 14.8438 17.5521V16.3646H26.185C26.4219 17.526 27.3386 18.4427 28.5 18.6797V19.9271H24.3438C23.6888 19.9271 23.1562 20.4597 23.1562 21.1146ZM24.3438 24.6771V21.1146H33.8438L33.8443 24.6771H24.3438Z" fill="#595959"/>
<path d="M5.34375 15.1771H6.53125V16.3646H5.34375V15.1771Z" fill="#595959"/>
<path d="M7.71875 15.1771H12.4688V16.3646H7.71875V15.1771Z" fill="#595959"/>
<path d="M5.34375 27.0521H12.4688V28.2396H5.34375V27.0521Z" fill="#595959"/>
<path d="M31.4688 22.3021H32.6562V23.4896H31.4688V22.3021Z" fill="#595959"/>
<path d="M25.5312 22.3021H30.2812V23.4896H25.5312V22.3021Z" fill="#595959"/>
</svg>
