<svg width="37" height="32" viewBox="0 0 37 32" fill="none" xmlns="http://www.w3.org/2000/svg">
<g clip-path="url(#clip0_375_1124)">
<path d="M36.5074 13.4644C36.4561 13.2181 36.2073 13.0389 35.9168 13.0389H32.7187C32.3867 11.916 31.8687 10.8402 31.1807 9.84453L33.443 7.89643C33.6487 7.71939 33.6772 7.44076 33.5106 7.23544C32.3175 5.7621 30.8312 4.48214 29.1202 3.45478C28.8817 3.31141 28.5582 3.33599 28.3526 3.51303L26.0903 5.46112C24.934 4.86861 23.6846 4.42256 22.3807 4.13666V1.38281C22.3807 1.13264 22.1725 0.91836 21.8865 0.874222C19.8319 0.561921 17.7296 0.561921 15.675 0.874222C15.6308 0.883425 15.5881 0.896987 15.5476 0.914727C13.8504 0.402139 11.9717 0.611328 10.4818 1.47878C8.99198 2.34623 8.06667 3.76963 7.98686 5.31684C7.84497 5.33028 7.70576 5.35105 7.56731 5.37381C7.542 5.37799 7.5157 5.37975 7.49046 5.38423C7.32087 5.41426 7.15437 5.45168 6.99089 5.49509C6.93921 5.50883 6.88978 5.52675 6.83873 5.54183C6.72792 5.57447 6.61725 5.6071 6.50981 5.64567C6.44892 5.66753 6.3907 5.69338 6.33101 5.71705C6.23693 5.75441 6.14271 5.79134 6.05159 5.83312C5.98922 5.86176 5.92952 5.89373 5.86856 5.92437C5.78412 5.96693 5.6996 6.00931 5.61804 6.05563C5.5575 6.08996 5.49956 6.12696 5.44071 6.16334C5.36295 6.21142 5.28567 6.25986 5.21107 6.31132C5.15398 6.35074 5.09907 6.39215 5.04387 6.4335C4.97264 6.48691 4.90233 6.54097 4.83434 6.59746C4.78118 6.64166 4.72986 6.68719 4.67888 6.73327C4.61405 6.79176 4.55077 6.85128 4.48953 6.91261C4.44122 6.96093 4.39418 7.01009 4.34834 7.06004C4.28998 7.12355 4.23394 7.1884 4.17938 7.25446C4.13649 7.30647 4.0943 7.35872 4.05387 7.4123C4.00226 7.48066 3.95375 7.55053 3.90629 7.62131C3.8693 7.67641 3.83239 7.73138 3.79794 7.78781C3.75336 7.86101 3.71279 7.93597 3.67264 8.01141C3.64212 8.06881 3.61083 8.12572 3.58292 8.18439C3.54558 8.26298 3.51324 8.34345 3.48083 8.4241C3.45734 8.48265 3.43217 8.54035 3.41129 8.59987C3.38133 8.68536 3.3575 8.77297 3.33331 8.8604C3.31742 8.91768 3.29879 8.97405 3.28543 9.03217C3.26272 9.13056 3.24753 9.23095 3.23227 9.33145C3.22475 9.38086 3.2135 9.42924 3.2078 9.47907C3.19051 9.63043 3.18073 9.78362 3.18073 9.9388C3.17771 10.562 3.32298 11.1792 3.6076 11.7522C3.56998 11.7723 3.53736 11.7972 3.5003 11.818C3.40271 11.8731 3.30933 11.9328 3.21582 11.9926C3.0001 12.1291 2.79521 12.278 2.60255 12.4381C2.58041 12.4566 2.55636 12.4734 2.53456 12.4922C2.42185 12.5891 2.31758 12.6914 2.21471 12.7953C2.18047 12.8299 2.14609 12.8644 2.1129 12.8998C2.01285 13.0065 1.91722 13.1152 1.82757 13.2282C1.80261 13.2595 1.78018 13.2922 1.75599 13.324C1.49626 13.6672 1.28546 14.0361 1.12825 14.4226C1.09077 14.514 1.05414 14.6056 1.0225 14.6992C0.993808 14.7851 0.968285 14.8715 0.94473 14.959C0.912035 15.0789 0.885738 15.2004 0.863027 15.3233C0.85009 15.3939 0.834973 15.4637 0.82541 15.5351C0.816973 15.5969 0.811277 15.6591 0.805441 15.7214C0.803613 15.7318 0.796371 15.7402 0.795246 15.7509C0.781676 15.8802 0.780762 16.0094 0.780762 16.1388C0.783363 17.6246 1.5272 19.0378 2.82305 20.0187C2.55755 20.3926 2.35182 20.7954 2.21141 21.2166C2.20332 21.2404 2.19524 21.264 2.18757 21.2879C2.12577 21.4816 2.07774 21.6785 2.04392 21.8773C2.03837 21.9101 2.03485 21.9432 2.03007 21.9761C1.99864 22.182 1.98219 22.3895 1.98078 22.5971C1.96904 24.8836 3.80124 26.871 6.38993 27.3798C6.40716 27.4372 6.43043 27.4922 6.44963 27.5489C6.4684 27.604 6.4871 27.6591 6.50777 27.7135C6.55495 27.8385 6.60783 27.9608 6.6645 28.0815C6.68271 28.1201 6.69916 28.1594 6.71829 28.1976C6.96073 28.6827 7.28086 29.1362 7.66933 29.5449C7.69303 29.5699 7.71813 29.5937 7.74232 29.6183C7.84659 29.7244 7.95494 29.827 8.06737 29.9262C8.10443 29.9588 8.14218 29.9907 8.18015 30.0225C8.28527 30.1106 8.39362 30.1954 8.50521 30.277C8.55007 30.3099 8.59436 30.3431 8.64021 30.375C8.75376 30.4539 8.87111 30.5284 8.9905 30.6007C9.03607 30.6284 9.08001 30.6577 9.12649 30.6844C9.28961 30.7779 9.45653 30.8667 9.62908 30.9476C9.66058 30.9623 9.69398 30.9743 9.72576 30.9886C9.86758 31.0526 10.0114 31.1134 10.1588 31.1685C10.2321 31.196 10.3077 31.2194 10.3824 31.2446C10.493 31.2819 10.604 31.3182 10.7173 31.3504C10.7993 31.3737 10.8823 31.3946 10.9656 31.4152C11.0788 31.4431 11.193 31.4685 11.3083 31.4912C11.3902 31.5074 11.472 31.5232 11.5549 31.5367C11.6843 31.5578 11.8152 31.5739 11.9468 31.5884C12.0178 31.5961 12.088 31.606 12.1597 31.6117C12.3647 31.6284 12.5715 31.6388 12.7808 31.6388C13.6476 31.6391 14.5059 31.4915 15.306 31.2046C15.3954 31.3087 15.5273 31.3797 15.6751 31.4035C17.7296 31.7173 19.8322 31.7173 21.8866 31.4035C22.1727 31.3593 22.3809 31.1451 22.3809 30.8949V28.141C23.6848 27.8551 24.9341 27.409 26.0904 26.8165L28.3527 28.7646C28.5582 28.942 28.8819 28.9666 29.1203 28.8228C30.8313 27.7955 32.3177 26.5156 33.5107 25.0422C33.6774 24.8369 33.6488 24.5582 33.4431 24.3812L31.1808 22.4331C31.8689 21.4374 32.3869 20.3616 32.7189 19.2388H35.9169C36.2074 19.2388 36.4563 19.0595 36.5075 18.8132C36.8718 17.0441 36.8718 15.2336 36.5074 13.4644ZM12.7808 30.6055C12.6064 30.6055 12.4343 30.5969 12.264 30.5829C12.2027 30.5779 12.1425 30.5688 12.0818 30.562C11.9747 30.55 11.8678 30.5373 11.7626 30.52C11.6906 30.508 11.6198 30.493 11.5487 30.4787C11.4567 30.4601 11.3652 30.4405 11.275 30.4179C11.202 30.3996 11.1298 30.3796 11.0581 30.3587C10.9713 30.3334 10.8854 30.3063 10.8007 30.2774C10.7317 30.2539 10.663 30.2299 10.5953 30.204C10.5074 30.1703 10.4215 30.1339 10.3362 30.0963C10.2762 30.07 10.2157 30.0444 10.157 30.0162C10.0574 29.9683 9.96067 29.9164 9.86505 29.8633C9.82476 29.8409 9.78306 29.8204 9.74341 29.7972C9.46581 29.6342 9.20643 29.4494 8.96842 29.2453C8.96076 29.2387 8.95373 29.2315 8.94607 29.2248C8.83645 29.1294 8.73161 29.0301 8.63163 28.9269C8.61384 28.9085 8.59725 28.8892 8.57974 28.8706C8.49248 28.7774 8.40874 28.6818 8.32985 28.583C8.30953 28.5576 8.29026 28.5315 8.27043 28.5057C8.19843 28.4115 8.13023 28.315 8.06604 28.2163C8.04593 28.1852 8.0261 28.1539 8.00669 28.1224C7.9477 28.0265 7.89328 27.9283 7.84202 27.8285C7.82367 27.7928 7.80476 27.7572 7.78746 27.7209C7.74035 27.6224 7.69858 27.5216 7.65921 27.4198C7.64423 27.3809 7.62764 27.3427 7.61379 27.3032C7.57631 27.197 7.54544 27.0884 7.51676 26.9791C7.5074 26.9435 7.49552 26.9087 7.48715 26.8727C7.18291 25.574 7.53687 24.2251 8.46021 23.1653C8.65828 22.9372 8.60456 22.6141 8.34011 22.443C8.07567 22.2719 7.70027 22.3174 7.50101 22.5447C6.6401 23.5269 6.17632 24.7249 6.18061 25.9555C6.18061 26.0578 6.19221 26.1575 6.19847 26.2585C4.38582 25.7205 3.1723 24.2482 3.18066 22.5972C3.18059 22.3844 3.20063 22.172 3.24064 21.9619C3.24486 21.9396 3.25442 21.9191 3.25913 21.8969C3.38513 21.2923 3.67946 20.723 4.11673 20.2377C4.12081 20.2331 4.12151 20.2271 4.12538 20.2225C4.69175 19.5912 5.47144 19.1266 6.35709 18.8926C6.67392 18.8087 6.85174 18.5195 6.75436 18.2467C6.65698 17.9739 6.32116 17.8208 6.00434 17.9046C5.07488 18.1499 4.2338 18.5959 3.56112 19.2002C2.55706 18.417 1.98317 17.3055 1.98064 16.1389C1.98219 15.9656 1.99618 15.7925 2.02255 15.6206C2.03049 15.5658 2.04104 15.5117 2.05152 15.4576C2.07395 15.3401 2.10341 15.2245 2.13723 15.1101C2.15452 15.0522 2.16901 14.9934 2.18919 14.9366C2.23911 14.7949 2.29782 14.6556 2.36525 14.5194C2.40448 14.4403 2.45026 14.3642 2.49505 14.2877C2.53224 14.2238 2.57077 14.1604 2.61177 14.0982C2.66689 14.0151 2.72335 13.9326 2.7848 13.8532C2.82017 13.8074 2.85962 13.7641 2.89709 13.7195C3.01388 13.581 3.14044 13.4488 3.27608 13.3237C3.32916 13.2748 3.38155 13.2255 3.43758 13.1788C3.51106 13.1173 3.58714 13.0582 3.66497 13.0008C3.75076 12.9379 3.84019 12.8781 3.9316 12.8201C4.00395 12.7739 4.07588 12.7276 4.15118 12.685C4.29054 12.6066 4.43447 12.5344 4.58234 12.4687C5.26128 12.1646 6.01531 12.0057 6.78059 12.0056C7.11197 12.0056 7.38056 11.7743 7.38056 11.4889C7.38056 11.2036 7.1119 10.9723 6.78059 10.9723C6.06649 10.9735 5.35852 11.0852 4.69034 11.3021C4.48383 10.8697 4.37857 10.4065 4.38054 9.93892C4.38082 8.30186 5.65798 6.86908 7.49433 6.44555C9.33067 6.02203 11.2685 6.71335 12.219 8.13111C12.3263 8.2909 12.5246 8.38922 12.739 8.38904C12.9534 8.38886 13.1514 8.29017 13.2585 8.1302C13.3655 7.97024 13.3653 7.77322 13.2578 7.61344C12.3981 6.34117 10.8918 5.49273 9.19371 5.32429C9.33257 3.23161 11.3799 1.61398 13.813 1.67435C16.2462 1.73471 18.1819 3.45121 18.1805 5.54734V8.74003L15.5755 11.8808L13.3717 11.048C13.3731 11.0224 13.3805 10.9982 13.3805 10.9723C13.3893 10.216 12.7692 9.56244 11.9068 9.41912C11.0444 9.27581 10.1863 9.68384 9.86772 10.3886C9.54913 11.0934 9.86111 11.8935 10.6091 12.29C11.3571 12.6865 12.3272 12.5659 12.9144 12.0035L15.0935 12.8271C15.2442 12.8839 15.4069 12.9132 15.5714 12.9131C15.96 12.9135 16.3251 12.7527 16.5522 12.4812L18.1805 10.518V14.589H13.27C12.9778 13.8772 12.1326 13.4503 11.2686 13.578C10.4045 13.7056 9.77294 14.3507 9.77294 15.1056C9.77294 15.8605 10.4045 16.5056 11.2686 16.6333C12.1326 16.7609 12.9778 16.334 13.27 15.6223H18.1805V17.6889H16.87C16.5778 16.9772 15.7326 16.5503 14.8685 16.6779C14.0045 16.8055 13.3729 17.4507 13.3729 18.2055C13.3729 18.9604 14.0045 19.6056 14.8685 19.7332C15.7326 19.8608 16.5778 19.4339 16.87 18.7222H18.1805V20.7888H13.2725C12.701 20.7898 12.2091 21.1369 12.0959 21.6194L11.6724 23.4428C10.8415 23.6606 10.3127 24.3612 10.4187 25.1034C10.5248 25.8457 11.2351 26.4149 12.1025 26.4527C12.9698 26.4906 13.7433 25.9861 13.936 25.2568C14.1286 24.5275 13.6848 23.7846 12.8837 23.4956L13.2724 21.8221H18.1805V25.9555C18.1773 28.5224 15.7617 30.6025 12.7808 30.6055ZM12.1808 10.9721C12.1808 11.2575 11.9121 11.4888 11.5808 11.4888C11.2494 11.4888 10.9808 11.2575 10.9808 10.9721C10.9808 10.6868 11.2495 10.4555 11.5808 10.4555C11.912 10.4559 12.1804 10.687 12.1808 10.9721ZM12.1808 15.1055C12.1808 15.3909 11.9121 15.6221 11.5808 15.6221C11.2494 15.6221 10.9808 15.3909 10.9808 15.1055C10.9808 14.8201 11.2495 14.5888 11.5808 14.5888C11.912 14.5892 12.1804 14.8203 12.1808 15.1055ZM15.7808 18.2055C15.7808 18.4908 15.5121 18.7221 15.1808 18.7221C14.8495 18.7221 14.5808 18.4908 14.5808 18.2055C14.5808 17.9201 14.8494 17.6888 15.1808 17.6888C15.512 17.6892 15.7804 17.9203 15.7808 18.2055ZM12.7808 24.9221C12.7808 25.2075 12.5122 25.4388 12.1808 25.4388C11.8494 25.4388 11.5808 25.2075 11.5808 24.9221C11.5808 24.6368 11.8494 24.4055 12.1808 24.4055C12.512 24.4058 12.7803 24.6369 12.7808 24.9221ZM35.4066 18.2055H32.2447C31.963 18.2054 31.7192 18.3742 31.6588 18.6112C31.3324 19.8971 30.7422 21.1226 29.9159 22.2301C29.7633 22.4345 29.7968 22.7028 29.9965 22.8747L32.2336 24.8011C31.2742 25.9125 30.1309 26.8971 28.8401 27.7233L26.603 25.7968C26.4034 25.6252 26.0919 25.5963 25.8544 25.7275C24.5683 26.4389 23.1452 26.9472 21.6518 27.2283C21.3766 27.2803 21.1806 27.4903 21.1806 27.7328V30.4557C19.7098 30.6367 18.2176 30.6481 16.7433 30.4897C18.4017 29.4197 19.3787 27.74 19.3806 25.9556V23.3461C23.7745 23.0792 27.1807 19.932 27.1807 16.139C27.1807 12.346 23.7745 9.19873 19.3806 8.93184V5.54716C19.3804 4.0677 18.6039 2.66762 17.2678 1.73756C18.5714 1.63354 19.8847 1.66193 21.1806 1.82202V4.54487C21.1806 4.78748 21.3766 4.99739 21.6517 5.0494C23.1451 5.33046 24.5683 5.83869 25.8544 6.55024C26.0917 6.68187 26.4035 6.65299 26.6029 6.48085L28.84 4.55443C30.1308 5.3806 31.2741 6.36509 32.2335 7.4766L29.9964 9.40302C29.7968 9.57479 29.7633 9.84313 29.9158 10.0476C30.7421 11.1551 31.3323 12.3806 31.6587 13.6665C31.7191 13.9035 31.963 14.0723 32.2446 14.0723H35.4066C35.6387 15.4427 35.6387 16.835 35.4066 18.2055ZM22.9808 16.1388C22.9772 14.343 21.4447 12.821 19.3808 12.5634V9.96501C23.1108 10.2312 25.9807 12.9158 25.9807 16.1388C25.9807 19.3619 23.1108 22.0465 19.3808 22.3127V19.7143C21.4447 19.4566 22.9771 17.9347 22.9808 16.1388ZM19.3808 18.6699V13.6077C20.7775 13.8533 21.7807 14.9113 21.7807 16.1388C21.7807 17.3664 20.7775 18.4244 19.3808 18.6699Z" fill="#595959"/>
</g>
<defs>
<clipPath id="clip0_375_1124">
<rect width="36" height="31" fill="white" transform="translate(0.780762 0.638916)"/>
</clipPath>
</defs>
</svg>
