<svg width="32" height="32" viewBox="0 0 32 32" fill="none" xmlns="http://www.w3.org/2000/svg">
<g clip-path="url(#clip0_375_1104)">
<path d="M16.269 24.3022C18.8265 24.3022 21.4155 23.4703 21.4155 21.8803V18.4391L23.8374 17.3627V23.6967C23.8374 24.031 24.1085 24.3022 24.4429 24.3022C24.7772 24.3022 25.0483 24.031 25.0483 23.6967V16.4311C25.0483 16.1626 24.8806 15.9581 24.6776 15.8728L16.5149 12.245C16.3583 12.1753 16.1797 12.1753 16.0231 12.245L7.84927 15.8778C7.6307 15.975 7.48975 16.1918 7.48975 16.4311C7.48975 16.6703 7.63064 16.8872 7.84927 16.9843L11.1226 18.4391V21.8803C11.1226 23.4703 13.7115 24.3022 16.269 24.3022ZM20.2046 21.8803C20.2046 22.2424 18.8656 23.0912 16.269 23.0912C13.6725 23.0912 12.3335 22.2424 12.3335 21.8803V18.9774L16.0231 20.6172C16.1014 20.652 16.1852 20.6693 16.269 20.6693C16.3528 20.6693 16.4367 20.652 16.515 20.6172L20.2046 18.9773V21.8803ZM9.58594 16.4311L16.269 13.4608L22.9521 16.4311L16.269 19.4013L9.58594 16.4311Z" fill="#595959"/>
<path d="M31.1636 3.11072H1.37451C1.04011 3.11072 0.769043 3.38179 0.769043 3.71619V29.1459C0.769043 29.4802 1.04011 29.7513 1.37451 29.7513H13.5444C13.8788 29.7513 14.1499 29.4802 14.1499 29.1459C14.1499 28.8115 13.8788 28.5404 13.5444 28.5404H1.97998V9.77087H30.5581V28.5404H18.9937C18.6593 28.5404 18.3882 28.8115 18.3882 29.1459C18.3882 29.4802 18.6593 29.7513 18.9937 29.7513H31.1636C31.4979 29.7513 31.769 29.4802 31.769 29.1459V3.71619C31.769 3.38179 31.4979 3.11072 31.1636 3.11072ZM30.5581 8.55994H1.97998V4.32166H19.2964V5.53259C19.2964 5.86693 19.5675 6.13806 19.9019 6.13806C20.2362 6.13806 20.5073 5.86693 20.5073 5.53259V4.32166H22.9292V5.53259C22.9292 5.86693 23.2003 6.13806 23.5347 6.13806C23.869 6.13806 24.1401 5.86693 24.1401 5.53259V4.32166H26.562V5.53259C26.562 5.86693 26.8331 6.13806 27.1675 6.13806C27.5018 6.13806 27.7729 5.86693 27.7729 5.53259V4.32166H30.5581V8.55994Z" fill="#595959"/>
<path d="M16.269 29.7513C16.6034 29.7513 16.8745 29.4803 16.8745 29.1459C16.8745 28.8115 16.6034 28.5404 16.269 28.5404C15.9347 28.5404 15.6636 28.8115 15.6636 29.1459C15.6636 29.4803 15.9347 29.7513 16.269 29.7513Z" fill="#595959"/>
</g>
<defs>
<clipPath id="clip0_375_1104">
<rect width="31" height="31" fill="white" transform="translate(0.769043 0.93103)"/>
</clipPath>
</defs>
</svg>
