<svg width="31" height="31" viewBox="0 0 31 31" fill="none" xmlns="http://www.w3.org/2000/svg">
<g clip-path="url(#clip0_446_69)">
<path d="M25.1877 31H5.81266C4.03275 31 2.5835 29.5507 2.5835 27.7708V3.22917C2.5835 1.44925 4.03275 0 5.81266 0H25.1877C26.9676 0 28.4168 1.44925 28.4168 3.22917V27.7708C28.4168 29.5507 26.9676 31 25.1877 31ZM5.81266 1.29167C4.74445 1.29167 3.87516 2.16096 3.87516 3.22917V27.7708C3.87516 28.839 4.74445 29.7083 5.81266 29.7083H25.1877C26.2559 29.7083 27.1252 28.839 27.1252 27.7708V3.22917C27.1252 2.16096 26.2559 1.29167 25.1877 1.29167H5.81266Z" fill="#595959"/>
<path d="M23.8962 15.5H21.3128C20.9563 15.5 20.667 15.2107 20.667 14.8542C20.667 14.4977 20.9563 14.2084 21.3128 14.2084H23.8962C24.2527 14.2084 24.542 14.4977 24.542 14.8542C24.542 15.2107 24.2527 15.5 23.8962 15.5Z" fill="#595959"/>
<path d="M23.8962 11.625H21.3128C20.9563 11.625 20.667 11.3357 20.667 10.9792C20.667 10.6227 20.9563 10.3334 21.3128 10.3334H23.8962C24.2527 10.3334 24.542 10.6227 24.542 10.9792C24.542 11.3357 24.2527 11.625 23.8962 11.625Z" fill="#595959"/>
<path d="M23.8962 19.375H21.3128C20.9563 19.375 20.667 19.0857 20.667 18.7292C20.667 18.3727 20.9563 18.0834 21.3128 18.0834H23.8962C24.2527 18.0834 24.542 18.3727 24.542 18.7292C24.542 19.0857 24.2527 19.375 23.8962 19.375Z" fill="#595959"/>
<path d="M23.8962 23.25H21.3128C20.9563 23.25 20.667 22.9607 20.667 22.6042C20.667 22.2477 20.9563 21.9584 21.3128 21.9584H23.8962C24.2527 21.9584 24.542 22.2477 24.542 22.6042C24.542 22.9607 24.2527 23.25 23.8962 23.25Z" fill="#595959"/>
<path d="M23.896 27.125H7.10433C6.74783 27.125 6.4585 26.8357 6.4585 26.4792C6.4585 26.1227 6.74783 25.8334 7.10433 25.8334H23.896C24.2525 25.8334 24.5418 26.1227 24.5418 26.4792C24.5418 26.8357 24.2525 27.125 23.896 27.125Z" fill="#595959"/>
<path d="M12.9168 23.25C9.3557 23.25 6.4585 20.3528 6.4585 16.7917C6.4585 13.2306 9.3557 10.3334 12.9168 10.3334C16.478 10.3334 19.3752 13.2306 19.3752 16.7917C19.3752 20.3528 16.478 23.25 12.9168 23.25ZM12.9168 11.625C10.0674 11.625 7.75016 13.9423 7.75016 16.7917C7.75016 19.6411 10.0674 21.9584 12.9168 21.9584C15.7662 21.9584 18.0835 19.6411 18.0835 16.7917C18.0835 13.9423 15.7662 11.625 12.9168 11.625Z" fill="#595959"/>
<path d="M8.8068 21.5476C8.64147 21.5476 8.47613 21.4843 8.34955 21.359C8.09768 21.1072 8.09768 20.6977 8.34955 20.4458L12.2711 16.5243V10.9792C12.2711 10.6227 12.5604 10.3334 12.9169 10.3334C13.2734 10.3334 13.5627 10.6227 13.5627 10.9792V16.7917C13.5627 16.9635 13.4943 17.1275 13.3741 17.249L9.26405 21.359C9.13747 21.4843 8.97213 21.5476 8.8068 21.5476V21.5476Z" fill="#595959"/>
</g>
<defs>
<clipPath id="clip0_446_69">
<rect width="31" height="31" fill="white"/>
</clipPath>
</defs>
</svg>
