<svg width="34" height="35" viewBox="0 0 34 35" fill="none" xmlns="http://www.w3.org/2000/svg">
<g clip-path="url(#clip0_375_1148)">
<path d="M23.9062 0.670288H10.0938C9.53039 0.671026 8.99032 0.895146 8.59196 1.2935C8.19361 1.69186 7.96949 2.23193 7.96875 2.79529V31.4828C7.96949 32.0461 8.19361 32.5862 8.59196 32.9846C8.99032 33.3829 9.53039 33.6071 10.0938 33.6078H23.9062C24.4696 33.6071 25.0097 33.3829 25.408 32.9846C25.8064 32.5862 26.0305 32.0461 26.0312 31.4828V2.79529C26.0305 2.23193 25.8064 1.69186 25.408 1.2935C25.0097 0.895146 24.4696 0.671026 23.9062 0.670288ZM19.4862 1.73279L19.1874 2.79529H14.7588L14.4932 1.73279H19.4862ZM24.9688 31.4828C24.9684 31.7645 24.8563 32.0345 24.6571 32.2337C24.458 32.4329 24.1879 32.5449 23.9062 32.5453H10.0938C9.81207 32.5449 9.54203 32.4329 9.34286 32.2337C9.14368 32.0345 9.03162 31.7645 9.03125 31.4828V2.79529C9.03162 2.51361 9.14368 2.24357 9.34286 2.04439C9.54203 1.84522 9.81207 1.73316 10.0938 1.73279H13.3975L13.8284 3.45537C13.8572 3.5703 13.9235 3.67233 14.0169 3.74524C14.1102 3.81816 14.2253 3.85777 14.3438 3.85779H19.5898C19.7056 3.85779 19.8182 3.81997 19.9105 3.75008C20.0028 3.6802 20.0698 3.58207 20.1012 3.47064L20.5899 1.73279H23.9062C24.1879 1.73316 24.458 1.84522 24.6571 2.04439C24.8563 2.24357 24.9684 2.51361 24.9688 2.79529V31.4828Z" fill="#595959"/>
<path d="M14.3438 30.4203H10.625C10.4841 30.4203 10.349 30.4763 10.2493 30.5759C10.1497 30.6755 10.0938 30.8106 10.0938 30.9515C10.0938 31.0924 10.1497 31.2276 10.2493 31.3272C10.349 31.4268 10.4841 31.4828 10.625 31.4828H14.3438C14.4846 31.4828 14.6198 31.4268 14.7194 31.3272C14.819 31.2276 14.875 31.0924 14.875 30.9515C14.875 30.8106 14.819 30.6755 14.7194 30.5759C14.6198 30.4763 14.4846 30.4203 14.3438 30.4203Z" fill="#595959"/>
<path d="M16.4688 30.4203H15.9375C15.7966 30.4203 15.6615 30.4763 15.5618 30.5759C15.4622 30.6755 15.4062 30.8106 15.4062 30.9515C15.4062 31.0924 15.4622 31.2276 15.5618 31.3272C15.6615 31.4268 15.7966 31.4828 15.9375 31.4828H16.4688C16.6096 31.4828 16.7448 31.4268 16.8444 31.3272C16.944 31.2276 17 31.0924 17 30.9515C17 30.8106 16.944 30.6755 16.8444 30.5759C16.7448 30.4763 16.6096 30.4203 16.4688 30.4203Z" fill="#595959"/>
<path d="M18.8671 14.0272C18.8073 13.9914 18.741 13.9676 18.6719 13.9573C18.6029 13.9471 18.5326 13.9505 18.4649 13.9674C18.3972 13.9843 18.3335 14.0144 18.2775 14.0559C18.2214 14.0975 18.1741 14.1496 18.1382 14.2095L14.9507 19.522C14.8782 19.6428 14.8567 19.7875 14.8909 19.9241C14.925 20.0608 15.0121 20.1783 15.1329 20.2508C15.2537 20.3233 15.3984 20.3449 15.5351 20.3107C15.6718 20.2765 15.7893 20.1894 15.8618 20.0686L19.0493 14.7561C19.0852 14.6963 19.109 14.63 19.1192 14.561C19.1295 14.492 19.1261 14.4216 19.1091 14.3539C19.0922 14.2863 19.0621 14.2226 19.0206 14.1665C18.9791 14.1105 18.9269 14.0631 18.8671 14.0272Z" fill="#595959"/>
<path d="M20.6024 14.1507C20.5588 14.0963 20.5049 14.0509 20.4438 14.0173C20.3827 13.9836 20.3155 13.9623 20.2462 13.9547C20.1061 13.9391 19.9656 13.9799 19.8556 14.0679C19.7456 14.156 19.675 14.2842 19.6595 14.4242C19.644 14.5643 19.6847 14.7048 19.7728 14.8148L21.6321 17.139L19.7728 19.4632C19.6847 19.5733 19.644 19.7138 19.6595 19.8538C19.675 19.9939 19.7456 20.1221 19.8556 20.2101C19.9656 20.2982 20.1061 20.3389 20.2462 20.3234C20.3862 20.3079 20.5144 20.2373 20.6024 20.1273L22.7274 17.4711C22.8029 17.3768 22.844 17.2597 22.844 17.139C22.844 17.0183 22.8029 16.9012 22.7274 16.807L20.6024 14.1507Z" fill="#595959"/>
<path d="M13.3978 20.1273C13.4859 20.2373 13.614 20.3079 13.7541 20.3234C13.8941 20.3389 14.0346 20.2982 14.1447 20.2101C14.2547 20.1221 14.3252 19.9939 14.3408 19.8538C14.3563 19.7138 14.3155 19.5733 14.2275 19.4632L12.3681 17.139L14.2275 14.8148C14.2711 14.7603 14.3035 14.6978 14.323 14.6308C14.3424 14.5638 14.3484 14.4936 14.3408 14.4242C14.3331 14.3549 14.3118 14.2877 14.2781 14.2266C14.2445 14.1654 14.1991 14.1115 14.1447 14.0679C14.0902 14.0243 14.0277 13.9919 13.9606 13.9724C13.8936 13.953 13.8234 13.947 13.7541 13.9547C13.6847 13.9623 13.6176 13.9836 13.5564 14.0173C13.4953 14.0509 13.4414 14.0963 13.3978 14.1507L11.2728 16.807C11.1974 16.9012 11.1562 17.0183 11.1562 17.139C11.1562 17.2597 11.1974 17.3768 11.2728 17.4711L13.3978 20.1273Z" fill="#595959"/>
</g>
<defs>
<clipPath id="clip0_375_1148">
<rect width="34" height="34" fill="white" transform="translate(0 0.139038)"/>
</clipPath>
</defs>
</svg>
