<svg width="32" height="32" viewBox="0 0 32 32" fill="none" xmlns="http://www.w3.org/2000/svg">
<path d="M8.52881 29.046C8.52881 28.7785 8.31195 28.5616 8.04443 28.5616C7.77692 28.5616 7.56006 28.7785 7.56006 29.046C7.56006 29.3135 7.77692 29.5304 8.04443 29.5304C8.31195 29.5304 8.52881 29.3135 8.52881 29.046Z" fill="#595959"/>
<path d="M29.3569 13.0616H26.4507V6.2804H26.4458C26.4479 6.15234 26.3991 6.02869 26.3102 5.93649L22.4352 2.06149C22.3429 1.97227 22.2197 1.92198 22.0913 1.92102H6.59131C6.46284 1.92102 6.33964 1.97205 6.2488 2.06289C6.15797 2.15373 6.10693 2.27693 6.10693 2.4054V13.0616H3.20068C2.81564 13.0628 2.4467 13.2163 2.17444 13.4885C1.90217 13.7608 1.74871 14.1297 1.74756 14.5148V29.5304C1.74871 29.9154 1.90217 30.2844 2.17444 30.5566C2.4467 30.8289 2.81564 30.9824 3.20068 30.9835H12.8882C13.2732 30.9824 13.6422 30.8289 13.9144 30.5566C14.1867 30.2844 14.3402 29.9154 14.3413 29.5304V26.6241H18.2163V29.5304C18.2175 29.9154 18.3709 30.2844 18.6432 30.5566C18.9155 30.8289 19.2844 30.9824 19.6694 30.9835H29.3569C29.742 30.9824 30.1109 30.8289 30.3832 30.5566C30.6554 30.2844 30.8089 29.9154 30.8101 29.5304V14.5148C30.8089 14.1297 30.6554 13.7608 30.3832 13.4885C30.1109 13.2163 29.742 13.0628 29.3569 13.0616ZM22.5757 3.57274L24.799 5.79602H22.5757V3.57274ZM7.07568 2.88977H21.6069V6.2804C21.6069 6.40886 21.658 6.53206 21.7488 6.6229C21.8396 6.71374 21.9628 6.76477 22.0913 6.76477H25.4819V13.0616H19.6694C19.2844 13.0628 18.9155 13.2163 18.6432 13.4885C18.3709 13.7608 18.2175 14.1297 18.2163 14.5148H16.2788C16.1631 14.5134 16.051 14.5548 15.964 14.631L14.971 15.4835H14.3413V14.5148C14.3402 14.1297 14.1867 13.7608 13.9144 13.4885C13.6422 13.2163 13.2732 13.0628 12.8882 13.0616H7.07568V2.88977ZM19.2383 17.6874L18.8847 18.3898H17.4462L16.6227 17.5615C16.54 17.4789 16.4302 17.429 16.3136 17.421C16.197 17.4129 16.0814 17.4474 15.9882 17.5179L14.724 18.4673C14.6307 18.5378 14.5152 18.5722 14.3985 18.5642C14.2819 18.5562 14.1721 18.5063 14.0894 18.4237L13.9683 18.3026C13.921 18.2552 13.8839 18.1986 13.8596 18.1362C13.8352 18.0739 13.824 18.0071 13.8267 17.9402C13.8295 17.8733 13.8461 17.8077 13.8754 17.7475C13.9048 17.6873 13.9463 17.6339 13.9974 17.5906L16.458 15.4835H19.3933L20.706 17.6681C20.7485 17.7407 20.8094 17.8009 20.8825 17.8425C20.9556 17.8842 21.0384 17.9059 21.1226 17.9054H23.5444V21.7804H19.8583C19.9172 21.1441 19.7222 20.5104 19.3158 20.0173L18.7685 19.3585H19.1851C19.2746 19.3589 19.3626 19.3342 19.4388 19.2871C19.515 19.24 19.5764 19.1724 19.6162 19.0921L20.1005 18.1234L19.2383 17.6874ZM2.71631 14.5148C2.71631 14.3863 2.76734 14.2631 2.85818 14.1723C2.94902 14.0814 3.07222 14.0304 3.20068 14.0304H12.8882C13.0166 14.0304 13.1399 14.0814 13.2307 14.1723C13.3215 14.2631 13.3726 14.3863 13.3726 14.5148V15.4835H10.9507C10.8223 15.4845 10.6991 15.5348 10.6068 15.624L9.29896 16.9366H8.04443V16.4523C8.04443 16.3238 7.9934 16.2006 7.90256 16.1098C7.81173 16.0189 7.68852 15.9679 7.56006 15.9679H4.65381C4.52534 15.9679 4.40214 16.0189 4.3113 16.1098C4.22047 16.2006 4.16943 16.3238 4.16943 16.4523V16.9366H2.71631V14.5148ZM7.07568 16.9366V23.2335H5.13818V16.9366H7.07568ZM2.71631 17.9054H4.16943V22.2648H2.71631V17.9054ZM13.3726 29.5304C13.3726 29.6589 13.3215 29.7821 13.2307 29.8729C13.1399 29.9637 13.0166 30.0148 12.8882 30.0148H3.20068C3.07222 30.0148 2.94902 29.9637 2.85818 29.8729C2.76734 29.7821 2.71631 29.6589 2.71631 29.5304V28.0773H13.3726V29.5304ZM13.3726 27.1085H2.71631V23.2335H4.16943V23.7179C4.16943 23.8464 4.22047 23.9696 4.3113 24.0604C4.40214 24.1512 4.52534 24.2023 4.65381 24.2023H7.56006C7.68852 24.2023 7.81173 24.1512 7.90256 24.0604C7.9934 23.9696 8.04443 23.8464 8.04443 23.7179V23.2335H11.9872L12.8058 24.1829C12.9586 24.3629 13.1532 24.5026 13.3726 24.5898V27.1085ZM14.2638 23.592C14.2179 23.6417 14.1614 23.6805 14.0986 23.7056C14.0357 23.7308 13.9681 23.7416 13.9005 23.7373C13.8312 23.7336 13.7634 23.7152 13.7016 23.6835C13.6399 23.6518 13.5855 23.6074 13.5421 23.5532L11.9388 21.6981C11.8505 21.5949 11.8044 21.4623 11.8098 21.3266C11.8152 21.191 11.8717 21.0624 11.9679 20.9666C12.0166 20.9156 12.0752 20.8751 12.1402 20.8476C12.2052 20.8201 12.2751 20.8062 12.3457 20.8068H12.3699C12.4442 20.809 12.5171 20.827 12.584 20.8596C12.6508 20.8922 12.7099 20.9386 12.7574 20.9957L14.3704 22.8654C14.4493 22.9569 14.4902 23.075 14.4848 23.1957C14.4794 23.3164 14.4281 23.4304 14.3413 23.5145L14.2638 23.592ZM18.2163 25.6554H14.3413V24.6334C14.5195 24.5803 14.6856 24.4931 14.8305 24.3766C15.2703 24.7453 15.8275 24.9446 16.4013 24.9384C16.9752 24.9322 17.5279 24.7209 17.9596 24.3427L18.2163 24.1199V25.6554ZM18.4101 22.662L17.3251 23.6113C17.0553 23.8455 16.7089 23.9724 16.3517 23.968C15.9945 23.9635 15.6514 23.828 15.3876 23.5871C15.4567 23.3566 15.4677 23.1125 15.4195 22.8767C15.3713 22.6409 15.2655 22.4207 15.1115 22.2357L13.4888 20.3612C13.3534 20.2043 13.1873 20.0769 13.0006 19.9869C12.814 19.8969 12.6109 19.8463 12.4038 19.8381C12.196 19.8283 11.9885 19.8625 11.7949 19.9385C11.6012 20.0144 11.4258 20.1304 11.2801 20.2788C11.0233 20.5393 10.8695 20.884 10.8472 21.2491C10.825 21.6142 10.9357 21.975 11.159 22.2648H8.04443V17.9054H9.49756C9.62597 17.9044 9.7491 17.8541 9.84146 17.7649L11.1493 16.4523H13.8376L13.3677 16.8543C13.2168 16.9865 13.094 17.1476 13.0067 17.3282C12.9193 17.5088 12.8691 17.705 12.8591 17.9054C12.8518 18.1051 12.8859 18.3042 12.9593 18.49C13.0326 18.6759 13.1437 18.8446 13.2854 18.9856L13.4065 19.1066C13.6551 19.3514 13.9828 19.4995 14.3308 19.5243C14.6788 19.5492 15.0243 19.4492 15.3052 19.2423L16.2352 18.5448L16.9037 19.2181C16.996 19.3073 17.1191 19.3576 17.2476 19.3585H17.5043L18.5699 20.6373C18.8116 20.9293 18.9302 21.3041 18.9003 21.682C18.8705 22.06 18.6946 22.4114 18.4101 22.662ZM29.8413 29.5304C29.8413 29.6589 29.7903 29.7821 29.6994 29.8729C29.6086 29.9637 29.4854 30.0148 29.3569 30.0148H19.6694C19.541 30.0148 19.4178 29.9637 19.3269 29.8729C19.2361 29.7821 19.1851 29.6589 19.1851 29.5304V28.0773H29.8413V29.5304ZM29.8413 27.1085H19.1851V23.2432C19.3298 23.0949 19.4551 22.9289 19.558 22.7491H23.5444C23.5444 22.8776 23.5955 23.0008 23.6863 23.0917C23.7771 23.1825 23.9003 23.2335 24.0288 23.2335H26.9351C27.0635 23.2335 27.1867 23.1825 27.2776 23.0917C27.3684 23.0008 27.4194 22.8776 27.4194 22.7491H29.8413V27.1085ZM24.5132 22.2648V16.9366H26.4507V22.2648H24.5132ZM29.8413 21.7804H27.4194V17.9054H29.8413V21.7804ZM29.8413 16.9366H27.4194V16.4523C27.4194 16.3238 27.3684 16.2006 27.2776 16.1098C27.1867 16.0189 27.0635 15.9679 26.9351 15.9679H24.0288C23.9003 15.9679 23.7771 16.0189 23.6863 16.1098C23.5955 16.2006 23.5444 16.3238 23.5444 16.4523V16.9366H21.3987L20.086 14.7521C20.0435 14.6795 19.9826 14.6193 19.9095 14.5776C19.8364 14.536 19.7536 14.5143 19.6694 14.5148H19.1851C19.1851 14.3863 19.2361 14.2631 19.3269 14.1723C19.4178 14.0814 19.541 14.0304 19.6694 14.0304H29.3569C29.4854 14.0304 29.6086 14.0814 29.6994 14.1723C29.7903 14.2631 29.8413 14.3863 29.8413 14.5148V16.9366Z" fill="#595959"/>
<path d="M24.9976 29.046C24.9976 28.7785 24.7807 28.5616 24.5132 28.5616C24.2457 28.5616 24.0288 28.7785 24.0288 29.046C24.0288 29.3135 24.2457 29.5304 24.5132 29.5304C24.7807 29.5304 24.9976 29.3135 24.9976 29.046Z" fill="#595959"/>
<path d="M9.98193 7.24915H10.9507C11.0791 7.24915 11.2024 7.30018 11.2932 7.39102C11.384 7.48185 11.4351 7.60506 11.4351 7.73352H12.4038C12.4038 7.34813 12.2507 6.97852 11.9782 6.70601C11.7057 6.43349 11.3361 6.2804 10.9507 6.2804V5.79602H9.98193V6.2804C9.59654 6.2804 9.22693 6.43349 8.95442 6.70601C8.68191 6.97852 8.52881 7.34813 8.52881 7.73352C8.52881 8.11891 8.68191 8.48852 8.95442 8.76104C9.22693 9.03355 9.59654 9.18665 9.98193 9.18665H10.9507C11.0791 9.18665 11.2024 9.23768 11.2932 9.32852C11.384 9.41935 11.4351 9.54256 11.4351 9.67102C11.4351 9.79948 11.384 9.92269 11.2932 10.0135C11.2024 10.1044 11.0791 10.1554 10.9507 10.1554H9.98193C9.85347 10.1554 9.73027 10.1044 9.63943 10.0135C9.54859 9.92269 9.49756 9.79948 9.49756 9.67102H8.52881C8.52881 10.0564 8.68191 10.426 8.95442 10.6985C9.22693 10.971 9.59654 11.1241 9.98193 11.1241V11.6085H10.9507V11.1241C11.3361 11.1241 11.7057 10.971 11.9782 10.6985C12.2507 10.426 12.4038 10.0564 12.4038 9.67102C12.4038 9.28563 12.2507 8.91602 11.9782 8.64351C11.7057 8.37099 11.3361 8.2179 10.9507 8.2179H9.98193C9.85347 8.2179 9.73027 8.16686 9.63943 8.07603C9.54859 7.98519 9.49756 7.86198 9.49756 7.73352C9.49756 7.60506 9.54859 7.48185 9.63943 7.39102C9.73027 7.30018 9.85347 7.24915 9.98193 7.24915Z" fill="#595959"/>
<path d="M19.6694 5.79602H13.8569V6.76477H19.6694V5.79602Z" fill="#595959"/>
<path d="M24.0288 8.2179H13.8569V9.18665H24.0288V8.2179Z" fill="#595959"/>
<path d="M24.0288 10.6398H13.8569V11.6085H24.0288V10.6398Z" fill="#595959"/>
<path d="M25.9663 21.296C25.9663 21.0285 25.7494 20.8116 25.4819 20.8116C25.2144 20.8116 24.9976 21.0285 24.9976 21.296C24.9976 21.5635 25.2144 21.7804 25.4819 21.7804C25.7494 21.7804 25.9663 21.5635 25.9663 21.296Z" fill="#595959"/>
<path d="M6.59131 21.7804C6.59131 21.5129 6.37445 21.296 6.10693 21.296C5.83942 21.296 5.62256 21.5129 5.62256 21.7804C5.62256 22.0479 5.83942 22.2648 6.10693 22.2648C6.37445 22.2648 6.59131 22.0479 6.59131 21.7804Z" fill="#595959"/>
</svg>
