<?xml version="1.0" encoding="UTF-8"?> <!-- Generator: Adobe Illustrator 23.0.3, SVG Export Plug-In . SVG Version: 6.00 Build 0) --> <svg xmlns="http://www.w3.org/2000/svg" xmlns:xlink="http://www.w3.org/1999/xlink" id="Layer_1" x="0px" y="0px" viewBox="0 0 512 491.5" style="enable-background:new 0 0 512 491.5;" xml:space="preserve"> <style type="text/css"> .st0{fill:#D5F5FB;} .st1{fill:#EFAC97;} .st2{fill:#B8D6F2;} .st3{fill:#FFFFFF;} .st4{fill:#F2652E;} .st5{fill:#243665;} .st6{fill:#245194;} .st7{display:none;fill:#243665;} </style> <rect id="XMLID_1457_" x="275.6" y="58" class="st0" width="68.4" height="39.5"></rect> <path id="XMLID_1456_" class="st1" d="M273.9,58h72c13.3,0,24-10.7,24-24l0,0c0-13.3-10.7-24-24-24h-72c-13.3,0-24,10.7-24,24l0,0 C249.9,47.3,260.6,58,273.9,58z"></path> <circle id="XMLID_1452_" class="st2" cx="310" cy="289.5" r="192"></circle> <circle id="XMLID_2618_" class="st3" cx="310" cy="289.5" r="145.1"></circle> <g id="XMLID_386_"> <path class="st4" d="M422.2,133.4c2.2-2.4,4.3-4.9,6.4-7.4c-22.7-16.5-48.2-27.7-74.6-33.6V67c14.8-3.7,25.8-17.1,25.8-33 c0-18.7-15.3-34-34-34h-72c-18.7,0-34,15.3-34,34c0,15.9,11,29.3,25.8,33v25.5c-19.3,4.3-38.1,11.5-55.7,21.5 c3.8,5.6,7.9,10.9,12.3,16c60.4-33.2,135.9-29.6,193.1,10.9C417.6,138.5,419.9,135.9,422.2,133.4z M334.1,89 c-16.1-1.9-32.3-1.9-48.4,0V68h48.4V89z M273.9,48c-7.7,0-14-6.3-14-14c0-7.7,6.3-14,14-14h72c7.7,0,14,6.3,14,14 c0,7.7-6.3,14-14,14H273.9z"></path> <path class="st5" d="M346.5,89.9"></path> <path class="st6" d="M334.1,89c-16.1-1.9-32.3-1.9-48.4,0l-20,3.4c-36.1,8.1-70.4,26.1-98.5,54.2c-6.1,6.1-11.8,12.6-17,19.3 c-0.3,0-0.5,0-0.8,0H78.2c-5.5,0-10,4.5-10,10c0,5.5,4.5,10,10,10h58.4c-7.3,12.3-13.2,25.2-17.7,38.4H10c-5.5,0-10,4.5-10,10 s4.5,10,10,10h103.2c-2.9,12.7-4.5,25.5-5,38.4H64c-5.5,0-10,4.5-10,10c0,5.5,4.5,10,10,10h44.5c0.8,12.9,2.9,25.8,6.2,38.4H50 c-5.5,0-10,4.5-10,10c0,5.5,4.5,10,10,10h71.2c9.8,26,25.1,50.3,46,71.1c32.9,32.9,76.6,53.6,122.9,58.2c6.6,0.7,13.2,1,19.8,1 c39,0,77.5-11.3,110.2-32.6c4.6-3,5.9-9.2,2.9-13.8c-3-4.6-9.2-5.9-13.8-2.9c-71.6,46.6-167.4,36.5-227.9-24 c-71-71-71-186.4,0-257.4c71-71,186.4-71,257.4,0c60.4,60.4,70.5,156.2,24.1,227.7c-3,4.6-1.7,10.8,2.9,13.8 c4.6,3,10.8,1.7,13.8-2.9c24.8-38.2,36-84.4,31.5-130c-4.6-46.2-25.3-89.8-58.2-122.7c-28.1-28.1-62.6-46.2-98.8-54.2"></path> <path class="st5" d="M335.1,88.6"></path> <path class="st5" d="M285.6,89"></path> <path id="XMLID_1_" class="st7" d="M511,269.4c-4.6-46.2-25.3-89.8-58.2-122.7c-28.1-28.1-62.6-46.2-98.8-54.2V67 c14.8-3.7,25.8-17.1,25.8-33c0-18.7-15.3-34-34-34h-72c-18.7,0-34,15.3-34,34c0,15.9,11,29.3,25.8,33v25.5 c-36.1,8.1-70.4,26.1-98.5,54.2c-6.1,6.1-11.8,12.6-17,19.3c-0.3,0-0.5,0-0.8,0H78.2c-5.5,0-10,4.5-10,10c0,5.5,4.5,10,10,10h58.4 c-7.3,12.3-13.2,25.2-17.7,38.4H10c-5.5,0-10,4.5-10,10c0,5.5,4.5,10,10,10h103.2c-2.9,12.7-4.5,25.5-5,38.4H64 c-5.5,0-10,4.5-10,10s4.5,10,10,10h44.5c0.8,12.9,2.9,25.8,6.2,38.4H50c-5.5,0-10,4.5-10,10c0,5.5,4.5,10,10,10h71.2 c9.8,26,25.1,50.3,46,71.1c32.9,32.9,76.6,53.6,122.9,58.2c6.6,0.7,13.2,1,19.8,1c39,0,77.5-11.3,110.2-32.6 c4.6-3,5.9-9.2,2.9-13.8c-3-4.6-9.2-5.9-13.8-2.9c-71.6,46.6-167.4,36.5-227.9-24c-71-71-71-186.4,0-257.4c71-71,186.4-71,257.4,0 c60.4,60.4,70.5,156.2,24.1,227.7c-3,4.6-1.7,10.8,2.9,13.8c4.6,3,10.8,1.7,13.8-2.9C504.4,361.1,515.5,315,511,269.4z M259.9,34 c0-7.7,6.3-14,14-14h72c7.7,0,14,6.3,14,14s-6.3,14-14,14h-1.8h-68.4h-1.8C266.1,48,259.9,41.7,259.9,34z M285.6,89V68h48.4v21 C318,87.1,301.7,87.1,285.6,89z"></path> <path id="XMLID_397_" class="st4" d="M373.3,212.1l-49.5,49.5c-4.1-2-8.8-3.2-13.7-3.2c-4.9,0-9.6,1.2-13.7,3.2l-22.2-22.2 c-3.9-3.9-10.2-3.9-14.1,0c-3.9,3.9-3.9,10.2,0,14.1l22.2,22.2c-2,4.1-3.2,8.8-3.2,13.7c0,17.1,13.9,31.1,31.1,31.1 c17.1,0,31.1-13.9,31.1-31.1c0-4.9-1.2-9.6-3.2-13.7l48.1-48.1l0,0l1.5-1.5c3.9-3.9,3.9-10.2,0-14.1S377.2,208.2,373.3,212.1z M310,300.6c-6.1,0-11.1-5-11.1-11.1s5-11.1,11.1-11.1s11.1,5,11.1,11.1S316.1,300.6,310,300.6z"></path> <path id="XMLID_398_" class="st4" d="M416.9,279.6h-9.3c-5.5,0-10,4.5-10,10s4.5,10,10,10h9.3c5.5,0,10-4.5,10-10 S422.4,279.6,416.9,279.6z"></path> <path id="XMLID_399_" class="st4" d="M212.3,279.4h-9.3c-5.5,0-10,4.5-10,10s4.5,10,10,10h9.3c5.5,0,10-4.5,10-10 S217.9,279.4,212.3,279.4z"></path> <path id="XMLID_400_" class="st4" d="M310.1,201.8c5.5,0,10-4.5,10-10v-9.3c0-5.5-4.5-10-10-10s-10,4.5-10,10v9.3 C300.1,197.3,304.6,201.8,310.1,201.8z"></path> <path id="XMLID_424_" class="st4" d="M309.9,377.1c-5.5,0-10,4.5-10,10v9.3c0,5.5,4.5,10,10,10c5.5,0,10-4.5,10-10v-9.3 C319.9,381.6,315.4,377.1,309.9,377.1z"></path> </g> </svg> 